<svg xmlns="http://www.w3.org/2000/svg" xmlns:xlink="http://www.w3.org/1999/xlink" width="1920" zoomAndPan="magnify" viewBox="0 0 1440 809.999993" height="1080" preserveAspectRatio="xMidYMid meet" version="1.0"><defs><filter x="0%" y="0%" width="100%" height="100%" id="82cd320813"><feColorMatrix values="0 0 0 0 1 0 0 0 0 1 0 0 0 0 1 0 0 0 1 0" color-interpolation-filters="sRGB"/></filter><g/><mask id="e47f55a7ca"><g filter="url(#82cd320813)"><rect x="-144" width="1728" fill="#000000" y="-80.999999" height="971.999992" fill-opacity="0.65"/></g></mask><clipPath id="dd0ded42d3"><rect x="0" width="541" y="0" height="90"/></clipPath></defs><g mask="url(#e47f55a7ca)"><g transform="matrix(1, 0, 0, 1, 451, 360)"><g clip-path="url(#dd0ded42d3)"><g fill="#ffffff" fill-opacity="1"><g transform="translate(6.619688, 73.622795)"><g><path d="M 37.09375 -37.09375 L 29.671875 -37.09375 L 29.671875 -44.515625 L 14.859375 -44.515625 L 14.859375 -7.421875 L 29.671875 -7.421875 L 29.671875 -14.859375 L 37.09375 -14.859375 Z M 44.515625 -44.515625 L 44.515625 -37.09375 L 51.953125 -37.09375 L 51.953125 -14.859375 L 44.515625 -14.859375 L 44.515625 -7.421875 L 37.09375 -7.421875 L 37.09375 0 L 0 0 L 0 -51.953125 L 37.09375 -51.953125 L 37.09375 -44.515625 Z M 44.515625 -44.515625 "/></g></g></g><g fill="#ffffff" fill-opacity="1"><g transform="translate(71.142346, 73.622795)"><g><path d="M 14.859375 -7.421875 L 44.515625 -7.421875 L 44.515625 0 L 0 0 L 0 -51.953125 L 44.515625 -51.953125 L 44.515625 -44.515625 L 14.859375 -44.515625 L 14.859375 -29.671875 L 37.09375 -29.671875 L 37.09375 -22.234375 L 14.859375 -22.234375 Z M 14.859375 -7.421875 "/></g></g></g><g fill="#ffffff" fill-opacity="1"><g transform="translate(128.276043, 73.622795)"><g><path d="M 22.234375 -37.09375 L 22.234375 -14.859375 L 29.671875 -14.859375 L 29.671875 -37.09375 L 37.09375 -37.09375 L 37.09375 -51.953125 L 51.953125 -51.953125 L 51.953125 -37.09375 L 44.515625 -37.09375 L 44.515625 -14.859375 L 37.09375 -14.859375 L 37.09375 0 L 14.859375 0 L 14.859375 -14.859375 L 7.421875 -14.859375 L 7.421875 -37.09375 L 0 -37.09375 L 0 -51.953125 L 14.859375 -51.953125 L 14.859375 -37.09375 Z M 22.234375 -37.09375 "/></g></g></g><g fill="#ffffff" fill-opacity="1"><g transform="translate(192.798702, 73.622795)"><g><path d="M 14.859375 -7.421875 L 44.515625 -7.421875 L 44.515625 0 L 0 0 L 0 -51.953125 L 44.515625 -51.953125 L 44.515625 -44.515625 L 14.859375 -44.515625 L 14.859375 -29.671875 L 37.09375 -29.671875 L 37.09375 -22.234375 L 14.859375 -22.234375 Z M 14.859375 -7.421875 "/></g></g></g><g fill="#ffffff" fill-opacity="1"><g transform="translate(249.932399, 73.622795)"><g><path d="M 37.09375 -7.421875 L 37.09375 0 L 0 0 L 0 -51.953125 L 14.78125 -51.953125 L 14.78125 -7.421875 Z M 37.09375 -7.421875 "/></g></g></g><g fill="#ffffff" fill-opacity="1"><g transform="translate(299.640921, 73.622795)"><g><path d="M 7.421875 -37.09375 L 7.421875 -44.515625 L 14.859375 -44.515625 L 14.859375 -51.953125 L 44.515625 -51.953125 L 44.515625 -44.515625 L 51.953125 -44.515625 L 51.953125 -37.09375 L 59.328125 -37.09375 L 59.328125 -14.859375 L 51.953125 -14.859375 L 51.953125 -7.421875 L 44.515625 -7.421875 L 44.515625 0 L 14.859375 0 L 14.859375 -7.421875 L 7.421875 -7.421875 L 7.421875 -14.859375 L 0 -14.859375 L 0 -37.09375 Z M 37.09375 -37.09375 L 37.09375 -44.515625 L 22.234375 -44.515625 L 22.234375 -37.171875 L 14.859375 -37.171875 L 14.859375 -14.78125 L 22.234375 -14.78125 L 22.234375 -7.421875 L 37.09375 -7.421875 L 37.09375 -14.859375 L 44.515625 -14.859375 L 44.515625 -37.09375 Z M 37.09375 -37.09375 "/></g></g></g><g fill="#ffffff" fill-opacity="1"><g transform="translate(371.588781, 73.622795)"><g><path d="M 14.859375 -29.671875 L 29.703125 -29.671875 L 29.703125 -44.515625 L 14.859375 -44.515625 Z M 37.09375 -29.671875 L 37.09375 -22.234375 L 14.859375 -22.234375 L 14.859375 0 L 0 0 L 0 -51.953125 L 37.09375 -51.953125 L 37.09375 -44.515625 L 44.515625 -44.515625 L 44.515625 -29.671875 Z M 37.09375 -29.671875 "/></g></g></g><g fill="#ffffff" fill-opacity="1"><g transform="translate(428.722478, 73.622795)"><g><path d="M 14.859375 -7.421875 L 44.515625 -7.421875 L 44.515625 0 L 0 0 L 0 -51.953125 L 44.515625 -51.953125 L 44.515625 -44.515625 L 14.859375 -44.515625 L 14.859375 -29.671875 L 37.09375 -29.671875 L 37.09375 -22.234375 L 14.859375 -22.234375 Z M 14.859375 -7.421875 "/></g></g></g><g fill="#ffffff" fill-opacity="1"><g transform="translate(485.856175, 73.622795)"><g><path d="M 14.859375 -29.671875 L 29.703125 -29.671875 L 29.703125 -44.515625 L 14.859375 -44.515625 Z M 14.859375 -22.234375 L 14.859375 0 L 0 0 L 0 -51.953125 L 37.09375 -51.953125 L 37.09375 -44.515625 L 44.515625 -44.515625 L 44.515625 -29.671875 L 37.09375 -29.671875 L 37.09375 -22.234375 L 44.515625 -22.234375 L 44.515625 0 L 29.671875 0 L 29.671875 -22.234375 Z M 14.859375 -22.234375 "/></g></g></g><path stroke-linecap="butt" transform="matrix(0.901021, 0, 0, 0.901021, -5.627282, 10.876408)" fill="none" stroke-linejoin="miter" d="M 51.125086 24.831374 L 42.879233 24.831374 L 42.879233 16.589857 L 26.435216 16.589857 L 26.435216 57.758426 L 42.879233 57.758426 L 42.879233 49.516909 L 51.125086 49.516909 Z M 59.366604 16.589857 L 59.366604 24.831374 L 67.608121 24.831374 L 67.608121 49.516909 L 59.366604 49.516909 L 59.366604 57.758426 L 51.125086 57.758426 L 51.125086 65.999944 L 9.952181 65.999944 L 9.952181 8.344004 L 51.125086 8.344004 L 51.125086 16.589857 Z M 98.046677 57.758426 L 130.973729 57.758426 L 130.973729 65.999944 L 81.563642 65.999944 L 81.563642 8.344004 L 130.973729 8.344004 L 130.973729 16.589857 L 98.046677 16.589857 L 98.046677 33.072892 L 122.732211 33.072892 L 122.732211 41.31441 L 98.046677 41.31441 Z M 169.658138 24.831374 L 169.658138 49.516909 L 177.899655 49.516909 L 177.899655 24.831374 L 186.145508 24.831374 L 186.145508 8.344004 L 202.628543 8.344004 L 202.628543 24.831374 L 194.387026 24.831374 L 194.387026 49.516909 L 186.145508 49.516909 L 186.145508 65.999944 L 161.455638 65.999944 L 161.455638 49.516909 L 153.214121 49.516909 L 153.214121 24.831374 L 144.972603 24.831374 L 144.972603 8.344004 L 161.455638 8.344004 L 161.455638 24.831374 Z M 233.067099 57.758426 L 265.994151 57.758426 L 265.994151 65.999944 L 216.584064 65.999944 L 216.584064 8.344004 L 265.994151 8.344004 L 265.994151 16.589857 L 233.067099 16.589857 L 233.067099 33.072892 L 257.752633 33.072892 L 257.752633 41.31441 L 233.067099 41.31441 Z M 321.16593 57.758426 L 321.16593 65.999944 L 279.993025 65.999944 L 279.993025 8.344004 L 296.398024 8.344004 L 296.398024 57.758426 Z M 343.406322 24.831374 L 343.406322 16.589857 L 351.647839 16.589857 L 351.647839 8.344004 L 384.574891 8.344004 L 384.574891 16.589857 L 392.816409 16.589857 L 392.816409 24.831374 L 401.018908 24.831374 L 401.018908 49.516909 L 392.816409 49.516909 L 392.816409 57.758426 L 384.574891 57.758426 L 384.574891 65.999944 L 351.647839 65.999944 L 351.647839 57.758426 L 343.406322 57.758426 L 343.406322 49.516909 L 335.164804 49.516909 L 335.164804 24.831374 Z M 376.333374 24.831374 L 376.333374 16.589857 L 359.850339 16.589857 L 359.850339 24.749003 L 351.647839 24.749003 L 351.647839 49.594945 L 359.850339 49.594945 L 359.850339 57.758426 L 376.333374 57.758426 L 376.333374 49.516909 L 384.574891 49.516909 L 384.574891 24.831374 Z M 431.500818 33.072892 L 447.983853 33.072892 L 447.983853 16.589857 L 431.500818 16.589857 Z M 456.186352 33.072892 L 456.186352 41.31441 L 431.500818 41.31441 L 431.500818 65.999944 L 415.013447 65.999944 L 415.013447 8.344004 L 456.186352 8.344004 L 456.186352 16.589857 L 464.42787 16.589857 L 464.42787 33.072892 Z M 494.909779 57.758426 L 527.836831 57.758426 L 527.836831 65.999944 L 478.426744 65.999944 L 478.426744 8.344004 L 527.836831 8.344004 L 527.836831 16.589857 L 494.909779 16.589857 L 494.909779 33.072892 L 519.595313 33.072892 L 519.595313 41.31441 L 494.909779 41.31441 Z M 558.31874 33.072892 L 574.801775 33.072892 L 574.801775 16.589857 L 558.31874 16.589857 Z M 558.31874 41.31441 L 558.31874 65.999944 L 541.835705 65.999944 L 541.835705 8.344004 L 583.004275 8.344004 L 583.004275 16.589857 L 591.245792 16.589857 L 591.245792 33.072892 L 583.004275 33.072892 L 583.004275 41.31441 L 591.245792 41.31441 L 591.245792 65.999944 L 574.762757 65.999944 L 574.762757 41.31441 Z M 558.31874 41.31441 " stroke="#e6b31e" stroke-width="3.087953" stroke-opacity="1" stroke-miterlimit="4"/></g></g></g></svg>