<svg xmlns="http://www.w3.org/2000/svg" xmlns:xlink="http://www.w3.org/1999/xlink" width="1920" zoomAndPan="magnify" viewBox="0 0 1440 809.999993" height="1080" preserveAspectRatio="xMidYMid meet" version="1.0"><defs><filter x="0%" y="0%" width="100%" height="100%" id="bb3876f009"><feColorMatrix values="0 0 0 0 1 0 0 0 0 1 0 0 0 0 1 0 0 0 1 0" color-interpolation-filters="sRGB"/></filter><mask id="bd74d226bc"><g filter="url(#bb3876f009)"><rect x="-144" width="1728" fill="#000000" y="-80.999999" height="971.999992" fill-opacity="0.8"/></g></mask><clipPath id="71f1fb2384"><rect x="0" width="548" y="0" height="91"/></clipPath></defs><g mask="url(#bd74d226bc)"><g transform="matrix(1, 0, 0, 1, 448, 360)"><g clip-path="url(#71f1fb2384)"><path stroke-linecap="butt" transform="matrix(0.912168, 0, 0, 0.912168, -5.595143, 11.004904)" fill="none" stroke-linejoin="miter" d="M 51.124593 24.828152 L 42.881009 24.828152 L 42.881009 16.588851 L 26.436666 16.588851 L 26.436666 57.759663 L 42.881009 57.759663 L 42.881009 49.516079 L 51.124593 49.516079 Z M 59.363894 16.588851 L 59.363894 24.828152 L 67.607478 24.828152 L 67.607478 49.516079 L 59.363894 49.516079 L 59.363894 57.759663 L 51.124593 57.759663 L 51.124593 65.998964 L 9.953781 65.998964 L 9.953781 8.345267 L 51.124593 8.345267 L 51.124593 16.588851 Z M 98.046643 57.759663 L 130.973871 57.759663 L 130.973871 65.998964 L 81.563758 65.998964 L 81.563758 8.345267 L 130.973871 8.345267 L 130.973871 16.588851 L 98.046643 16.588851 L 98.046643 33.071736 L 122.73457 33.071736 L 122.73457 41.315319 L 98.046643 41.315319 Z M 169.660902 24.828152 L 169.660902 49.516079 L 177.900203 49.516079 L 177.900203 24.828152 L 186.143787 24.828152 L 186.143787 8.345267 L 202.626672 8.345267 L 202.626672 24.828152 L 194.387371 24.828152 L 194.387371 49.516079 L 186.143787 49.516079 L 186.143787 65.998964 L 161.45586 65.998964 L 161.45586 49.516079 L 153.216559 49.516079 L 153.216559 24.828152 L 144.972975 24.828152 L 144.972975 8.345267 L 161.45586 8.345267 L 161.45586 24.828152 Z M 233.070119 57.759663 L 265.997348 57.759663 L 265.997348 65.998964 L 216.582952 65.998964 L 216.582952 8.345267 L 265.997348 8.345267 L 265.997348 16.588851 L 233.070119 16.588851 L 233.070119 33.071736 L 257.753764 33.071736 L 257.753764 41.315319 L 233.070119 41.315319 Z M 321.162981 57.759663 L 321.162981 65.998964 L 279.992169 65.998964 L 279.992169 8.345267 L 296.397971 8.345267 L 296.397971 57.759663 Z M 343.405669 24.828152 L 343.405669 16.588851 L 351.649252 16.588851 L 351.649252 8.345267 L 384.576481 8.345267 L 384.576481 16.588851 L 392.815782 16.588851 L 392.815782 24.828152 L 401.020824 24.828152 L 401.020824 49.516079 L 392.815782 49.516079 L 392.815782 57.759663 L 384.576481 57.759663 L 384.576481 65.998964 L 351.649252 65.998964 L 351.649252 57.759663 L 343.405669 57.759663 L 343.405669 49.516079 L 335.162085 49.516079 L 335.162085 24.828152 Z M 376.332897 24.828152 L 376.332897 16.588851 L 359.850012 16.588851 L 359.850012 24.751069 L 351.649252 24.751069 L 351.649252 49.597445 L 359.850012 49.597445 L 359.850012 57.759663 L 376.332897 57.759663 L 376.332897 49.516079 L 384.576481 49.516079 L 384.576481 24.828152 Z M 431.498531 33.071736 L 447.981416 33.071736 L 447.981416 16.588851 L 431.498531 16.588851 Z M 456.186458 33.071736 L 456.186458 41.315319 L 431.498531 41.315319 L 431.498531 65.998964 L 415.015646 65.998964 L 415.015646 8.345267 L 456.186458 8.345267 L 456.186458 16.588851 L 464.425759 16.588851 L 464.425759 33.071736 Z M 494.907748 57.759663 L 527.834976 57.759663 L 527.834976 65.998964 L 478.424863 65.998964 L 478.424863 8.345267 L 527.834976 8.345267 L 527.834976 16.588851 L 494.907748 16.588851 L 494.907748 33.071736 L 519.595675 33.071736 L 519.595675 41.315319 L 494.907748 41.315319 Z M 558.316965 33.071736 L 574.804132 33.071736 L 574.804132 16.588851 L 558.316965 16.588851 Z M 558.316965 41.315319 L 558.316965 65.998964 L 541.83408 65.998964 L 541.83408 8.345267 L 583.004892 8.345267 L 583.004892 16.588851 L 591.248476 16.588851 L 591.248476 33.071736 L 583.004892 33.071736 L 583.004892 41.315319 L 591.248476 41.315319 L 591.248476 65.998964 L 574.761309 65.998964 L 574.761309 41.315319 Z M 558.316965 41.315319 " stroke="#e6b31e" stroke-width="3.087953" stroke-opacity="1" stroke-miterlimit="4"/></g></g></g></svg>