<svg xmlns="http://www.w3.org/2000/svg" xmlns:xlink="http://www.w3.org/1999/xlink" width="500" zoomAndPan="magnify" viewBox="0 0 375 374.999991" height="500" preserveAspectRatio="xMidYMid meet" version="1.0"><defs><filter x="0%" y="0%" width="100%" height="100%" id="4e5e31bbba"><feColorMatrix values="0 0 0 0 1 0 0 0 0 1 0 0 0 0 1 0 0 0 1 0" color-interpolation-filters="sRGB"/></filter><mask id="ed11789d97"><g filter="url(#4e5e31bbba)"><rect x="-37.5" width="450" fill="#000000" y="-37.499999" height="449.999989" fill-opacity="0.75"/></g></mask><clipPath id="983a4e2f25"><path d="M 0.238281 30 L 148.5 30 L 148.5 116 L 0.238281 116 Z M 0.238281 30 " clip-rule="nonzero"/></clipPath><clipPath id="1e376c60b5"><rect x="0" width="155" y="0" height="119"/></clipPath></defs><g mask="url(#ed11789d97)"><g transform="matrix(1, 0, 0, 1, 114, 127)"><g clip-path="url(#1e376c60b5)"><g clip-path="url(#983a4e2f25)"><path fill="#e6b31e" d="M 50.433594 115.128906 C 33.371094 115.128906 20.234375 109.859375 11.394531 99.449219 C 2.914062 89.464844 -1.285156 74.097656 0.945312 61.203125 C 1.203125 59.722656 2.488281 58.640625 3.988281 58.640625 L 100.414062 58.640625 C 103.082031 58.714844 105.242188 58.265625 106.851562 57.785156 C 103.691406 50.023438 105.550781 40.5625 109.402344 34.773438 L 111.464844 31.683594 C 112.40625 30.273438 114.300781 29.890625 115.726562 30.820312 L 118.832031 32.871094 C 124.042969 36.851562 127.253906 41.160156 128.671875 46.054688 C 134.023438 45.59375 140.519531 46.316406 144.191406 48.773438 L 147.128906 50.722656 C 148.417969 51.582031 148.875 53.265625 148.191406 54.65625 L 147.84375 55.363281 C 147.328125 56.4375 146.566406 57.976562 146.242188 58.554688 C 140.796875 68.84375 130.628906 70.042969 125.308594 70.128906 C 112.382812 99.171875 85.875 115.128906 50.433594 115.128906 Z M 6.679688 64.816406 C 5.65625 75.425781 9.289062 87.445312 16.09375 95.457031 C 23.714844 104.414062 35.265625 108.957031 50.433594 108.957031 C 83.992188 108.957031 108.851562 93.648438 120.425781 65.84375 C 120.914062 64.679688 122.140625 64.0625 123.332031 63.945312 C 129.382812 64.074219 136.808594 63.214844 140.800781 55.628906 C 140.828125 55.585938 140.863281 55.519531 140.890625 55.476562 C 141.007812 55.277344 141.222656 54.859375 141.457031 54.371094 L 140.757812 53.902344 C 138.554688 52.433594 132.140625 51.535156 126.816406 52.519531 C 126 52.667969 125.128906 52.480469 124.445312 51.988281 C 123.757812 51.492188 123.300781 50.742188 123.191406 49.90625 C 122.566406 45.4375 119.976562 41.511719 115.253906 37.894531 L 114.890625 37.660156 L 114.523438 38.199219 C 111.234375 43.136719 109.988281 51.988281 113.722656 57.667969 C 114.199219 58.390625 114.34375 59.277344 114.136719 60.117188 C 113.917969 60.957031 113.363281 61.667969 112.597656 62.074219 C 111.007812 62.933594 106.710938 64.914062 100.351562 64.800781 L 6.679688 64.800781 Z M 6.679688 64.816406 " fill-opacity="1" fill-rule="nonzero"/></g><path fill="#e6b31e" d="M 99.117188 64.773438 L 9.617188 64.773438 C 7.914062 64.773438 6.53125 63.390625 6.53125 61.683594 L 6.53125 44.105469 C 6.53125 42.402344 7.914062 41.019531 9.617188 41.019531 L 99.117188 41.019531 C 100.820312 41.019531 102.203125 42.402344 102.203125 44.105469 L 102.203125 61.683594 C 102.203125 63.394531 100.820312 64.773438 99.117188 64.773438 Z M 12.703125 58.597656 L 96.03125 58.597656 L 96.03125 47.191406 L 12.703125 47.191406 Z M 12.703125 58.597656 " fill-opacity="1" fill-rule="nonzero"/><path fill="#e6b31e" d="M 80.597656 47.191406 L 25.042969 47.191406 C 23.339844 47.191406 21.957031 45.808594 21.957031 44.105469 L 21.957031 26.523438 C 21.957031 24.820312 23.339844 23.4375 25.042969 23.4375 L 80.597656 23.4375 C 82.300781 23.4375 83.683594 24.820312 83.683594 26.523438 L 83.683594 44.109375 C 83.683594 45.816406 82.300781 47.191406 80.597656 47.191406 Z M 28.128906 41.019531 L 77.511719 41.019531 L 77.511719 29.609375 L 28.128906 29.609375 Z M 28.128906 41.019531 " fill-opacity="1" fill-rule="nonzero"/><path fill="#e6b31e" d="M 80.597656 64.773438 L 62.082031 64.773438 C 60.375 64.773438 58.992188 63.390625 58.992188 61.683594 L 58.992188 8.9375 C 58.992188 7.234375 60.375 5.851562 62.082031 5.851562 L 80.597656 5.851562 C 82.300781 5.851562 83.683594 7.234375 83.683594 8.9375 L 83.683594 61.683594 C 83.683594 63.394531 82.300781 64.773438 80.597656 64.773438 Z M 65.167969 58.597656 L 77.511719 58.597656 L 77.511719 12.023438 L 65.167969 12.023438 Z M 65.167969 58.597656 " fill-opacity="1" fill-rule="nonzero"/><path fill="#e6b31e" d="M 62.082031 64.773438 L 43.5625 64.773438 C 41.859375 64.773438 40.476562 63.390625 40.476562 61.683594 L 40.476562 26.523438 C 40.476562 24.820312 41.859375 23.4375 43.5625 23.4375 L 62.082031 23.4375 C 63.785156 23.4375 65.167969 24.820312 65.167969 26.523438 L 65.167969 61.691406 C 65.167969 63.394531 63.785156 64.773438 62.082031 64.773438 Z M 46.648438 58.597656 L 58.992188 58.597656 L 58.992188 29.609375 L 46.648438 29.609375 Z M 46.648438 58.597656 " fill-opacity="1" fill-rule="nonzero"/><path fill="#e6b31e" d="M 43.5625 64.773438 L 25.042969 64.773438 C 23.339844 64.773438 21.957031 63.390625 21.957031 61.683594 L 21.957031 44.105469 C 21.957031 42.402344 23.339844 41.019531 25.042969 41.019531 L 43.5625 41.019531 C 45.265625 41.019531 46.648438 42.402344 46.648438 44.105469 L 46.648438 61.683594 C 46.648438 63.394531 45.265625 64.773438 43.5625 64.773438 Z M 28.128906 58.597656 L 40.476562 58.597656 L 40.476562 47.191406 L 28.128906 47.191406 Z M 28.128906 58.597656 " fill-opacity="1" fill-rule="nonzero"/></g></g></g></svg>