<svg xmlns="http://www.w3.org/2000/svg" xmlns:xlink="http://www.w3.org/1999/xlink" width="1920" zoomAndPan="magnify" viewBox="0 0 1440 809.999993" height="1080" preserveAspectRatio="xMidYMid meet" version="1.0"><defs><filter x="0%" y="0%" width="100%" height="100%" id="bcabe28398"><feColorMatrix values="0 0 0 0 1 0 0 0 0 1 0 0 0 0 1 0 0 0 1 0" color-interpolation-filters="sRGB"/></filter><g/><mask id="deddae6d9c"><g filter="url(#bcabe28398)"><rect x="-144" width="1728" fill="#000000" y="-80.999999" height="971.999992" fill-opacity="0.76"/></g></mask><clipPath id="1d1b95685a"><rect x="0" width="410" y="0" height="90"/></clipPath></defs><g mask="url(#deddae6d9c)"><g transform="matrix(1, 0, 0, 1, 515, 360)"><g clip-path="url(#1d1b95685a)"><g fill="#e6b31e" fill-opacity="1"><g transform="translate(0.825078, 71.999998)"><g><path d="M 6.003906 0 L 18.015625 0 L 18.015625 -24.019531 L 54.042969 -24.019531 L 54.042969 -36.03125 L 18.015625 -36.03125 L 18.015625 -48.039062 L 66.054688 -48.039062 L 66.054688 -60.050781 L 6.003906 -60.050781 Z M 6.003906 0 "/></g></g></g><g fill="#e6b31e" fill-opacity="1"><g transform="translate(72.881402, 71.999998)"><g><path d="M 6.003906 0 L 18.015625 0 L 18.015625 -12.011719 L 54.042969 -12.011719 L 54.042969 0 L 66.054688 0 L 66.054688 -48.039062 L 54.042969 -48.039062 L 54.042969 -24.019531 L 18.015625 -24.019531 L 18.015625 -48.039062 L 6.003906 -48.039062 Z M 18.015625 -48.039062 L 54.042969 -48.039062 L 54.042969 -60.050781 L 18.015625 -60.050781 Z M 18.015625 -48.039062 "/></g></g></g><g fill="#e6b31e" fill-opacity="1"><g transform="translate(144.937726, 71.999998)"><g><path d="M 6.003906 0 L 42.035156 0 L 42.035156 -12.011719 L 30.023438 -12.011719 L 30.023438 -48.039062 L 42.035156 -48.039062 L 42.035156 -60.050781 L 6.003906 -60.050781 L 6.003906 -48.039062 L 18.015625 -48.039062 L 18.015625 -12.011719 L 6.003906 -12.011719 Z M 6.003906 0 "/></g></g></g><g fill="#e6b31e" fill-opacity="1"><g transform="translate(192.975261, 71.999998)"><g><path d="M 42.035156 -36.03125 L 30.023438 -36.03125 L 30.023438 -24.019531 L 42.035156 -24.019531 Z M 6.003906 0 L 66.054688 0 L 66.054688 -12.011719 L 30.023438 -12.011719 L 30.023438 -24.019531 L 18.015625 -24.019531 L 18.015625 -12.011719 L 6.003906 -12.011719 Z M 6.003906 -48.039062 L 42.035156 -48.039062 L 42.035156 -36.03125 L 54.042969 -36.03125 L 54.042969 -48.039062 L 66.054688 -48.039062 L 66.054688 -60.050781 L 6.003906 -60.050781 Z M 6.003906 -48.039062 "/></g></g></g><g fill="#e6b31e" fill-opacity="1"><g transform="translate(265.031585, 71.999998)"><g><path d="M 6.003906 0 L 18.015625 0 L 18.015625 -12.011719 L 54.042969 -12.011719 L 54.042969 0 L 66.054688 0 L 66.054688 -48.039062 L 54.042969 -48.039062 L 54.042969 -24.019531 L 18.015625 -24.019531 L 18.015625 -48.039062 L 6.003906 -48.039062 Z M 18.015625 -48.039062 L 54.042969 -48.039062 L 54.042969 -60.050781 L 18.015625 -60.050781 Z M 18.015625 -48.039062 "/></g></g></g><g fill="#e6b31e" fill-opacity="1"><g transform="translate(337.08791, 71.999998)"><g><path d="M 54.042969 0 L 66.054688 0 L 66.054688 -60.050781 L 54.042969 -60.050781 L 54.042969 -24.019531 L 42.035156 -24.019531 L 42.035156 -12.011719 L 54.042969 -12.011719 Z M 6.003906 0 L 18.015625 0 L 18.015625 -36.03125 L 30.023438 -36.03125 L 30.023438 -48.039062 L 18.015625 -48.039062 L 18.015625 -60.050781 L 6.003906 -60.050781 Z M 30.023438 -24.019531 L 42.035156 -24.019531 L 42.035156 -36.03125 L 30.023438 -36.03125 Z M 30.023438 -24.019531 "/></g></g></g></g></g></g></svg>