<svg xmlns="http://www.w3.org/2000/svg" xmlns:xlink="http://www.w3.org/1999/xlink" width="500" zoomAndPan="magnify" viewBox="0 0 375 374.999991" height="500" preserveAspectRatio="xMidYMid meet" version="1.0"><defs><filter x="0%" y="0%" width="100%" height="100%" id="55412d7bf6"><feColorMatrix values="0 0 0 0 1 0 0 0 0 1 0 0 0 0 1 0 0 0 1 0" color-interpolation-filters="sRGB"/></filter><mask id="31b1dedd01"><g filter="url(#55412d7bf6)"><rect x="-37.5" width="450" fill="#000000" y="-37.499999" height="449.999989" fill-opacity="0.75"/></g></mask><clipPath id="97a154ee6d"><path d="M 1 0.800781 L 133.703125 0.800781 L 133.703125 150.5 L 1 150.5 Z M 1 0.800781 " clip-rule="nonzero"/></clipPath><clipPath id="bb80d8f8d1"><rect x="0" width="134" y="0" height="151"/></clipPath></defs><g mask="url(#31b1dedd01)"><g transform="matrix(1, 0, 0, 1, 120, 112)"><g clip-path="url(#bb80d8f8d1)"><g clip-path="url(#97a154ee6d)"><path fill="#e6b31e" d="M 67.5 150.480469 C 65.4375 150.480469 63.511719 149.929688 61.730469 148.972656 L 43.460938 138.117188 C 40.714844 136.609375 42.089844 136.058594 42.914062 135.785156 C 46.621094 134.546875 47.308594 134.273438 51.152344 132.074219 C 51.566406 131.800781 52.117188 131.9375 52.527344 132.214844 L 66.535156 140.589844 C 67.085938 140.863281 67.773438 140.863281 68.1875 140.589844 L 122.988281 108.863281 C 123.539062 108.589844 123.8125 108.039062 123.8125 107.351562 L 123.8125 44.027344 C 123.8125 43.339844 123.539062 42.792969 122.988281 42.519531 L 68.1875 10.925781 C 67.640625 10.648438 66.949219 10.648438 66.535156 10.925781 L 11.734375 42.519531 C 11.183594 42.792969 10.90625 43.480469 10.90625 44.027344 L 10.90625 107.351562 C 10.90625 107.898438 11.183594 108.589844 11.730469 108.863281 L 26.703125 117.515625 C 34.808594 121.636719 39.890625 116.832031 39.890625 112.019531 L 39.890625 49.523438 C 39.890625 48.699219 40.578125 47.875 41.539062 47.875 L 48.542969 47.875 C 49.367188 47.875 50.191406 48.5625 50.191406 49.523438 L 50.191406 112.019531 C 50.191406 122.875 44.285156 129.191406 33.984375 129.191406 C 30.824219 129.191406 28.351562 129.191406 21.347656 125.757812 L 6.925781 117.515625 C 3.351562 115.457031 1.15625 111.613281 1.15625 107.492188 L 1.15625 44.167969 C 1.15625 40.046875 3.351562 36.199219 6.925781 34.140625 L 61.730469 2.410156 C 65.160156 0.488281 69.835938 0.488281 73.269531 2.410156 L 128.074219 34.140625 C 131.644531 36.199219 133.84375 40.046875 133.84375 44.167969 L 133.84375 107.488281 C 133.84375 111.609375 131.644531 115.457031 128.074219 117.511719 L 73.269531 149.246094 C 71.484375 150.070312 69.421875 150.476562 67.5 150.476562 Z M 84.398438 106.941406 C 60.355469 106.941406 55.414062 95.949219 55.414062 86.609375 C 55.414062 85.785156 56.097656 84.960938 57.0625 84.960938 L 64.203125 84.960938 C 65.027344 84.960938 65.710938 85.507812 65.710938 86.332031 C 66.808594 93.613281 69.972656 97.1875 84.53125 97.1875 C 96.070312 97.1875 101.011719 94.574219 101.011719 88.394531 C 101.011719 84.824219 99.640625 82.210938 81.648438 80.429688 C 66.675781 78.914062 57.335938 75.621094 57.335938 63.671875 C 57.335938 52.542969 66.675781 45.953125 82.332031 45.953125 C 99.914062 45.953125 108.570312 51.996094 109.667969 65.179688 C 109.667969 65.59375 109.53125 66.003906 109.253906 66.417969 C 108.980469 66.695312 108.570312 66.96875 108.15625 66.96875 L 101.011719 66.96875 C 100.328125 66.96875 99.640625 66.417969 99.503906 65.730469 C 97.855469 58.179688 93.597656 55.707031 82.332031 55.707031 C 69.695312 55.707031 68.1875 60.101562 68.1875 63.398438 C 68.1875 67.378906 69.972656 68.617188 87.003906 70.8125 C 103.902344 73.011719 111.867188 76.167969 111.867188 87.980469 C 111.726562 100.066406 101.835938 106.941406 84.398438 106.941406 Z M 84.398438 106.941406 " fill-opacity="1" fill-rule="nonzero"/></g></g></g></g></svg>