<svg xmlns="http://www.w3.org/2000/svg" xmlns:xlink="http://www.w3.org/1999/xlink" width="500" zoomAndPan="magnify" viewBox="0 0 375 374.999991" height="500" preserveAspectRatio="xMidYMid meet" version="1.0"><defs><clipPath id="bfb3bf7583"><path d="M 146 135 L 236 135 L 236 257 L 146 257 Z M 146 135 " clip-rule="nonzero"/></clipPath><clipPath id="e02611dcc1"><path d="M 144.855469 136.582031 L 186.671875 113.015625 L 259.582031 242.386719 L 217.765625 265.953125 Z M 144.855469 136.582031 " clip-rule="nonzero"/></clipPath><clipPath id="0c14b90cf3"><path d="M 186.632812 113.039062 L 144.816406 136.605469 L 217.726562 265.976562 L 259.542969 242.410156 Z M 186.632812 113.039062 " clip-rule="nonzero"/></clipPath><clipPath id="e5ec51814d"><path d="M 115.355469 108.863281 L 147.230469 108.863281 L 147.230469 144.113281 L 115.355469 144.113281 Z M 115.355469 108.863281 " clip-rule="nonzero"/></clipPath></defs><g clip-path="url(#bfb3bf7583)"><g clip-path="url(#e02611dcc1)"><g clip-path="url(#0c14b90cf3)"><path fill="#e6b31e" d="M 234.105469 255.773438 C 234.972656 255.28125 235.476562 254.136719 235.421875 253.023438 C 218.539062 169.652344 151.136719 136.535156 150.335938 136.128906 C 149.191406 135.625 147.765625 136.144531 147.042969 137.410156 C 146.324219 138.675781 146.84375 140.105469 148.324219 140.703125 C 148.789062 141.015625 214.117188 173 230.332031 254.171875 C 230.511719 255.503906 231.898438 256.441406 233.234375 256.261719 C 233.449219 256.140625 233.667969 256.019531 234.105469 255.773438 Z M 234.105469 255.773438 " fill-opacity="1" fill-rule="nonzero"/></g></g></g><g clip-path="url(#e5ec51814d)"><path fill="#e6b31e" d="M 115.375 138.855469 C 116.476562 140.136719 117.910156 140.722656 119.550781 141.058594 C 123.480469 141.875 127.382812 142.832031 131.308594 143.65625 C 132.613281 143.921875 133.929688 144.089844 135.25 144.160156 C 136.457031 144.230469 137.285156 143.609375 137.476562 142.699219 C 137.667969 141.753906 137.117188 140.773438 135.894531 140.460938 C 133.882812 139.945312 131.824219 139.621094 129.789062 139.191406 C 126.699219 138.546875 123.636719 137.816406 120.546875 137.253906 C 118.75 136.917969 116.964844 137.167969 115.386719 138.210938 Z M 140.398438 108.863281 C 141.726562 109.667969 142.792969 110.734375 143.28125 112.207031 C 144.550781 116.011719 145.761719 119.84375 146.921875 123.699219 C 147.148438 124.453125 147.210938 125.253906 147.101562 126.035156 C 147.03125 126.546875 146.585938 127.265625 146.167969 127.386719 C 145.675781 127.519531 144.980469 127.171875 144.46875 126.882812 C 144.167969 126.714844 143.976562 126.273438 143.820312 125.914062 C 142.050781 121.628906 140.3125 117.328125 139.558594 112.730469 C 139.355469 111.5 139.808594 110.15625 139.964844 108.863281 Z M 126.171875 119.351562 C 129.632812 121.542969 133.140625 123.640625 135.953125 126.703125 C 136.625 127.433594 137.5 127.984375 138.230469 128.667969 C 138.875 129.277344 139.546875 129.890625 140.050781 130.621094 C 140.503906 131.265625 140.527344 132.066406 139.882812 132.691406 C 139.269531 133.277344 138.527344 133.21875 137.882812 132.824219 C 136.503906 131.984375 135.082031 131.183594 133.847656 130.164062 C 131.394531 128.117188 129.046875 125.949219 126.675781 123.820312 C 125.742188 122.980469 124.808594 122.128906 123.910156 121.257812 C 123.214844 120.574219 122.652344 119.796875 122.761719 118.671875 C 124.042969 118.347656 125.15625 118.707031 126.171875 119.351562 Z M 126.171875 119.351562 " fill-opacity="1" fill-rule="nonzero"/></g></svg>