<svg xmlns="http://www.w3.org/2000/svg" xmlns:xlink="http://www.w3.org/1999/xlink" width="500" zoomAndPan="magnify" viewBox="0 0 375 374.999991" height="500" preserveAspectRatio="xMidYMid meet" version="1.0"><defs><filter x="0%" y="0%" width="100%" height="100%" id="b32c71f619"><feColorMatrix values="0 0 0 0 1 0 0 0 0 1 0 0 0 0 1 0 0 0 1 0" color-interpolation-filters="sRGB"/></filter><mask id="11d050e2ce"><g filter="url(#b32c71f619)"><rect x="-37.5" width="450" fill="#000000" y="-37.499999" height="449.999989" fill-opacity="0.75"/></g></mask><clipPath id="8ad67365d1"><path d="M 0.5 0.910156 L 112 0.910156 L 112 113 L 0.5 113 Z M 0.5 0.910156 " clip-rule="nonzero"/></clipPath><clipPath id="093207491e"><path d="M 74.984375 0.894531 C 36.917969 0.894531 39.296875 17.398438 39.296875 17.398438 L 39.335938 34.5 L 75.660156 34.5 L 75.660156 39.632812 L 24.910156 39.632812 C 24.910156 39.632812 0.554688 36.871094 0.554688 75.277344 C 0.554688 113.683594 21.8125 112.320312 21.8125 112.320312 L 34.5 112.320312 L 34.5 94.496094 C 34.5 94.496094 33.816406 73.238281 55.417969 73.238281 L 91.445312 73.238281 C 91.445312 73.238281 111.683594 73.566406 111.683594 53.679688 L 111.683594 20.792969 C 111.683594 20.792969 114.757812 0.894531 74.984375 0.894531 Z M 54.953125 12.390625 C 58.566406 12.390625 61.484375 15.3125 61.484375 18.925781 C 61.484375 22.539062 58.566406 25.460938 54.953125 25.460938 C 51.339844 25.460938 48.417969 22.539062 48.417969 18.925781 C 48.417969 15.3125 51.339844 12.390625 54.953125 12.390625 Z M 54.953125 12.390625 " clip-rule="nonzero"/></clipPath><clipPath id="b2ea494a41"><path d="M 39 38 L 150.5 38 L 150.5 150.160156 L 39 150.160156 Z M 39 38 " clip-rule="nonzero"/></clipPath><clipPath id="d87bc67092"><path d="M 76.0625 150.046875 C 114.125 150.046875 111.746094 133.539062 111.746094 133.539062 L 111.707031 116.4375 L 75.382812 116.4375 L 75.382812 111.304688 L 126.128906 111.304688 C 126.128906 111.304688 150.488281 114.066406 150.488281 75.664062 C 150.488281 37.257812 129.230469 38.617188 129.230469 38.617188 L 116.542969 38.617188 L 116.542969 56.441406 C 116.542969 56.441406 117.222656 77.699219 95.625 77.699219 L 59.597656 77.699219 C 59.597656 77.699219 39.359375 77.371094 39.359375 97.261719 L 39.359375 130.144531 C 39.359375 130.144531 36.285156 150.046875 76.0625 150.046875 Z M 96.089844 138.546875 C 92.480469 138.546875 89.554688 135.621094 89.554688 132.011719 C 89.554688 128.394531 92.480469 125.476562 96.089844 125.476562 C 99.707031 125.476562 102.625 128.394531 102.625 132.011719 C 102.625 135.621094 99.707031 138.546875 96.089844 138.546875 Z M 96.089844 138.546875 " clip-rule="nonzero"/></clipPath><clipPath id="1fad2a9a8a"><rect x="0" width="151" y="0" height="151"/></clipPath></defs><g mask="url(#11d050e2ce)"><g transform="matrix(1, 0, 0, 1, 112, 112)"><g clip-path="url(#1fad2a9a8a)"><g clip-path="url(#8ad67365d1)"><g clip-path="url(#093207491e)"><path fill="#e6b31e" d="M 0.554688 0.910156 L 0.554688 113.683594 L 114.757812 113.683594 L 114.757812 0.910156 Z M 0.554688 0.910156 " fill-opacity="1" fill-rule="nonzero"/></g></g><g clip-path="url(#b2ea494a41)"><g clip-path="url(#d87bc67092)"><path fill="#e6b31e" d="M 36.285156 37.257812 L 36.285156 150.046875 L 150.488281 150.046875 L 150.488281 37.257812 Z M 36.285156 37.257812 " fill-opacity="1" fill-rule="nonzero"/></g></g></g></g></g></svg>