<svg xmlns="http://www.w3.org/2000/svg" xmlns:xlink="http://www.w3.org/1999/xlink" width="500" zoomAndPan="magnify" viewBox="0 0 375 374.999991" height="500" preserveAspectRatio="xMidYMid meet" version="1.0"><defs><filter x="0%" y="0%" width="100%" height="100%" id="ab2c4e34d7"><feColorMatrix values="0 0 0 0 1 0 0 0 0 1 0 0 0 0 1 0 0 0 1 0" color-interpolation-filters="sRGB"/></filter><mask id="1ab7989869"><g filter="url(#ab2c4e34d7)"><rect x="-37.5" width="450" fill="#000000" y="-37.499999" height="449.999989" fill-opacity="0.75"/></g></mask><clipPath id="fc125ab414"><path d="M 1.5 0.238281 L 151.5 0.238281 L 151.5 134.398438 L 1.5 134.398438 Z M 1.5 0.238281 " clip-rule="nonzero"/></clipPath><clipPath id="621f824478"><rect x="0" width="152" y="0" height="135"/></clipPath></defs><g mask="url(#1ab7989869)"><g transform="matrix(1, 0, 0, 1, 111, 120)"><g clip-path="url(#621f824478)"><g clip-path="url(#fc125ab414)"><path fill="#e6b31e" d="M 124.726562 44.0625 C 123.175781 43.527344 121.570312 43.023438 119.910156 42.542969 C 120.183594 41.433594 120.433594 40.335938 120.65625 39.257812 C 124.300781 21.550781 121.917969 7.289062 113.773438 2.59375 C 105.964844 -1.910156 93.191406 2.785156 80.292969 14.007812 C 79.054688 15.089844 77.808594 16.230469 76.570312 17.429688 C 75.738281 16.636719 74.914062 15.871094 74.089844 15.136719 C 60.574219 3.136719 47.023438 -1.921875 38.886719 2.789062 C 31.085938 7.304688 28.777344 20.714844 32.058594 37.492188 C 32.375 39.113281 32.746094 40.769531 33.164062 42.453125 C 31.25 42.996094 29.398438 43.574219 27.625 44.195312 C 11.777344 49.71875 1.65625 58.378906 1.65625 67.359375 C 1.65625 76.632812 12.523438 85.941406 29.027344 91.585938 C 30.332031 92.03125 31.683594 92.449219 33.074219 92.847656 C 32.625 94.667969 32.230469 96.449219 31.902344 98.191406 C 28.769531 114.679688 31.214844 127.773438 38.996094 132.257812 C 47.03125 136.894531 60.519531 132.128906 73.652344 120.652344 C 74.691406 119.746094 75.734375 118.78125 76.773438 117.773438 C 78.132812 119.070312 79.480469 120.304688 80.820312 121.464844 C 93.542969 132.410156 106.109375 136.828125 113.878906 132.332031 C 121.90625 127.683594 124.523438 113.617188 121.128906 96.507812 C 120.875 95.199219 120.570312 93.867188 120.234375 92.507812 C 121.183594 92.226562 122.113281 91.9375 123.019531 91.636719 C 140.179688 85.949219 151.34375 76.761719 151.34375 67.359375 C 151.34375 58.34375 140.894531 49.628906 124.726562 44.0625 Z M 121.007812 85.570312 C 120.1875 85.835938 119.347656 86.101562 118.492188 86.351562 C 116.597656 80.359375 114.042969 73.980469 110.910156 67.390625 C 113.898438 60.957031 116.351562 54.664062 118.195312 48.707031 C 119.726562 49.148438 121.210938 49.617188 122.644531 50.109375 C 136.496094 54.878906 144.945312 61.929688 144.945312 67.359375 C 144.945312 73.144531 135.824219 80.65625 121.007812 85.570312 Z M 114.855469 97.746094 C 116.359375 105.3125 116.570312 112.15625 115.574219 117.503906 C 114.6875 122.3125 112.890625 125.515625 110.675781 126.796875 C 105.957031 129.527344 95.871094 125.976562 84.996094 116.617188 C 83.746094 115.539062 82.488281 114.394531 81.230469 113.183594 C 85.445312 108.570312 89.660156 103.207031 93.777344 97.25 C 101.011719 96.613281 107.847656 95.5625 114.050781 94.128906 C 114.355469 95.363281 114.621094 96.566406 114.855469 97.746094 Z M 52.691406 126.320312 C 48.082031 127.953125 44.410156 128 42.191406 126.71875 C 37.472656 123.996094 35.507812 113.480469 38.183594 99.386719 C 38.492188 97.769531 38.855469 96.109375 39.277344 94.414062 C 45.410156 95.769531 52.195312 96.746094 59.449219 97.332031 C 63.59375 103.160156 67.929688 108.519531 72.296875 113.207031 C 71.34375 114.132812 70.390625 115.007812 69.445312 115.832031 C 63.640625 120.914062 57.820312 124.515625 52.691406 126.320312 Z M 31.097656 85.535156 C 23.800781 83.035156 17.773438 79.796875 13.640625 76.253906 C 9.929688 73.078125 8.054688 69.921875 8.054688 67.359375 C 8.054688 61.910156 16.179688 54.957031 29.734375 50.230469 C 31.378906 49.660156 33.097656 49.117188 34.886719 48.609375 C 36.757812 54.703125 39.214844 61.074219 42.179688 67.511719 C 39.175781 74.050781 36.683594 80.523438 34.792969 86.691406 C 33.519531 86.324219 32.285156 85.9375 31.097656 85.535156 Z M 38.335938 36.265625 C 35.523438 21.886719 37.390625 11.042969 42.09375 8.320312 C 47.101562 5.421875 58.175781 9.554688 69.84375 19.917969 C 70.589844 20.582031 71.339844 21.273438 72.09375 21.992188 C 67.742188 26.664062 63.445312 31.980469 59.339844 37.773438 C 52.300781 38.425781 45.5625 39.472656 39.367188 40.875 C 38.976562 39.308594 38.632812 37.769531 38.335938 36.265625 Z M 102.898438 52.207031 C 101.421875 49.648438 99.902344 47.152344 98.351562 44.722656 C 103.128906 45.324219 107.699219 46.128906 111.996094 47.109375 C 110.710938 51.242188 109.105469 55.566406 107.210938 60 C 105.851562 57.417969 104.414062 54.820312 102.898438 52.207031 Z M 76.570312 26.5625 C 79.523438 29.757812 82.476562 33.324219 85.382812 37.195312 C 82.453125 37.058594 79.488281 36.984375 76.5 36.984375 C 73.542969 36.984375 70.601562 37.054688 67.6875 37.191406 C 70.59375 33.355469 73.578125 29.792969 76.570312 26.5625 Z M 50.074219 52.253906 C 48.59375 54.816406 47.183594 57.402344 45.847656 59.992188 C 43.984375 55.578125 42.390625 51.234375 41.089844 47.039062 C 45.363281 46.085938 49.917969 45.304688 54.660156 44.710938 C 53.089844 47.164062 51.554688 49.679688 50.074219 52.253906 Z M 54.796875 90.460938 C 49.894531 89.917969 45.273438 89.175781 41.003906 88.246094 C 42.324219 83.976562 43.953125 79.546875 45.855469 75.03125 C 47.195312 77.621094 48.609375 80.207031 50.097656 82.78125 C 51.613281 85.398438 53.1875 87.960938 54.796875 90.460938 Z M 76.746094 108.605469 C 73.71875 105.335938 70.695312 101.71875 67.742188 97.828125 C 70.605469 97.941406 73.53125 98 76.5 98 C 79.550781 98 82.570312 97.929688 85.535156 97.800781 C 82.621094 101.757812 79.675781 105.382812 76.746094 108.605469 Z M 107.269531 74.804688 C 109.265625 79.363281 110.957031 83.773438 112.296875 87.972656 C 107.957031 88.960938 103.269531 89.753906 98.332031 90.351562 C 99.890625 87.890625 101.421875 85.347656 102.929688 82.734375 C 104.457031 80.089844 105.898438 77.441406 107.269531 74.804688 Z M 97.386719 79.539062 C 95.046875 83.597656 92.644531 87.46875 90.207031 91.125 C 85.769531 91.4375 81.179688 91.601562 76.5 91.601562 C 71.839844 91.601562 67.308594 91.460938 62.945312 91.175781 C 60.410156 87.472656 57.957031 83.59375 55.632812 79.574219 C 53.3125 75.570312 51.179688 71.53125 49.246094 67.511719 C 51.179688 63.488281 53.308594 59.445312 55.613281 55.445312 C 57.925781 51.4375 60.355469 47.574219 62.871094 43.890625 C 67.320312 43.554688 71.886719 43.378906 76.5 43.378906 C 81.136719 43.378906 85.703125 43.558594 90.152344 43.898438 C 92.632812 47.550781 95.046875 51.402344 97.367188 55.414062 C 99.714844 59.46875 101.871094 63.484375 103.816406 67.425781 C 101.875 71.429688 99.726562 75.488281 97.386719 79.539062 Z M 110.578125 8.128906 C 115.59375 11.019531 117.539062 22.679688 114.390625 37.964844 C 114.191406 38.941406 113.960938 39.933594 113.71875 40.941406 C 107.507812 39.507812 100.765625 38.441406 93.707031 37.78125 C 89.59375 31.921875 85.328125 26.597656 81.050781 21.988281 C 82.203125 20.882812 83.351562 19.824219 84.492188 18.832031 C 95.542969 9.214844 105.875 5.417969 110.578125 8.128906 Z M 76.5 53.992188 C 83.878906 53.992188 89.867188 59.972656 89.867188 67.359375 C 89.867188 74.738281 83.878906 80.726562 76.5 80.726562 C 69.121094 80.726562 63.132812 74.738281 63.132812 67.359375 C 63.132812 59.972656 69.121094 53.992188 76.5 53.992188 Z M 76.5 53.992188 " fill-opacity="1" fill-rule="nonzero"/></g></g></g></g></svg>