<svg xmlns="http://www.w3.org/2000/svg" xmlns:xlink="http://www.w3.org/1999/xlink" width="500" zoomAndPan="magnify" viewBox="0 0 375 374.999991" height="500" preserveAspectRatio="xMidYMid meet" version="1.0"><defs><clipPath id="fd081a2ccc"><path d="M 52.738281 51.75 L 330.988281 51.75 L 330.988281 330 L 52.738281 330 Z M 52.738281 51.75 " clip-rule="nonzero"/></clipPath><clipPath id="d695f67e85"><path d="M 44.277344 36.804688 L 322.527344 36.804688 L 322.527344 338.304688 L 44.277344 338.304688 Z M 44.277344 36.804688 " clip-rule="nonzero"/></clipPath><clipPath id="90c89cae68"><path d="M 129 137.8125 L 266.730469 137.8125 L 266.730469 216 L 129 216 Z M 129 137.8125 " clip-rule="nonzero"/></clipPath><clipPath id="598ae3186e"><path d="M 116.730469 159 L 255 159 L 255 237.5625 L 116.730469 237.5625 Z M 116.730469 159 " clip-rule="nonzero"/></clipPath></defs><g clip-path="url(#fd081a2ccc)"><path fill="#ffffff" d="M 330.988281 190.875 C 330.988281 193.152344 330.933594 195.429688 330.820312 197.703125 C 330.707031 199.976562 330.542969 202.246094 330.316406 204.511719 C 330.09375 206.777344 329.816406 209.039062 329.480469 211.289062 C 329.148438 213.542969 328.757812 215.785156 328.316406 218.019531 C 327.871094 220.25 327.371094 222.472656 326.820312 224.679688 C 326.265625 226.890625 325.660156 229.082031 324.996094 231.261719 C 324.335938 233.441406 323.621094 235.601562 322.855469 237.746094 C 322.089844 239.890625 321.269531 242.015625 320.398438 244.117188 C 319.527344 246.222656 318.605469 248.300781 317.628906 250.359375 C 316.65625 252.417969 315.632812 254.453125 314.558594 256.460938 C 313.488281 258.46875 312.363281 260.449219 311.195312 262.402344 C 310.023438 264.355469 308.804688 266.277344 307.542969 268.171875 C 306.277344 270.0625 304.964844 271.925781 303.609375 273.753906 C 302.253906 275.582031 300.851562 277.375 299.410156 279.136719 C 297.964844 280.898438 296.476562 282.621094 294.949219 284.308594 C 293.417969 285.996094 291.847656 287.644531 290.238281 289.253906 C 288.628906 290.863281 286.980469 292.433594 285.292969 293.960938 C 283.605469 295.492188 281.882812 296.976562 280.125 298.421875 C 278.363281 299.867188 276.570312 301.265625 274.738281 302.621094 C 272.910156 303.980469 271.050781 305.289062 269.15625 306.554688 C 267.265625 307.820312 265.339844 309.039062 263.386719 310.207031 C 261.433594 311.378906 259.453125 312.5 257.445312 313.574219 C 255.4375 314.648438 253.40625 315.671875 251.347656 316.644531 C 249.289062 317.617188 247.207031 318.539062 245.105469 319.410156 C 243 320.28125 240.875 321.101562 238.734375 321.867188 C 236.589844 322.636719 234.429688 323.351562 232.25 324.011719 C 230.070312 324.671875 227.875 325.277344 225.667969 325.832031 C 223.460938 326.386719 221.238281 326.882812 219.003906 327.328125 C 216.773438 327.773438 214.53125 328.160156 212.277344 328.496094 C 210.023438 328.828125 207.765625 329.109375 205.5 329.332031 C 203.234375 329.554688 200.964844 329.722656 198.691406 329.835938 C 196.414062 329.945312 194.140625 330 191.863281 330 C 189.585938 330 187.3125 329.945312 185.035156 329.835938 C 182.761719 329.722656 180.492188 329.554688 178.226562 329.332031 C 175.960938 329.109375 173.703125 328.828125 171.449219 328.496094 C 169.195312 328.160156 166.953125 327.773438 164.722656 327.328125 C 162.488281 326.882812 160.265625 326.386719 158.058594 325.832031 C 155.851562 325.277344 153.65625 324.671875 151.476562 324.011719 C 149.296875 323.351562 147.136719 322.636719 144.992188 321.867188 C 142.847656 321.101562 140.726562 320.28125 138.621094 319.410156 C 136.519531 318.539062 134.4375 317.617188 132.378906 316.644531 C 130.320312 315.671875 128.289062 314.648438 126.28125 313.574219 C 124.273438 312.5 122.292969 311.378906 120.339844 310.207031 C 118.386719 309.039062 116.460938 307.820312 114.570312 306.554688 C 112.675781 305.289062 110.816406 303.980469 108.988281 302.621094 C 107.15625 301.265625 105.363281 299.867188 103.601562 298.421875 C 101.84375 296.976562 100.121094 295.492188 98.433594 293.960938 C 96.746094 292.433594 95.097656 290.863281 93.488281 289.253906 C 91.878906 287.644531 90.308594 285.996094 88.777344 284.308594 C 87.25 282.621094 85.761719 280.898438 84.316406 279.136719 C 82.875 277.375 81.472656 275.582031 80.117188 273.753906 C 78.761719 271.925781 77.449219 270.0625 76.183594 268.171875 C 74.921875 266.277344 73.703125 264.355469 72.53125 262.402344 C 71.359375 260.449219 70.238281 258.46875 69.164062 256.460938 C 68.09375 254.453125 67.070312 252.417969 66.09375 250.359375 C 65.121094 248.300781 64.199219 246.222656 63.328125 244.117188 C 62.457031 242.015625 61.636719 239.890625 60.871094 237.746094 C 60.105469 235.601562 59.390625 233.441406 58.730469 231.261719 C 58.066406 229.082031 57.460938 226.890625 56.90625 224.679688 C 56.355469 222.472656 55.855469 220.25 55.410156 218.019531 C 54.96875 215.785156 54.578125 213.542969 54.242188 211.289062 C 53.910156 209.039062 53.632812 206.777344 53.40625 204.511719 C 53.183594 202.246094 53.015625 199.976562 52.90625 197.703125 C 52.792969 195.429688 52.738281 193.152344 52.738281 190.875 C 52.738281 188.601562 52.792969 186.324219 52.90625 184.050781 C 53.015625 181.777344 53.183594 179.507812 53.40625 177.238281 C 53.632812 174.972656 53.910156 172.714844 54.242188 170.460938 C 54.578125 168.210938 54.96875 165.96875 55.410156 163.734375 C 55.855469 161.5 56.355469 159.28125 56.90625 157.070312 C 57.460938 154.863281 58.066406 152.667969 58.730469 150.492188 C 59.390625 148.3125 60.105469 146.152344 60.871094 144.007812 C 61.636719 141.863281 62.457031 139.738281 63.328125 137.636719 C 64.199219 135.53125 65.121094 133.453125 66.09375 131.394531 C 67.070312 129.335938 68.09375 127.300781 69.164062 125.292969 C 70.238281 123.285156 71.359375 121.304688 72.53125 119.351562 C 73.703125 117.398438 74.921875 115.476562 76.183594 113.582031 C 77.449219 111.691406 78.761719 109.828125 80.117188 108 C 81.472656 106.171875 82.875 104.375 84.316406 102.617188 C 85.761719 100.855469 87.25 99.132812 88.777344 97.445312 C 90.308594 95.757812 91.878906 94.109375 93.488281 92.5 C 95.097656 90.890625 96.746094 89.320312 98.433594 87.792969 C 100.121094 86.261719 101.84375 84.777344 103.601562 83.332031 C 105.363281 81.886719 107.15625 80.488281 108.988281 79.128906 C 110.816406 77.773438 112.675781 76.464844 114.570312 75.199219 C 116.460938 73.933594 118.386719 72.714844 120.339844 71.546875 C 122.292969 70.375 124.273438 69.253906 126.28125 68.179688 C 128.289062 67.105469 130.320312 66.082031 132.378906 65.109375 C 134.4375 64.136719 136.519531 63.214844 138.621094 62.34375 C 140.726562 61.46875 142.851562 60.652344 144.992188 59.882812 C 147.136719 59.117188 149.296875 58.402344 151.476562 57.742188 C 153.65625 57.082031 155.851562 56.472656 158.058594 55.921875 C 160.265625 55.367188 162.488281 54.867188 164.722656 54.425781 C 166.953125 53.980469 169.195312 53.589844 171.449219 53.257812 C 173.703125 52.921875 175.960938 52.644531 178.226562 52.421875 C 180.492188 52.199219 182.761719 52.03125 185.035156 51.917969 C 187.3125 51.808594 189.585938 51.75 191.863281 51.75 C 194.140625 51.75 196.414062 51.808594 198.691406 51.917969 C 200.964844 52.03125 203.234375 52.199219 205.5 52.421875 C 207.765625 52.644531 210.023438 52.921875 212.277344 53.257812 C 214.53125 53.589844 216.773438 53.980469 219.003906 54.425781 C 221.238281 54.867188 223.460938 55.367188 225.667969 55.921875 C 227.875 56.472656 230.070312 57.082031 232.25 57.742188 C 234.429688 58.402344 236.589844 59.117188 238.734375 59.882812 C 240.875 60.652344 243 61.46875 245.105469 62.34375 C 247.207031 63.214844 249.289062 64.136719 251.347656 65.109375 C 253.40625 66.082031 255.4375 67.105469 257.445312 68.179688 C 259.453125 69.253906 261.433594 70.375 263.386719 71.546875 C 265.339844 72.714844 267.265625 73.933594 269.15625 75.199219 C 271.050781 76.464844 272.910156 77.773438 274.738281 79.128906 C 276.570312 80.488281 278.363281 81.886719 280.125 83.332031 C 281.882812 84.777344 283.605469 86.261719 285.292969 87.792969 C 286.980469 89.320312 288.628906 90.890625 290.238281 92.5 C 291.847656 94.109375 293.417969 95.757812 294.949219 97.445312 C 296.476562 99.132812 297.964844 100.855469 299.410156 102.617188 C 300.851562 104.375 302.253906 106.171875 303.609375 108 C 304.964844 109.828125 306.277344 111.691406 307.542969 113.582031 C 308.804688 115.476562 310.023438 117.398438 311.195312 119.351562 C 312.363281 121.304688 313.488281 123.285156 314.558594 125.292969 C 315.632812 127.300781 316.65625 129.335938 317.628906 131.394531 C 318.605469 133.453125 319.527344 135.53125 320.398438 137.636719 C 321.269531 139.738281 322.089844 141.863281 322.855469 144.007812 C 323.621094 146.152344 324.335938 148.3125 324.996094 150.492188 C 325.660156 152.667969 326.265625 154.863281 326.820312 157.070312 C 327.371094 159.28125 327.871094 161.5 328.316406 163.734375 C 328.757812 165.96875 329.148438 168.210938 329.480469 170.460938 C 329.816406 172.714844 330.09375 174.972656 330.316406 177.238281 C 330.542969 179.507812 330.707031 181.777344 330.820312 184.050781 C 330.933594 186.324219 330.988281 188.601562 330.988281 190.875 Z M 330.988281 190.875 " fill-opacity="1" fill-rule="nonzero"/></g><g clip-path="url(#d695f67e85)"><path fill="#e6b31e" d="M 322.242188 174.109375 C 322.242188 174.109375 322.128906 172.792969 321.953125 170.820312 C 321.90625 170.332031 321.855469 169.796875 321.804688 169.234375 C 321.75 168.671875 321.695312 168.078125 321.585938 167.46875 C 321.398438 166.246094 321.1875 164.945312 320.972656 163.652344 C 320.785156 162.355469 320.453125 161.074219 320.183594 159.875 C 319.902344 158.679688 319.644531 157.566406 319.398438 156.617188 C 318.828125 154.738281 318.445312 153.484375 318.445312 153.484375 C 318.445312 153.484375 318.34375 153.152344 318.160156 152.570312 C 318.070312 152.277344 317.957031 151.925781 317.832031 151.519531 C 317.707031 151.117188 317.519531 150.667969 317.339844 150.179688 C 316.964844 149.203125 316.527344 148.066406 316.058594 146.851562 C 315.9375 146.546875 315.824219 146.238281 315.691406 145.929688 C 315.550781 145.625 315.410156 145.316406 315.269531 145.003906 C 314.980469 144.382812 314.691406 143.753906 314.398438 143.125 C 314.105469 142.5 313.808594 141.875 313.519531 141.261719 C 313.230469 140.648438 312.886719 140.066406 312.582031 139.496094 C 311.957031 138.367188 311.371094 137.3125 310.871094 136.410156 C 310.351562 135.519531 309.867188 134.804688 309.546875 134.296875 C 309.222656 133.792969 309.039062 133.503906 309.039062 133.503906 C 309.039062 133.503906 308.851562 133.21875 308.570312 132.785156 C 308.285156 132.359375 307.933594 131.777344 307.527344 131.222656 C 306.714844 130.125 305.898438 129.027344 305.898438 129.027344 L 305.898438 129.023438 L 305.898438 129.027344 C 305.25 127.964844 304.65625 126.945312 304.003906 126.027344 C 303.382812 125.097656 302.789062 124.21875 302.238281 123.394531 C 301.707031 122.5625 301.125 121.839844 300.628906 121.148438 C 300.128906 120.464844 299.667969 119.835938 299.253906 119.269531 C 299.046875 118.988281 298.855469 118.722656 298.671875 118.46875 C 298.476562 118.226562 298.292969 118 298.125 117.789062 C 297.785156 117.367188 297.5 117.011719 297.269531 116.71875 C 296.808594 116.140625 296.5625 115.832031 296.5625 115.832031 C 296.265625 115.667969 295.765625 115.257812 295.117188 114.671875 C 294.4375 114.105469 293.59375 113.378906 292.660156 112.542969 C 292.199219 112.128906 291.707031 111.6875 291.195312 111.226562 C 290.667969 110.789062 290.117188 110.332031 289.554688 109.867188 C 288.421875 108.945312 287.308594 107.945312 286.097656 107.066406 C 285.507812 106.617188 284.921875 106.171875 284.347656 105.734375 C 283.769531 105.300781 283.234375 104.855469 282.664062 104.484375 C 281.554688 103.714844 280.53125 103.003906 279.65625 102.398438 C 279.441406 102.25 279.234375 102.105469 279.035156 101.96875 C 278.832031 101.839844 278.636719 101.71875 278.457031 101.605469 C 278.09375 101.378906 277.777344 101.179688 277.519531 101.019531 C 277.003906 100.695312 276.714844 100.511719 276.714844 100.511719 C 277.660156 100.976562 278.480469 101.363281 279.179688 101.679688 C 279.859375 102.011719 280.414062 102.28125 280.875 102.46875 C 281.789062 102.847656 282.296875 102.9375 282.484375 102.792969 C 282.675781 102.648438 282.550781 102.273438 282.214844 101.742188 C 282.046875 101.476562 281.828125 101.171875 281.570312 100.835938 C 281.304688 100.507812 281.019531 100.125 280.667969 99.769531 C 279.976562 99.039062 279.167969 98.238281 278.355469 97.441406 C 277.941406 97.050781 277.546875 96.640625 277.121094 96.28125 C 276.699219 95.921875 276.289062 95.574219 275.902344 95.246094 C 275.125 94.59375 274.445312 94.023438 273.960938 93.613281 C 273.476562 93.203125 273.160156 92.988281 273.160156 92.988281 C 267.222656 87.902344 260.511719 83.097656 253.171875 78.894531 C 252.722656 78.609375 252.246094 78.386719 251.78125 78.128906 L 250.375 77.382812 L 248.96875 76.625 L 248.261719 76.242188 L 247.539062 75.894531 C 246.574219 75.429688 245.605469 74.964844 244.640625 74.5 L 243.914062 74.144531 L 243.550781 73.96875 L 243.179688 73.808594 L 241.691406 73.175781 L 238.707031 71.882812 L 235.660156 70.730469 L 234.128906 70.148438 L 233.746094 70 L 233.359375 69.875 L 232.582031 69.621094 C 231.542969 69.277344 230.507812 68.933594 229.46875 68.589844 L 228.691406 68.328125 L 227.902344 68.109375 L 226.320312 67.664062 C 225.265625 67.375 224.214844 67.054688 223.152344 66.78125 C 222.082031 66.53125 221.015625 66.285156 219.953125 66.035156 C 219.417969 65.910156 218.882812 65.785156 218.351562 65.660156 C 217.816406 65.527344 217.277344 65.453125 216.738281 65.347656 C 214.585938 64.957031 212.4375 64.5 210.273438 64.25 C 209.191406 64.097656 208.109375 63.945312 207.035156 63.792969 C 205.953125 63.679688 204.875 63.59375 203.796875 63.488281 C 195.171875 62.699219 186.628906 62.835938 178.589844 63.761719 C 170.550781 64.695312 163.027344 66.398438 156.367188 68.484375 C 149.707031 70.578125 143.925781 73.050781 139.179688 75.332031 C 136.84375 76.527344 134.6875 77.566406 132.902344 78.636719 C 131.09375 79.671875 129.515625 80.542969 128.304688 81.351562 C 127.070312 82.140625 126.117188 82.75 125.472656 83.164062 C 125.148438 83.371094 124.902344 83.53125 124.738281 83.636719 C 124.578125 83.746094 124.5 83.804688 124.5 83.804688 C 123.421875 84.597656 122.347656 85.390625 121.277344 86.179688 C 120.742188 86.582031 120.191406 86.964844 119.671875 87.382812 C 119.15625 87.804688 118.636719 88.222656 118.121094 88.644531 C 117.089844 89.488281 116.035156 90.316406 115.023438 91.183594 C 114.027344 92.074219 113.03125 92.964844 112.039062 93.847656 C 111.546875 94.300781 111.03125 94.730469 110.5625 95.199219 C 110.085938 95.664062 109.609375 96.132812 109.132812 96.597656 C 108.1875 97.535156 107.21875 98.457031 106.292969 99.414062 C 105.386719 100.394531 104.480469 101.371094 103.578125 102.347656 C 103.128906 102.839844 102.664062 103.320312 102.230469 103.824219 C 101.800781 104.332031 101.371094 104.84375 100.945312 105.351562 C 100.085938 106.375 99.230469 107.398438 98.378906 108.417969 C 97.570312 109.476562 96.765625 110.535156 95.960938 111.589844 C 95.558594 112.121094 95.15625 112.652344 94.753906 113.183594 C 94.367188 113.722656 93.996094 114.273438 93.617188 114.820312 C 92.863281 115.921875 92.113281 117.019531 91.363281 118.113281 C 90.632812 119.226562 89.957031 120.363281 89.253906 121.492188 C 88.566406 122.628906 87.835938 123.75 87.21875 124.917969 C 86.578125 126.085938 85.9375 127.246094 85.300781 128.410156 L 84.820312 129.285156 C 84.664062 129.574219 84.527344 129.875 84.378906 130.171875 C 84.089844 130.769531 83.796875 131.363281 83.507812 131.957031 C 78.855469 141.480469 75.328125 151.542969 73.179688 161.804688 C 71 172.058594 70.035156 182.472656 70.28125 192.824219 C 70.292969 193.472656 70.304688 194.121094 70.316406 194.765625 C 70.328125 195.414062 70.390625 196.054688 70.425781 196.699219 C 70.511719 197.988281 70.601562 199.277344 70.691406 200.5625 C 70.742188 201.203125 70.765625 201.851562 70.847656 202.488281 C 70.921875 203.128906 71 203.765625 71.074219 204.402344 C 71.230469 205.683594 71.390625 206.960938 71.546875 208.230469 C 71.617188 208.871094 71.726562 209.503906 71.839844 210.132812 C 71.949219 210.765625 72.058594 211.394531 72.167969 212.027344 C 72.390625 213.289062 72.617188 214.550781 72.839844 215.808594 C 73.125 217.054688 73.40625 218.296875 73.691406 219.539062 C 73.835938 220.160156 73.980469 220.78125 74.125 221.398438 C 74.269531 222.019531 74.40625 222.644531 74.589844 223.25 C 77.195312 233.078125 80.902344 242.488281 85.519531 251.25 C 90.136719 260.015625 95.660156 268.136719 101.867188 275.457031 C 108.078125 282.78125 114.972656 289.308594 122.324219 294.953125 C 129.679688 300.597656 137.488281 305.359375 145.515625 309.210938 C 153.542969 313.0625 161.789062 316.007812 170.027344 318.089844 C 178.273438 320.148438 186.507812 321.289062 194.519531 321.699219 C 195.523438 321.738281 196.519531 321.777344 197.515625 321.816406 C 198.015625 321.835938 198.511719 321.851562 199.007812 321.867188 C 199.503906 321.886719 199.996094 321.867188 200.492188 321.863281 C 202.464844 321.839844 204.425781 321.800781 206.367188 321.746094 C 206.855469 321.742188 207.339844 321.699219 207.820312 321.664062 C 208.304688 321.628906 208.789062 321.59375 209.269531 321.558594 C 210.230469 321.480469 211.191406 321.40625 212.144531 321.328125 C 212.621094 321.285156 213.097656 321.246094 213.574219 321.203125 C 214.050781 321.164062 214.523438 321.125 214.996094 321.054688 C 215.941406 320.925781 216.878906 320.796875 217.816406 320.667969 C 218.753906 320.53125 219.683594 320.398438 220.613281 320.261719 C 221.074219 320.191406 221.539062 320.128906 222 320.046875 C 222.457031 319.957031 222.917969 319.867188 223.375 319.777344 C 225.203125 319.414062 227.015625 319.039062 228.804688 318.652344 C 230.585938 318.21875 232.347656 317.730469 234.085938 317.257812 C 234.519531 317.136719 234.953125 317.015625 235.386719 316.894531 C 235.820312 316.777344 236.25 316.65625 236.675781 316.511719 C 237.527344 316.230469 238.375 315.949219 239.21875 315.667969 C 240.058594 315.378906 240.894531 315.09375 241.726562 314.8125 C 242.144531 314.667969 242.558594 314.523438 242.972656 314.378906 C 243.382812 314.222656 243.789062 314.054688 244.195312 313.894531 C 245.816406 313.246094 247.417969 312.589844 249 311.925781 C 249.792969 311.609375 250.558594 311.21875 251.328125 310.859375 C 252.09375 310.488281 252.859375 310.121094 253.617188 309.753906 C 254.371094 309.382812 255.125 309.011719 255.871094 308.640625 C 256.613281 308.257812 257.335938 307.84375 258.0625 307.441406 C 259.507812 306.632812 260.933594 305.828125 262.328125 305.003906 C 263.703125 304.132812 265.054688 303.257812 266.382812 302.382812 C 267.046875 301.9375 267.714844 301.519531 268.355469 301.054688 C 268.988281 300.585938 269.625 300.121094 270.253906 299.65625 C 271.507812 298.714844 272.75 297.808594 273.945312 296.847656 C 275.125 295.863281 276.28125 294.878906 277.417969 293.902344 C 277.980469 293.40625 278.554688 292.9375 279.09375 292.421875 C 279.628906 291.90625 280.167969 291.394531 280.699219 290.882812 C 281.757812 289.859375 282.800781 288.847656 283.804688 287.824219 C 284.789062 286.761719 285.75 285.703125 286.6875 284.652344 C 294.1875 276.21875 299.554688 267.210938 303.207031 258.5 C 306.859375 249.773438 308.785156 241.3125 309.46875 233.558594 C 309.628906 231.613281 309.78125 229.75 309.761719 227.875 C 309.765625 226.949219 309.761719 226.035156 309.75 225.140625 C 309.742188 224.691406 309.734375 224.246094 309.726562 223.804688 C 309.714844 223.367188 309.671875 222.914062 309.644531 222.476562 C 309.515625 220.710938 309.355469 219.011719 309.171875 217.378906 C 308.921875 215.714844 308.640625 214.113281 308.339844 212.578125 C 308.070312 211.050781 307.640625 209.535156 307.253906 208.105469 C 307.054688 207.386719 306.847656 206.683594 306.640625 205.996094 C 306.535156 205.652344 306.441406 205.316406 306.324219 204.976562 C 306.203125 204.636719 306.082031 204.296875 305.960938 203.964844 C 305.476562 202.632812 304.980469 201.359375 304.480469 200.144531 C 304.351562 199.84375 304.226562 199.542969 304.101562 199.242188 C 303.960938 198.945312 303.820312 198.648438 303.683594 198.355469 C 303.402344 197.769531 303.121094 197.199219 302.839844 196.640625 C 302.273438 195.523438 301.714844 194.464844 301.144531 193.457031 C 300.53125 192.441406 299.921875 191.476562 299.324219 190.5625 C 298.71875 189.648438 298.132812 188.789062 297.53125 187.972656 C 296.902344 187.148438 296.285156 186.375 295.683594 185.644531 C 294.472656 184.183594 293.347656 182.90625 292.167969 181.769531 C 291.019531 180.632812 289.953125 179.65625 288.984375 178.8125 C 288.507812 178.394531 288.015625 178.003906 287.554688 177.644531 C 287.09375 177.285156 286.660156 176.957031 286.257812 176.660156 C 285.449219 176.066406 284.757812 175.585938 284.195312 175.210938 C 283.066406 174.460938 282.457031 174.109375 282.457031 174.109375 C 285.488281 175.273438 288.578125 176.78125 291.628906 178.675781 C 293.109375 179.617188 294.582031 180.652344 296.050781 181.789062 C 296.78125 182.359375 297.519531 182.949219 298.242188 183.566406 C 298.9375 184.179688 299.628906 184.816406 300.316406 185.480469 C 301.003906 186.140625 301.691406 186.828125 302.367188 187.542969 C 303.042969 188.253906 303.742188 188.992188 304.359375 189.746094 C 305.621094 191.257812 306.863281 192.867188 308.074219 194.570312 C 308.382812 195 308.652344 195.425781 308.933594 195.859375 C 309.214844 196.292969 309.492188 196.734375 309.765625 197.179688 C 310.316406 198.070312 310.855469 198.984375 311.386719 199.921875 C 311.652344 200.390625 311.917969 200.867188 312.175781 201.347656 C 312.410156 201.824219 312.648438 202.304688 312.886719 202.789062 C 313.359375 203.761719 313.820312 204.753906 314.269531 205.769531 C 317.804688 213.867188 319.964844 223.179688 320.445312 232.878906 C 320.949219 242.570312 319.769531 252.613281 317.210938 262.070312 C 314.671875 271.539062 310.773438 280.398438 306.347656 288 C 304.164062 291.839844 301.777344 295.269531 299.484375 298.464844 C 297.101562 301.542969 294.839844 304.425781 292.609375 306.789062 C 291.511719 307.992188 290.453125 309.117188 289.453125 310.160156 C 288.429688 311.160156 287.460938 312.074219 286.5625 312.90625 C 285.660156 313.734375 284.832031 314.476562 284.085938 315.128906 C 283.714844 315.460938 283.351562 315.75 283.011719 316.011719 C 282.671875 316.277344 282.355469 316.519531 282.0625 316.742188 C 279.703125 318.5 278.878906 318.773438 280.054688 317.257812 C 281.21875 315.742188 281.964844 314.425781 282.382812 313.289062 C 282.789062 312.125 282.878906 311.148438 282.746094 310.328125 C 282.476562 308.691406 281.328125 307.675781 279.953125 307.039062 C 278.589844 306.421875 276.949219 306.089844 275.683594 305.953125 C 274.410156 305.8125 273.492188 305.832031 273.492188 305.832031 C 272.808594 306.609375 272.105469 307.378906 271.394531 308.148438 C 270.664062 308.882812 269.917969 309.617188 269.15625 310.34375 C 268.398438 311.070312 267.625 311.792969 266.835938 312.511719 C 266.441406 312.867188 266.050781 313.234375 265.644531 313.582031 C 265.234375 313.917969 264.824219 314.257812 264.410156 314.597656 C 262.753906 315.9375 261.050781 317.289062 259.289062 318.5625 C 257.507812 319.792969 255.679688 321.003906 253.816406 322.183594 C 246.308594 326.777344 238.019531 330.433594 229.457031 333.058594 C 227.3125 333.683594 225.15625 334.300781 222.996094 334.84375 C 220.828125 335.328125 218.65625 335.785156 216.480469 336.207031 C 215.9375 336.308594 215.394531 336.429688 214.851562 336.507812 C 214.308594 336.589844 213.765625 336.667969 213.222656 336.75 C 212.140625 336.90625 211.054688 337.054688 209.972656 337.199219 C 208.890625 337.339844 207.808594 337.480469 206.730469 337.597656 C 205.648438 337.679688 204.574219 337.761719 203.5 337.84375 C 202.425781 337.914062 201.355469 337.980469 200.289062 338.046875 C 199.757812 338.078125 199.226562 338.105469 198.695312 338.136719 C 198.164062 338.160156 197.632812 338.15625 197.101562 338.164062 C 194.984375 338.183594 192.882812 338.179688 190.808594 338.152344 L 190.03125 338.140625 L 189.253906 338.097656 C 188.738281 338.070312 188.226562 338.039062 187.714844 338.011719 C 186.691406 337.945312 185.671875 337.878906 184.660156 337.8125 C 183.652344 337.738281 182.648438 337.667969 181.652344 337.578125 C 180.660156 337.457031 179.675781 337.335938 178.703125 337.21875 C 177.726562 337.089844 176.757812 336.960938 175.800781 336.832031 C 175.320312 336.765625 174.84375 336.699219 174.371094 336.632812 C 173.894531 336.566406 173.421875 336.5 172.957031 336.40625 C 171.089844 336.0625 169.261719 335.710938 167.472656 335.347656 C 167.027344 335.253906 166.582031 335.164062 166.140625 335.070312 C 165.699219 334.984375 165.257812 334.886719 164.828125 334.773438 C 163.964844 334.554688 163.109375 334.339844 162.265625 334.125 C 160.582031 333.6875 158.941406 333.253906 157.355469 332.804688 C 155.78125 332.3125 154.257812 331.820312 152.785156 331.332031 C 152.050781 331.085938 151.328125 330.839844 150.617188 330.601562 C 150.265625 330.480469 149.910156 330.367188 149.566406 330.238281 C 149.222656 330.105469 148.882812 329.976562 148.546875 329.84375 C 147.199219 329.324219 145.90625 328.8125 144.671875 328.316406 C 143.441406 327.8125 142.25 327.359375 141.160156 326.835938 C 138.960938 325.828125 136.996094 324.894531 135.289062 324.066406 C 133.59375 323.210938 132.179688 322.417969 131.023438 321.785156 C 129.867188 321.148438 128.980469 320.648438 128.382812 320.308594 C 127.785156 319.972656 127.484375 319.78125 127.484375 319.78125 C 129.695312 320.695312 131.839844 321.394531 133.859375 321.953125 C 134.367188 322.089844 134.867188 322.21875 135.359375 322.335938 C 135.851562 322.453125 136.347656 322.539062 136.832031 322.628906 C 137.800781 322.800781 138.738281 322.941406 139.644531 323.046875 C 140.550781 323.15625 141.425781 323.234375 142.265625 323.285156 C 143.105469 323.339844 143.910156 323.371094 144.695312 323.339844 C 146.257812 323.304688 147.679688 323.183594 148.949219 323.015625 C 150.21875 322.847656 151.339844 322.628906 152.304688 322.402344 C 153.277344 322.164062 154.101562 321.886719 154.757812 321.652344 C 156.078125 321.179688 156.761719 320.816406 156.761719 320.816406 C 153.445312 320.460938 150.242188 319.84375 147.058594 319.238281 C 146.660156 319.160156 146.261719 319.085938 145.867188 319.007812 C 145.46875 318.929688 145.085938 318.828125 144.695312 318.738281 C 143.914062 318.550781 143.140625 318.363281 142.367188 318.175781 C 140.824219 317.792969 139.285156 317.417969 137.773438 316.996094 C 136.277344 316.546875 134.792969 316.089844 133.320312 315.621094 C 132.585938 315.386719 131.851562 315.152344 131.125 314.917969 C 130.386719 314.6875 129.6875 314.402344 128.976562 314.144531 C 126.144531 313.074219 123.324219 312.042969 120.675781 310.8125 C 109.945312 306.074219 100.636719 300.277344 92.730469 294.15625 C 91.742188 293.390625 90.769531 292.628906 89.808594 291.863281 C 88.855469 291.097656 87.957031 290.292969 87.050781 289.511719 C 85.257812 287.933594 83.472656 286.410156 81.863281 284.796875 C 81.050781 283.996094 80.25 283.203125 79.457031 282.425781 C 79.0625 282.03125 78.671875 281.640625 78.28125 281.25 C 78.089844 281.054688 77.894531 280.859375 77.703125 280.664062 C 77.519531 280.464844 77.332031 280.265625 77.148438 280.066406 C 75.679688 278.46875 74.265625 276.894531 72.898438 275.347656 C 72.207031 274.585938 71.582031 273.78125 70.949219 273.007812 C 70.320312 272.222656 69.703125 271.453125 69.09375 270.691406 C 68.492188 269.921875 67.898438 269.164062 67.3125 268.417969 C 66.75 267.65625 66.210938 266.894531 65.675781 266.144531 C 64.609375 264.644531 63.589844 263.179688 62.613281 261.75 C 61.679688 260.292969 60.796875 258.867188 59.949219 257.484375 C 58.214844 254.738281 56.820312 252.050781 55.503906 249.570312 C 55.179688 248.945312 54.863281 248.332031 54.550781 247.734375 C 54.246094 247.132812 53.976562 246.527344 53.699219 245.941406 C 53.152344 244.761719 52.636719 243.628906 52.148438 242.542969 C 51.910156 242 51.671875 241.464844 51.441406 240.945312 C 51.214844 240.425781 50.988281 239.917969 50.796875 239.410156 C 50.398438 238.398438 50.027344 237.433594 49.683594 236.515625 C 49.34375 235.59375 49.019531 234.722656 48.714844 233.898438 C 48.417969 233.074219 48.125 232.300781 47.902344 231.558594 C 46.976562 228.59375 46.359375 226.390625 45.964844 224.929688 C 45.761719 224.203125 45.652344 223.648438 45.570312 223.285156 C 45.492188 222.917969 45.457031 222.738281 45.457031 222.738281 C 45.664062 223.175781 45.867188 223.582031 46.058594 223.960938 C 46.253906 224.335938 46.464844 224.679688 46.652344 225 C 47.03125 225.636719 47.378906 226.167969 47.695312 226.601562 C 48.328125 227.472656 48.832031 227.964844 49.230469 228.175781 C 50.027344 228.59375 50.394531 227.886719 50.535156 226.777344 C 50.675781 225.664062 50.589844 224.148438 50.476562 222.910156 C 50.394531 221.660156 50.285156 220.691406 50.285156 220.691406 C 49.96875 219.597656 49.65625 218.515625 49.347656 217.441406 C 49.195312 216.90625 49.046875 216.371094 48.898438 215.84375 C 48.75 215.3125 48.601562 214.785156 48.484375 214.25 C 47.984375 212.128906 47.515625 210.050781 47.074219 208.011719 C 46.839844 206.996094 46.679688 205.980469 46.507812 204.976562 C 46.339844 203.972656 46.175781 202.980469 46.011719 201.996094 C 45.859375 201.015625 45.707031 200.042969 45.554688 199.085938 C 45.429688 198.125 45.332031 197.167969 45.226562 196.226562 C 45.023438 194.34375 44.839844 192.507812 44.675781 190.710938 C 44.578125 188.914062 44.492188 187.160156 44.425781 185.453125 C 44.394531 184.597656 44.363281 183.753906 44.335938 182.921875 C 44.304688 182.089844 44.332031 181.269531 44.335938 180.460938 C 44.351562 178.84375 44.382812 177.265625 44.421875 175.734375 C 44.4375 174.203125 44.5625 172.71875 44.671875 171.273438 C 44.777344 169.828125 44.894531 168.425781 45.015625 167.066406 C 45.117188 165.707031 45.324219 164.386719 45.496094 163.109375 C 45.671875 161.832031 45.851562 160.597656 46.035156 159.402344 C 46.125 158.804688 46.21875 158.214844 46.308594 157.636719 C 46.421875 157.0625 46.535156 156.496094 46.644531 155.9375 C 46.875 154.828125 47.101562 153.753906 47.316406 152.714844 C 47.542969 151.683594 47.761719 150.6875 47.972656 149.722656 C 48.230469 148.769531 48.480469 147.851562 48.71875 146.96875 C 49.207031 145.203125 49.675781 143.582031 50.121094 142.097656 C 50.609375 140.621094 51.089844 139.285156 51.527344 138.070312 C 51.96875 136.855469 52.375 135.769531 52.75 134.796875 C 53.132812 133.828125 53.523438 132.988281 53.851562 132.25 C 55.179688 129.300781 55.863281 128.0625 55.863281 128.0625 C 55.492188 129.507812 55.148438 130.917969 54.824219 132.300781 C 54.664062 132.992188 54.507812 133.675781 54.355469 134.347656 C 54.195312 135.023438 54.09375 135.699219 53.972656 136.363281 C 53.734375 137.691406 53.515625 138.992188 53.316406 140.257812 C 53.21875 140.890625 53.125 141.515625 53.027344 142.132812 C 52.933594 142.746094 52.886719 143.363281 52.820312 143.96875 C 52.582031 146.390625 52.367188 148.679688 52.265625 150.851562 C 52.207031 153.027344 52.195312 155.078125 52.214844 157.007812 C 52.226562 157.492188 52.222656 157.964844 52.246094 158.433594 C 52.277344 158.902344 52.304688 159.363281 52.335938 159.816406 C 52.394531 160.726562 52.464844 161.601562 52.539062 162.453125 C 52.617188 163.300781 52.695312 164.121094 52.78125 164.910156 C 52.828125 165.304688 52.871094 165.695312 52.914062 166.078125 C 52.964844 166.460938 53.03125 166.832031 53.09375 167.203125 C 53.339844 168.671875 53.597656 170.035156 53.863281 171.292969 C 53.996094 171.925781 54.128906 172.527344 54.265625 173.109375 C 54.398438 173.6875 54.53125 174.242188 54.695312 174.773438 C 55.320312 176.898438 55.933594 178.640625 56.496094 180.0625 C 56.78125 180.773438 57.042969 181.40625 57.308594 181.964844 C 57.582031 182.523438 57.835938 183.007812 58.070312 183.425781 C 59 185.101562 59.558594 185.738281 59.558594 185.738281 C 59.210938 184.527344 58.867188 183.261719 58.527344 181.945312 C 58.226562 180.628906 57.960938 179.261719 57.691406 177.84375 C 57.558594 177.132812 57.429688 176.414062 57.296875 175.683594 C 57.171875 174.953125 57.019531 174.210938 56.941406 173.457031 C 56.75 171.949219 56.574219 170.398438 56.410156 168.8125 C 56.332031 168.015625 56.25 167.210938 56.171875 166.398438 C 56.132812 165.585938 56.089844 164.765625 56.050781 163.933594 C 55.976562 162.273438 55.921875 160.578125 55.878906 158.855469 C 55.886719 157.136719 55.941406 155.386719 55.996094 153.617188 C 56.03125 152.730469 56.0625 151.839844 56.097656 150.941406 C 56.175781 150.050781 56.25 149.152344 56.328125 148.25 C 56.496094 146.445312 56.652344 144.617188 56.886719 142.789062 C 57.152344 140.96875 57.4375 139.132812 57.738281 137.289062 L 57.96875 135.90625 C 58.050781 135.445312 58.15625 134.988281 58.25 134.53125 C 58.449219 133.617188 58.644531 132.699219 58.84375 131.78125 C 59.25 129.945312 59.644531 128.101562 60.175781 126.296875 C 60.679688 124.488281 61.191406 122.675781 61.726562 120.878906 C 62.324219 119.101562 62.929688 117.332031 63.546875 115.578125 C 64.136719 113.8125 64.859375 112.113281 65.550781 110.414062 C 65.902344 109.566406 66.253906 108.722656 66.601562 107.882812 C 66.78125 107.464844 66.949219 107.042969 67.136719 106.632812 C 67.328125 106.222656 67.519531 105.816406 67.710938 105.410156 C 68.480469 103.785156 69.25 102.179688 70.019531 100.601562 L 70.308594 100.011719 L 70.621094 99.4375 C 70.828125 99.054688 71.035156 98.671875 71.238281 98.292969 C 71.652344 97.535156 72.066406 96.785156 72.472656 96.039062 C 72.886719 95.292969 73.296875 94.558594 73.703125 93.828125 C 74.109375 93.097656 74.5625 92.40625 74.984375 91.703125 C 75.84375 90.3125 76.695312 88.949219 77.535156 87.628906 C 77.945312 86.960938 78.402344 86.339844 78.832031 85.707031 C 79.269531 85.082031 79.699219 84.464844 80.125 83.855469 C 80.554688 83.25 80.976562 82.652344 81.390625 82.0625 C 81.808594 81.476562 82.214844 80.894531 82.648438 80.351562 C 83.507812 79.253906 84.335938 78.191406 85.136719 77.171875 C 85.945312 76.160156 86.695312 75.167969 87.488281 74.285156 C 89.042969 72.488281 90.464844 70.878906 91.722656 69.472656 C 93.027344 68.113281 94.164062 66.949219 95.097656 66 C 96.035156 65.058594 96.746094 64.308594 97.265625 63.835938 C 97.777344 63.359375 98.046875 63.109375 98.046875 63.109375 C 98.046875 63.109375 98.027344 63.628906 97.996094 64.402344 C 97.960938 65.167969 97.960938 66.230469 97.964844 67.273438 C 97.96875 69.367188 98.042969 71.441406 98.042969 71.441406 C 102.890625 66.582031 107.964844 62.523438 112.859375 58.949219 C 114.105469 58.085938 115.335938 57.246094 116.550781 56.425781 C 117.160156 56.019531 117.757812 55.605469 118.367188 55.222656 C 118.980469 54.847656 119.59375 54.476562 120.199219 54.109375 C 121.410156 53.375 122.601562 52.664062 123.777344 51.976562 C 124.355469 51.621094 124.964844 51.320312 125.550781 51 C 126.144531 50.6875 126.730469 50.378906 127.3125 50.074219 C 136.613281 45.199219 145.011719 42.300781 151.851562 40.417969 C 153.574219 39.976562 155.191406 39.574219 156.707031 39.207031 C 157.457031 39.011719 158.203125 38.882812 158.917969 38.742188 C 159.628906 38.605469 160.316406 38.476562 160.976562 38.351562 C 162.296875 38.109375 163.507812 37.882812 164.617188 37.707031 C 165.730469 37.566406 166.738281 37.4375 167.636719 37.324219 C 169.433594 37.109375 170.785156 36.957031 171.695312 36.878906 C 172.609375 36.828125 173.074219 36.804688 173.074219 36.804688 C 163.300781 38.621094 154.519531 41.699219 147.132812 45.257812 C 145.257812 46.097656 143.523438 47.078125 141.835938 48 C 140.996094 48.46875 140.171875 48.929688 139.363281 49.378906 C 138.570312 49.863281 137.804688 50.351562 137.050781 50.828125 C 136.300781 51.3125 135.566406 51.789062 134.847656 52.25 C 134.132812 52.722656 133.429688 53.171875 132.773438 53.667969 C 131.449219 54.632812 130.199219 55.570312 129.019531 56.472656 C 128.726562 56.699219 128.4375 56.921875 128.152344 57.140625 C 127.867188 57.363281 127.597656 57.601562 127.328125 57.828125 C 126.796875 58.285156 126.277344 58.730469 125.773438 59.160156 C 124.773438 60.027344 123.84375 60.851562 122.988281 61.625 C 121.324219 63.238281 119.953125 64.652344 118.847656 65.808594 C 118.574219 66.097656 118.3125 66.363281 118.078125 66.632812 C 117.847656 66.898438 117.632812 67.152344 117.433594 67.382812 C 117.039062 67.851562 116.707031 68.246094 116.441406 68.566406 C 115.917969 69.210938 115.644531 69.542969 115.644531 69.542969 C 116.441406 68.800781 117.34375 68.035156 118.304688 67.265625 C 119.28125 66.511719 120.351562 65.792969 121.425781 65.066406 C 121.964844 64.707031 122.511719 64.351562 123.058594 64 C 123.605469 63.652344 124.144531 63.296875 124.710938 62.988281 C 125.828125 62.355469 126.925781 61.753906 127.96875 61.195312 C 130.035156 60.046875 131.972656 59.21875 133.335938 58.601562 C 134.707031 57.992188 135.542969 57.640625 135.542969 57.640625 C 135.121094 58.203125 133.945312 59.210938 132.222656 60.546875 C 131.789062 60.878906 131.324219 61.234375 130.832031 61.613281 C 130.347656 62.007812 129.839844 62.421875 129.300781 62.859375 C 128.222656 63.71875 127.039062 64.664062 125.777344 65.675781 C 124.550781 66.726562 123.246094 67.847656 121.886719 69.015625 C 121.546875 69.304688 121.203125 69.601562 120.859375 69.898438 C 120.523438 70.210938 120.1875 70.523438 119.84375 70.84375 C 119.164062 71.476562 118.476562 72.121094 117.777344 72.769531 C 117.425781 73.097656 117.074219 73.425781 116.722656 73.753906 L 116.191406 74.25 L 115.679688 74.769531 C 114.996094 75.464844 114.308594 76.167969 113.617188 76.871094 C 112.925781 77.578125 112.226562 78.277344 111.546875 78.996094 C 110.882812 79.734375 110.21875 80.472656 109.558594 81.210938 C 108.902344 81.949219 108.246094 82.683594 107.59375 83.417969 C 106.949219 84.15625 106.347656 84.925781 105.734375 85.667969 C 104.527344 87.171875 103.300781 88.605469 102.246094 90.09375 C 101.707031 90.824219 101.175781 91.542969 100.660156 92.246094 C 100.402344 92.597656 100.144531 92.945312 99.894531 93.289062 C 99.640625 93.632812 99.394531 93.972656 99.167969 94.320312 C 98.25 95.699219 97.386719 97 96.585938 98.195312 C 95.773438 99.378906 95.132812 100.53125 94.527344 101.519531 C 93.929688 102.519531 93.414062 103.386719 92.988281 104.097656 C 92.550781 104.804688 92.257812 105.390625 92.042969 105.777344 C 91.835938 106.167969 91.722656 106.375 91.722656 106.375 C 91.722656 106.375 92.023438 106.03125 92.574219 105.355469 C 92.84375 105.015625 93.210938 104.609375 93.632812 104.125 C 94.050781 103.636719 94.53125 103.074219 95.078125 102.4375 C 95.617188 101.796875 96.214844 101.085938 96.859375 100.296875 C 97.519531 99.519531 98.269531 98.695312 99.050781 97.789062 C 99.839844 96.890625 100.652344 95.902344 101.558594 94.886719 C 102.480469 93.882812 103.453125 92.8125 104.464844 91.679688 C 108.578125 87.203125 113.625 81.914062 119.785156 76.304688 C 125.941406 70.699219 133.214844 64.769531 141.734375 59.058594 C 143.835938 57.578125 146.070312 56.335938 148.277344 55.054688 C 149.371094 54.402344 150.519531 53.859375 151.648438 53.289062 C 152.78125 52.722656 153.914062 52.167969 155.046875 51.625 C 156.199219 51.125 157.351562 50.644531 158.5 50.171875 C 159.074219 49.933594 159.648438 49.699219 160.21875 49.46875 L 161.078125 49.121094 L 161.945312 48.8125 C 163.105469 48.410156 164.257812 48.015625 165.402344 47.632812 C 165.976562 47.441406 166.546875 47.25 167.117188 47.0625 C 167.6875 46.882812 168.265625 46.734375 168.839844 46.574219 C 177.980469 43.941406 186.765625 42.816406 194.21875 42.507812 C 196.085938 42.464844 197.871094 42.4375 199.566406 42.421875 C 199.988281 42.410156 200.40625 42.425781 200.816406 42.445312 C 201.230469 42.460938 201.636719 42.476562 202.035156 42.492188 C 202.835938 42.527344 203.609375 42.5625 204.359375 42.59375 C 205.109375 42.628906 205.835938 42.667969 206.535156 42.699219 C 207.234375 42.738281 207.90625 42.824219 208.550781 42.882812 C 209.839844 43.019531 211.019531 43.144531 212.085938 43.257812 C 212.617188 43.316406 213.121094 43.371094 213.59375 43.425781 C 214.0625 43.5 214.507812 43.570312 214.917969 43.636719 C 215.734375 43.773438 216.433594 43.890625 216.996094 43.984375 C 218.121094 44.179688 218.71875 44.28125 218.71875 44.28125 C 220.332031 44.722656 220.644531 45.128906 220.234375 45.414062 C 219.816406 45.707031 218.667969 45.960938 217.332031 46.160156 C 215.996094 46.363281 214.46875 46.515625 213.277344 46.644531 C 212.085938 46.8125 211.230469 46.914062 211.230469 46.914062 C 212.023438 46.925781 212.824219 46.933594 213.632812 46.988281 C 214.441406 47.058594 215.257812 47.144531 216.070312 47.238281 C 216.886719 47.332031 217.703125 47.4375 218.519531 47.550781 C 218.925781 47.609375 219.328125 47.667969 219.734375 47.726562 C 220.136719 47.792969 220.539062 47.882812 220.9375 47.960938 C 222.535156 48.289062 224.097656 48.640625 225.589844 48.996094 C 225.773438 49.042969 225.960938 49.085938 226.144531 49.128906 C 226.328125 49.183594 226.507812 49.238281 226.691406 49.289062 C 227.050781 49.394531 227.40625 49.503906 227.761719 49.605469 C 228.460938 49.820312 229.140625 50.027344 229.800781 50.230469 C 232.433594 50.996094 234.609375 51.921875 236.152344 52.515625 C 236.917969 52.824219 237.527344 53.070312 237.945312 53.238281 C 238.359375 53.421875 238.578125 53.53125 238.578125 53.53125 C 239.820312 53.847656 241.085938 54.191406 242.359375 54.550781 C 242.996094 54.738281 243.644531 54.902344 244.277344 55.121094 C 244.910156 55.34375 245.546875 55.566406 246.183594 55.792969 C 247.457031 56.25 248.738281 56.699219 250.003906 57.203125 C 251.253906 57.742188 252.503906 58.289062 253.738281 58.839844 C 254.351562 59.121094 254.976562 59.375 255.574219 59.679688 C 256.171875 59.988281 256.769531 60.292969 257.359375 60.597656 C 258.539062 61.210938 259.707031 61.808594 260.835938 62.425781 C 261.941406 63.085938 263.027344 63.730469 264.085938 64.359375 C 264.613281 64.679688 265.132812 64.992188 265.644531 65.300781 C 266.148438 65.617188 266.632812 65.957031 267.113281 66.277344 C 269.027344 67.582031 270.828125 68.753906 272.335938 69.953125 C 273.101562 70.535156 273.820312 71.085938 274.488281 71.597656 C 274.820312 71.851562 275.140625 72.097656 275.445312 72.335938 C 275.742188 72.585938 276.027344 72.824219 276.296875 73.050781 C 278.429688 74.875 279.695312 75.957031 279.695312 75.957031 C 275.195312 72.96875 269.742188 69.71875 263.945312 66.875 C 262.484375 66.195312 261.015625 65.507812 259.550781 64.824219 C 258.054688 64.207031 256.566406 63.59375 255.089844 62.988281 C 254.722656 62.835938 254.355469 62.6875 253.988281 62.539062 C 253.613281 62.40625 253.242188 62.273438 252.871094 62.140625 C 252.128906 61.878906 251.394531 61.617188 250.664062 61.359375 C 249.9375 61.101562 249.214844 60.847656 248.5 60.59375 C 247.777344 60.375 247.0625 60.160156 246.355469 59.945312 C 245.652344 59.734375 244.957031 59.527344 244.269531 59.324219 C 243.929688 59.21875 243.589844 59.117188 243.253906 59.019531 C 243.085938 58.96875 242.917969 58.917969 242.753906 58.871094 C 242.585938 58.828125 242.417969 58.785156 242.25 58.746094 C 240.914062 58.414062 239.632812 58.097656 238.414062 57.796875 C 237.804688 57.65625 237.21875 57.488281 236.636719 57.378906 C 236.058594 57.265625 235.496094 57.15625 234.953125 57.050781 C 233.867188 56.835938 232.859375 56.640625 231.941406 56.460938 C 231.03125 56.265625 230.191406 56.175781 229.460938 56.0625 C 228.730469 55.953125 228.105469 55.863281 227.59375 55.789062 C 226.574219 55.640625 226.011719 55.558594 226.011719 55.558594 C 226.972656 55.765625 227.917969 55.984375 228.832031 56.207031 C 229.285156 56.316406 229.734375 56.429688 230.175781 56.535156 C 230.617188 56.648438 231.050781 56.75 231.46875 56.890625 C 233.140625 57.410156 234.65625 57.910156 235.929688 58.34375 C 236.246094 58.457031 236.550781 58.550781 236.835938 58.664062 C 237.117188 58.777344 237.386719 58.886719 237.636719 58.988281 C 238.136719 59.191406 238.570312 59.367188 238.921875 59.515625 C 239.628906 59.8125 240.023438 59.976562 240.023438 59.976562 C 237.332031 59.613281 233.328125 58.929688 228.804688 58.390625 C 227.675781 58.257812 226.515625 58.125 225.335938 57.988281 C 224.746094 57.902344 224.148438 57.882812 223.546875 57.832031 C 222.949219 57.789062 222.34375 57.746094 221.742188 57.699219 C 221.140625 57.65625 220.535156 57.609375 219.929688 57.5625 L 219.027344 57.492188 C 218.726562 57.46875 218.421875 57.472656 218.121094 57.457031 C 216.914062 57.421875 215.71875 57.386719 214.539062 57.347656 C 213.953125 57.332031 213.371094 57.304688 212.796875 57.296875 C 212.222656 57.304688 211.652344 57.3125 211.089844 57.320312 C 209.972656 57.335938 208.886719 57.351562 207.847656 57.367188 C 206.8125 57.355469 205.820312 57.449219 204.894531 57.5 C 203.964844 57.554688 203.097656 57.605469 202.300781 57.652344 C 200.710938 57.714844 199.421875 57.902344 198.527344 57.984375 C 197.632812 58.074219 197.132812 58.128906 197.132812 58.128906 C 198.191406 58.164062 199.28125 58.1875 200.402344 58.199219 C 200.960938 58.195312 201.527344 58.25 202.101562 58.273438 C 202.675781 58.300781 203.257812 58.332031 203.84375 58.359375 C 204.433594 58.382812 205.027344 58.40625 205.625 58.433594 C 206.226562 58.460938 206.832031 58.457031 207.445312 58.519531 C 208.667969 58.621094 209.914062 58.710938 211.179688 58.796875 C 211.8125 58.847656 212.453125 58.867188 213.09375 58.933594 C 213.734375 59.007812 214.382812 59.078125 215.03125 59.148438 C 216.332031 59.296875 217.652344 59.410156 218.984375 59.574219 C 221.632812 59.988281 224.359375 60.289062 227.078125 60.859375 C 227.757812 60.984375 228.445312 61.113281 229.128906 61.238281 C 229.472656 61.304688 229.816406 61.359375 230.160156 61.433594 L 231.183594 61.671875 C 232.550781 61.988281 233.921875 62.304688 235.296875 62.621094 C 236.664062 62.96875 238.019531 63.375 239.382812 63.742188 C 240.0625 63.9375 240.75 64.105469 241.421875 64.324219 C 242.089844 64.542969 242.761719 64.765625 243.429688 64.984375 C 244.101562 65.203125 244.769531 65.421875 245.4375 65.640625 L 246.441406 65.96875 L 247.421875 66.339844 C 248.730469 66.835938 250.035156 67.328125 251.328125 67.820312 C 251.65625 67.9375 251.972656 68.074219 252.285156 68.214844 C 252.601562 68.351562 252.917969 68.488281 253.234375 68.625 C 253.863281 68.898438 254.492188 69.171875 255.117188 69.441406 C 255.738281 69.714844 256.367188 69.976562 256.980469 70.253906 C 257.582031 70.550781 258.1875 70.847656 258.785156 71.140625 C 263.617188 73.40625 267.96875 76.039062 271.871094 78.507812 C 275.710938 81.070312 279.066406 83.539062 281.757812 85.765625 C 282.425781 86.324219 283.066406 86.855469 283.671875 87.359375 C 284.273438 87.867188 284.851562 88.332031 285.351562 88.8125 C 286.375 89.75 287.253906 90.558594 287.972656 91.21875 C 288.332031 91.550781 288.652344 91.84375 288.925781 92.097656 C 289.191406 92.367188 289.414062 92.589844 289.59375 92.773438 C 289.957031 93.140625 290.144531 93.332031 290.144531 93.332031 C 290.824219 94.183594 290.730469 94.292969 290.207031 93.992188 C 289.945312 93.839844 289.574219 93.585938 289.140625 93.269531 C 288.921875 93.105469 288.691406 92.933594 288.445312 92.75 C 288.199219 92.566406 287.925781 92.386719 287.65625 92.195312 C 286.570312 91.429688 285.394531 90.578125 284.488281 89.921875 C 284.265625 89.757812 284.054688 89.605469 283.867188 89.46875 C 283.679688 89.335938 283.503906 89.226562 283.363281 89.132812 C 283.082031 88.945312 282.917969 88.835938 282.917969 88.835938 C 283.59375 89.445312 284.308594 90.191406 285.109375 90.996094 C 285.910156 91.804688 286.800781 92.667969 287.726562 93.613281 C 288.628906 94.585938 289.585938 95.617188 290.59375 96.699219 C 290.84375 96.96875 291.101562 97.234375 291.351562 97.519531 C 291.597656 97.804688 291.84375 98.09375 292.09375 98.386719 C 292.59375 98.96875 293.105469 99.5625 293.621094 100.167969 C 293.878906 100.46875 294.140625 100.773438 294.402344 101.078125 C 294.667969 101.378906 294.933594 101.6875 295.175781 102.015625 C 295.679688 102.65625 296.191406 103.304688 296.703125 103.960938 C 297.21875 104.613281 297.738281 105.273438 298.257812 105.9375 C 298.75 106.625 299.246094 107.3125 299.738281 108.003906 C 300.238281 108.695312 300.734375 109.390625 301.234375 110.082031 C 301.726562 110.78125 302.171875 111.507812 302.640625 112.21875 C 303.566406 113.648438 304.523438 115.046875 305.335938 116.503906 C 305.761719 117.21875 306.179688 117.933594 306.59375 118.636719 C 306.800781 118.988281 307.007812 119.335938 307.214844 119.683594 C 307.402344 120.039062 307.589844 120.394531 307.777344 120.746094 C 308.515625 122.15625 309.253906 123.511719 309.925781 124.828125 C 310.554688 126.167969 311.15625 127.445312 311.71875 128.644531 C 311.863281 128.945312 312 129.238281 312.136719 129.53125 C 312.269531 129.824219 312.382812 130.117188 312.503906 130.402344 C 312.742188 130.972656 312.96875 131.523438 313.1875 132.050781 C 313.621094 133.101562 314.027344 134.054688 314.367188 134.898438 C 314.675781 135.757812 314.941406 136.5 315.160156 137.105469 C 315.597656 138.320312 315.84375 139 315.84375 139 C 315.324219 137.695312 314.804688 136.382812 314.28125 135.074219 C 313.71875 133.78125 313.113281 132.503906 312.535156 131.226562 C 315.484375 137.851562 317.519531 144.296875 318.644531 149.078125 C 318.796875 149.671875 318.941406 150.242188 319.082031 150.777344 C 319.21875 151.316406 319.304688 151.835938 319.410156 152.3125 C 319.605469 153.277344 319.777344 154.105469 319.917969 154.789062 C 320.058594 155.46875 320.167969 156 320.242188 156.359375 C 320.28125 156.539062 320.308594 156.675781 320.320312 156.769531 C 320.335938 156.863281 320.34375 156.910156 320.34375 156.910156 C 320.34375 156.910156 320.496094 157.902344 320.730469 159.40625 C 320.847656 160.160156 320.988281 161.042969 321.136719 161.992188 C 321.273438 162.945312 321.359375 163.972656 321.480469 165.011719 C 321.59375 166.046875 321.710938 167.09375 321.824219 168.09375 C 321.890625 169.089844 321.953125 170.039062 322.007812 170.882812 C 322.121094 172.5625 322.21875 173.800781 322.242188 174.109375 Z M 322.242188 174.109375 " fill-opacity="1" fill-rule="nonzero"/></g><path fill="#0f0f00" d="M 245.992188 159.984375 L 234.453125 159.984375 L 234.429688 160.027344 L 187.109375 159.988281 L 181.160156 170.386719 L 228.453125 170.425781 L 199.917969 220.066406 L 134.160156 220.023438 L 128.207031 230.425781 L 205.9375 230.472656 L 246.339844 160.183594 Z M 245.992188 159.984375 " fill-opacity="1" fill-rule="nonzero"/><path fill="#0f0f00" d="M 249.324219 154.941406 L 255.28125 144.535156 L 177.515625 144.535156 L 137.171875 215.023438 L 149.160156 215.023438 L 165.894531 185.789062 L 213.171875 185.789062 L 219.152344 175.382812 L 171.851562 175.382812 L 183.546875 154.941406 Z M 249.324219 154.941406 " fill-opacity="1" fill-rule="nonzero"/><g clip-path="url(#90c89cae68)"><path fill="#e6b31e" d="M 134.207031 215.039062 L 176.035156 141.980469 L 259.550781 141.980469 L 252.140625 154.925781 L 256.9375 154.925781 L 266.730469 137.820312 L 173.621094 137.820312 L 129.410156 215.039062 Z M 134.207031 215.039062 " fill-opacity="1" fill-rule="nonzero"/></g><g clip-path="url(#598ae3186e)"><path fill="#e6b31e" d="M 249.253906 159.96875 L 207.425781 233.027344 L 123.910156 233.027344 L 131.367188 220 L 126.570312 220 L 116.730469 237.1875 L 209.839844 237.1875 L 254.050781 159.96875 Z M 249.253906 159.96875 " fill-opacity="1" fill-rule="nonzero"/></g></svg>