<svg xmlns="http://www.w3.org/2000/svg" xmlns:xlink="http://www.w3.org/1999/xlink" width="100" zoomAndPan="magnify" viewBox="0 0 75 74.999997" height="100" preserveAspectRatio="xMidYMid meet" version="1.0"><defs><filter x="0%" y="0%" width="100%" height="100%" id="4be162109c"><feColorMatrix values="0 0 0 0 1 0 0 0 0 1 0 0 0 0 1 0 0 0 1 0" color-interpolation-filters="sRGB"/></filter><mask id="9fae5414cb"><g filter="url(#4be162109c)"><rect x="-7.5" width="90" fill="#000000" y="-7.5" height="89.999996" fill-opacity="0.8"/></g></mask><clipPath id="453667c765"><path d="M 21.390625 2.371094 L 30.496094 2.371094 L 30.496094 15.539062 L 21.390625 15.539062 Z M 21.390625 2.371094 " clip-rule="nonzero"/></clipPath><clipPath id="d6f34171df"><path d="M 12 0.078125 L 21 0.078125 L 21 18.800781 L 12 18.800781 Z M 12 0.078125 " clip-rule="nonzero"/></clipPath><clipPath id="f25062acf8"><path d="M 12 0.078125 L 17 0.078125 L 17 18.800781 L 12 18.800781 Z M 12 0.078125 " clip-rule="nonzero"/></clipPath><clipPath id="88a55c5439"><path d="M 12 0.078125 L 17 0.078125 L 17 18.800781 L 12 18.800781 Z M 12 0.078125 " clip-rule="nonzero"/></clipPath><clipPath id="896aa66e3f"><path d="M 12 0.078125 L 17 0.078125 L 17 18.800781 L 12 18.800781 Z M 12 0.078125 " clip-rule="nonzero"/></clipPath><clipPath id="b852d3404f"><rect x="0" width="31" y="0" height="19"/></clipPath></defs><g mask="url(#9fae5414cb)"><g transform="matrix(1, 0, 0, 1, 22, 28)"><g clip-path="url(#b852d3404f)"><path fill="#e6b31e" d="M 10.574219 12.582031 C 10.007812 12.007812 9.542969 11.34375 8.945312 10.796875 C 8.273438 10.183594 7.425781 9.835938 6.683594 9.320312 C 7.285156 8.5625 8.035156 7.929688 8.550781 7.105469 C 8.816406 6.683594 9.039062 6.234375 9.304688 5.8125 C 9.59375 5.363281 10.007812 5.003906 10.265625 4.535156 C 10.355469 4.363281 9.558594 3.761719 9.441406 3.648438 C 9.128906 3.351562 8.9375 2.953125 8.628906 2.664062 C 7.886719 1.96875 6.867188 3.617188 6.402344 4.074219 C 4.847656 5.597656 3.296875 7.148438 1.886719 8.804688 C 1.820312 8.878906 1.9375 8.988281 2.003906 8.910156 C 2.171875 8.714844 2.339844 8.523438 2.511719 8.332031 C 2.851562 7.949219 3.203125 7.574219 3.558594 7.203125 C 4.332031 6.390625 5.117188 5.585938 5.914062 4.796875 C 6.574219 4.144531 7.183594 3.332031 7.90625 2.753906 C 8.242188 2.484375 8.566406 2.765625 8.757812 3.058594 C 9.011719 3.449219 9.292969 3.746094 9.636719 4.0625 C 10.03125 4.417969 10.125 4.5 9.777344 4.894531 C 9.457031 5.257812 9.179688 5.65625 8.933594 6.070312 C 8.386719 6.984375 7.867188 7.789062 7.125 8.558594 C 7.035156 8.648438 6.332031 9.296875 6.488281 9.410156 C 6.875 9.6875 7.289062 9.914062 7.695312 10.152344 C 8.605469 10.6875 9.234375 11.359375 9.917969 12.15625 C 10.121094 12.394531 10.472656 12.582031 10.300781 12.914062 C 10.109375 13.292969 9.828125 13.601562 9.550781 13.917969 C 9.269531 14.242188 9.066406 14.617188 8.816406 14.964844 C 8.441406 15.476562 8.09375 15.160156 7.636719 14.882812 C 6.265625 14.042969 5.210938 12.765625 4.167969 11.5625 C 3.640625 10.953125 3.148438 10.203125 2.511719 9.703125 C 2.304688 9.539062 2.0625 9.398438 1.914062 9.175781 C 1.839844 9.0625 1.886719 8.617188 1.777344 8.617188 C 1.285156 8.613281 2.003906 9.554688 2.09375 9.625 C 2.554688 10.003906 2.949219 10.40625 3.324219 10.871094 C 4.121094 11.867188 4.96875 12.84375 5.878906 13.738281 C 6.3125 14.164062 8.101562 15.933594 8.757812 15.34375 C 9.179688 14.957031 9.421875 14.378906 9.792969 13.941406 C 9.941406 13.765625 10.808594 12.820312 10.574219 12.582031 C 9.953125 11.957031 10.597656 12.605469 10.574219 12.582031 " fill-opacity="1" fill-rule="nonzero"/><g clip-path="url(#453667c765)"><path fill="#e6b31e" d="M 21.527344 12.582031 C 22.09375 12.011719 22.558594 11.34375 23.152344 10.796875 C 23.824219 10.183594 24.671875 9.835938 25.414062 9.320312 C 24.816406 8.5625 24.066406 7.929688 23.550781 7.105469 C 23.285156 6.683594 23.0625 6.234375 22.792969 5.8125 C 22.507812 5.363281 22.089844 5.003906 21.835938 4.535156 C 21.746094 4.363281 22.539062 3.761719 22.660156 3.648438 C 22.972656 3.351562 23.164062 2.953125 23.472656 2.664062 C 24.214844 1.96875 25.234375 3.617188 25.699219 4.074219 C 27.25 5.597656 28.804688 7.148438 30.214844 8.804688 C 30.28125 8.878906 30.164062 8.988281 30.09375 8.910156 C 29.929688 8.714844 29.757812 8.523438 29.589844 8.332031 C 29.246094 7.949219 28.898438 7.574219 28.542969 7.203125 C 27.769531 6.390625 26.984375 5.585938 26.1875 4.796875 C 25.527344 4.144531 24.917969 3.332031 24.195312 2.753906 C 23.855469 2.484375 23.535156 2.765625 23.34375 3.058594 C 23.089844 3.449219 22.808594 3.746094 22.460938 4.0625 C 22.070312 4.417969 21.976562 4.5 22.324219 4.894531 C 22.644531 5.257812 22.921875 5.65625 23.167969 6.070312 C 23.710938 6.984375 24.230469 7.789062 24.976562 8.558594 C 25.066406 8.648438 25.769531 9.296875 25.613281 9.410156 C 25.226562 9.6875 24.8125 9.914062 24.40625 10.152344 C 23.492188 10.6875 22.863281 11.359375 22.183594 12.15625 C 21.980469 12.394531 21.628906 12.582031 21.800781 12.914062 C 21.992188 13.292969 22.269531 13.601562 22.550781 13.917969 C 22.832031 14.238281 23.035156 14.617188 23.285156 14.964844 C 23.65625 15.476562 24.007812 15.160156 24.464844 14.882812 C 25.835938 14.042969 26.890625 12.765625 27.933594 11.5625 C 28.460938 10.953125 28.949219 10.203125 29.589844 9.703125 C 29.792969 9.539062 30.039062 9.398438 30.1875 9.175781 C 30.261719 9.0625 30.210938 8.617188 30.324219 8.617188 C 30.816406 8.613281 30.09375 9.554688 30.007812 9.625 C 29.546875 10.003906 29.152344 10.40625 28.78125 10.871094 C 27.980469 11.867188 27.132812 12.84375 26.222656 13.738281 C 25.789062 14.164062 23.996094 15.933594 23.34375 15.34375 C 22.921875 14.957031 22.679688 14.378906 22.308594 13.941406 C 22.160156 13.765625 21.292969 12.824219 21.527344 12.582031 C 22.148438 11.957031 21.503906 12.605469 21.527344 12.582031 " fill-opacity="1" fill-rule="nonzero"/></g><g clip-path="url(#d6f34171df)"><path fill="#e6b31e" d="M 20.050781 1.246094 C 19.828125 2.097656 19.5 2.917969 19.289062 3.773438 C 19.085938 4.597656 18.996094 5.441406 18.867188 6.28125 C 18.585938 8.125 18.257812 9.964844 17.914062 11.800781 C 17.585938 13.554688 17.257812 15.3125 16.839844 17.042969 C 16.671875 17.730469 16.75 18.382812 15.890625 18.363281 C 15.464844 18.355469 15.0625 18.199219 14.640625 18.175781 C 14.132812 18.152344 13.617188 18.320312 13.117188 18.164062 C 13.285156 16.925781 13.679688 15.734375 13.855469 14.496094 C 14.054688 13.121094 14.304688 11.761719 14.605469 10.40625 C 15.199219 7.730469 15.785156 5.046875 16.402344 2.375 C 16.5 2.386719 16.628906 1.46875 16.640625 1.351562 C 16.832031 0.578125 17.800781 0.914062 18.410156 0.734375 C 19.042969 0.542969 20.332031 0.175781 20.050781 1.246094 C 19.851562 2.011719 20.089844 1.105469 20.050781 1.246094 Z M 20 0.402344 C 19.304688 0.0585938 18.515625 0.605469 17.820312 0.667969 C 17.449219 0.703125 16.96875 0.515625 16.660156 0.8125 C 16.398438 1.070312 16.386719 1.515625 16.371094 1.855469 C 15.558594 5.273438 14.722656 8.71875 14.0625 12.167969 C 13.742188 13.859375 13.523438 15.558594 13.109375 17.234375 C 13.078125 17.367188 12.800781 18.25 12.96875 18.3125 C 13.308594 18.445312 13.667969 18.445312 14.023438 18.421875 C 14.683594 18.378906 15.265625 18.554688 15.917969 18.582031 C 16.6875 18.609375 16.859375 18.128906 16.972656 17.449219 C 17.121094 16.597656 17.339844 15.757812 17.515625 14.910156 C 17.875 13.15625 18.1875 11.394531 18.484375 9.628906 C 18.769531 7.90625 19.042969 6.175781 19.347656 4.457031 C 19.5 3.601562 19.742188 2.765625 20.019531 1.941406 C 20.167969 1.5 20.59375 0.703125 20 0.402344 C 19.535156 0.171875 20.527344 0.667969 20 0.402344 " fill-opacity="1" fill-rule="nonzero"/></g><g clip-path="url(#f25062acf8)"><path fill="#e6b31e" d="M 16.507812 0.828125 C 15.804688 2.023438 15.691406 3.460938 15.484375 4.804688 C 15.21875 6.511719 14.871094 8.1875 14.488281 9.871094 C 14.128906 11.441406 13.890625 13.035156 13.621094 14.625 C 13.488281 15.417969 13.351562 16.210938 13.1875 17 C 13.097656 17.4375 13 17.875 12.890625 18.308594 C 12.828125 18.550781 13.191406 18.605469 13.257812 18.386719 C 13.277344 18.328125 13.296875 18.265625 13.308594 18.203125 C 13.738281 16.679688 13.945312 15.101562 14.164062 13.535156 C 14.386719 11.945312 14.703125 10.40625 15.0625 8.84375 C 15.417969 7.308594 15.664062 5.753906 15.886719 4.195312 C 15.980469 3.523438 16.082031 2.847656 16.273438 2.195312 C 16.382812 1.839844 16.511719 1.492188 16.683594 1.164062 C 16.765625 1.074219 16.804688 0.96875 16.804688 0.847656 C 16.757812 0.722656 16.574219 0.714844 16.507812 0.828125 C 15.859375 1.925781 16.609375 0.652344 16.507812 0.828125 " fill-opacity="1" fill-rule="nonzero"/></g><path fill="#e6b31e" d="M 25.492188 9.25 C 25.4375 9.175781 25.386719 9.101562 25.332031 9.027344 C 25.320312 9.003906 25.304688 8.996094 25.285156 8.988281 C 24.667969 8.117188 23.945312 7.332031 23.320312 6.460938 C 22.964844 5.960938 22.617188 5.457031 22.28125 4.945312 C 22.203125 4.824219 22.058594 4.453125 21.890625 4.433594 C 21.535156 4.382812 21.804688 4.824219 21.855469 4.90625 C 22.484375 5.894531 23.128906 6.90625 23.882812 7.800781 C 24.21875 8.203125 24.558594 8.582031 24.859375 9.007812 C 24.980469 9.183594 25.109375 9.359375 25.253906 9.515625 C 25.417969 9.6875 25.632812 9.40625 25.492188 9.25 C 25.4375 9.175781 25.640625 9.417969 25.492188 9.25 " fill-opacity="1" fill-rule="nonzero"/><path fill="#e6b31e" d="M 25.074219 9.09375 C 24.578125 9.757812 23.855469 10.1875 23.238281 10.722656 C 22.886719 11.027344 22.523438 11.328125 22.179688 11.640625 C 21.980469 11.816406 21.304688 12.308594 21.316406 12.597656 C 21.34375 13.105469 22.917969 11.800781 23.089844 11.652344 C 23.792969 11.042969 24.4375 10.375 25.121094 9.746094 C 25.246094 9.675781 25.359375 9.519531 25.246094 9.382812 C 25.382812 9.210938 25.234375 8.878906 25.074219 9.09375 C 24.578125 9.757812 25.195312 8.929688 25.074219 9.09375 " fill-opacity="1" fill-rule="nonzero"/><path fill="#e6b31e" d="M 8.355469 2.6875 C 8.40625 2.601562 8.359375 2.453125 8.226562 2.445312 C 7.550781 2.613281 6.902344 3.503906 6.410156 3.976562 C 5.789062 4.582031 5.15625 5.171875 4.492188 5.734375 C 3.921875 6.21875 3.351562 6.703125 2.828125 7.234375 C 2.660156 7.40625 1.347656 8.78125 1.824219 8.882812 C 2.082031 8.9375 2.949219 7.628906 3.175781 7.402344 C 3.765625 6.820312 4.414062 6.300781 5.046875 5.769531 C 5.648438 5.257812 6.210938 4.710938 6.785156 4.167969 C 7.09375 3.871094 7.398438 3.582031 7.714844 3.292969 C 7.824219 3.191406 8.21875 2.71875 8.355469 2.6875 C 8.40625 2.601562 8.375 2.683594 8.355469 2.6875 " fill-opacity="1" fill-rule="nonzero"/><path fill="#e6b31e" d="M 8.21875 2.441406 C 8.222656 2.441406 8.226562 2.445312 8.226562 2.445312 C 8.230469 2.445312 8.226562 2.441406 8.21875 2.441406 " fill-opacity="1" fill-rule="nonzero"/><path fill="#e6b31e" d="M 8.316406 15.050781 C 8.269531 15.046875 7.929688 14.753906 7.878906 14.710938 C 7.515625 14.421875 7.167969 14.113281 6.820312 13.808594 C 6.160156 13.226562 5.503906 12.644531 4.847656 12.066406 C 4.21875 11.511719 3.605469 10.941406 3.0625 10.304688 C 2.765625 9.957031 2.492188 9.589844 2.253906 9.199219 C 2.183594 9.085938 2.066406 8.738281 1.90625 8.710938 C 1.753906 8.683594 1.636719 8.863281 1.710938 8.996094 C 2.558594 10.574219 3.925781 11.753906 5.253906 12.917969 C 5.9375 13.515625 6.605469 14.128906 7.300781 14.71875 C 7.535156 14.917969 7.765625 15.179688 8.046875 15.316406 C 8.363281 15.46875 8.554688 15.074219 8.316406 15.050781 C 8.402344 15.058594 8.429688 15.0625 8.316406 15.050781 " fill-opacity="1" fill-rule="nonzero"/><path fill="#e6b31e" d="M 8.199219 15.164062 C 7.796875 15.113281 7.332031 14.484375 7.027344 14.234375 C 6.292969 13.636719 5.558594 13.042969 4.882812 12.378906 C 4.296875 11.800781 3.722656 11.191406 3.171875 10.578125 C 2.90625 10.28125 2.652344 9.976562 2.429688 9.644531 C 2.355469 9.539062 2.226562 9.191406 2.082031 9.167969 C 1.953125 9.148438 1.855469 9.292969 1.917969 9.40625 C 2.71875 10.839844 4.089844 12.109375 5.285156 13.214844 C 5.949219 13.828125 6.695312 14.355469 7.363281 14.964844 C 7.550781 15.136719 7.738281 15.332031 7.972656 15.4375 C 8.277344 15.570312 8.441406 15.195312 8.199219 15.164062 " fill-opacity="1" fill-rule="nonzero"/><g clip-path="url(#88a55c5439)"><path fill="#e6b31e" d="M 16.589844 1.042969 C 16.601562 0.984375 16.585938 0.9375 16.554688 0.90625 C 16.523438 0.867188 16.480469 0.847656 16.425781 0.84375 C 16.359375 0.835938 16.289062 0.863281 16.246094 0.929688 C 16.050781 1.222656 15.382812 2.925781 15.761719 3.171875 C 15.035156 5.777344 14.570312 8.441406 14.117188 11.105469 C 13.878906 12.507812 13.652344 13.910156 13.363281 15.300781 C 13.230469 15.9375 13.078125 16.574219 12.976562 17.21875 C 12.9375 17.464844 12.480469 18.527344 12.792969 18.589844 C 13.363281 18.703125 14.335938 12.070312 14.453125 11.371094 C 14.914062 8.585938 15.460938 5.875 16.175781 3.144531 C 16.226562 3.070312 16.246094 2.988281 16.242188 2.894531 C 16.351562 2.445312 16.574219 1.84375 16.53125 1.378906 C 16.566406 1.261719 16.589844 1.148438 16.589844 1.042969 C 16.601562 0.984375 16.589844 1.148438 16.589844 1.042969 " fill-opacity="1" fill-rule="nonzero"/></g><path fill="#e6b31e" d="M 24.820312 8.824219 C 24.515625 8.40625 24.152344 8.042969 23.832031 7.640625 C 23.5 7.226562 23.285156 6.738281 23.011719 6.28125 C 23.324219 6.027344 22.234375 4.789062 22.019531 4.628906 C 21.980469 4.417969 21.667969 4.382812 21.710938 4.632812 C 21.480469 5.019531 22.171875 5.71875 22.371094 5.980469 C 22.78125 6.515625 23.046875 7.140625 23.4375 7.6875 C 23.804688 8.195312 24.304688 8.597656 24.640625 9.128906 C 24.710938 9.246094 24.792969 9.632812 24.996094 9.582031 C 25.335938 9.492188 24.898438 8.933594 24.820312 8.824219 C 24.554688 8.464844 24.96875 9.027344 24.820312 8.824219 " fill-opacity="1" fill-rule="nonzero"/><g clip-path="url(#896aa66e3f)"><path fill="#e6b31e" d="M 15.933594 0.847656 C 15.664062 2.378906 15.34375 3.90625 15.054688 5.4375 C 14.753906 7.007812 14.234375 8.519531 13.960938 10.101562 C 13.691406 11.675781 13.390625 13.242188 13.046875 14.800781 C 12.878906 15.574219 12.71875 16.355469 12.628906 17.144531 C 12.609375 17.332031 12.414062 18.941406 13.058594 18.367188 C 13.238281 18.207031 13.179688 17.832031 13.195312 17.621094 C 13.234375 17.179688 13.285156 16.738281 13.347656 16.296875 C 13.457031 15.503906 13.605469 14.71875 13.765625 13.9375 C 14.113281 12.261719 14.304688 10.550781 14.71875 8.890625 C 15.109375 7.316406 15.554688 5.777344 15.859375 4.179688 C 16.015625 3.375 16.164062 2.570312 16.292969 1.757812 C 16.332031 1.523438 16.546875 0.9375 16.347656 0.742188 C 16.214844 0.605469 15.96875 0.648438 15.933594 0.847656 C 15.8125 1.53125 15.992188 0.535156 15.933594 0.847656 " fill-opacity="1" fill-rule="nonzero"/></g><path fill="#e6b31e" d="M 25.003906 9.3125 C 24.265625 8.484375 23.785156 7.449219 23.15625 6.539062 C 22.800781 6.027344 22.433594 5.519531 22.09375 5 C 22.007812 4.875 21.917969 4.636719 21.71875 4.660156 C 21.535156 4.679688 21.417969 4.886719 21.519531 5.050781 C 22.125 6.070312 22.863281 7.007812 23.464844 8.03125 C 23.738281 8.488281 23.992188 8.957031 24.328125 9.367188 C 24.449219 9.511719 24.671875 9.871094 24.910156 9.765625 C 25.078125 9.691406 25.160156 9.445312 25.003906 9.3125 C 24.355469 8.585938 25.253906 9.523438 25.003906 9.3125 " fill-opacity="1" fill-rule="nonzero"/><path fill="#e6b31e" d="M 24.617188 9.269531 C 23.980469 9.210938 23.179688 10.300781 22.730469 10.667969 C 22.382812 10.949219 22.09375 11.289062 21.765625 11.597656 C 21.609375 11.746094 20.820312 12.132812 21.25 12.394531 C 21.660156 12.652344 22.9375 11.1875 23.246094 10.925781 C 23.609375 10.617188 23.925781 10.265625 24.300781 9.972656 C 24.359375 9.925781 25.207031 9.324219 24.617188 9.269531 C 24.167969 9.230469 24.824219 9.289062 24.617188 9.269531 " fill-opacity="1" fill-rule="nonzero"/><path fill="#e6b31e" d="M 21.667969 12.484375 C 21.628906 12.277344 21.191406 11.691406 21.066406 12.191406 C 20.984375 12.519531 21.742188 12.898438 21.667969 12.484375 C 21.640625 12.339844 21.679688 12.554688 21.667969 12.484375 " fill-opacity="1" fill-rule="nonzero"/><path fill="#e6b31e" d="M 21.730469 4.5625 C 21.636719 4.597656 21.203125 4.828125 21.535156 4.949219 C 21.863281 5.074219 21.992188 4.464844 21.730469 4.5625 C 21.660156 4.589844 21.875 4.507812 21.730469 4.5625 " fill-opacity="1" fill-rule="nonzero"/><path fill="#e6b31e" d="M 7.808594 2.421875 C 6.824219 3.597656 5.472656 4.464844 4.351562 5.503906 C 3.746094 6.066406 3.246094 6.730469 2.671875 7.324219 C 2.46875 7.53125 1.117188 8.660156 1.628906 8.917969 C 1.886719 9.046875 2.832031 7.859375 3.039062 7.652344 C 3.601562 7.089844 4.101562 6.46875 4.683594 5.929688 C 5.808594 4.886719 7.257812 4.085938 8.226562 2.894531 C 8.566406 2.714844 8.136719 2.027344 7.808594 2.421875 C 7.328125 2.996094 8.136719 2.027344 7.808594 2.421875 " fill-opacity="1" fill-rule="nonzero"/><path fill="#e6b31e" d="M 2.820312 10.089844 C 2.683594 9.644531 2.199219 9.382812 1.941406 9.015625 C 1.832031 8.851562 1.613281 8.21875 1.316406 8.601562 C 1.101562 8.878906 1.664062 9.46875 1.835938 9.652344 C 1.90625 9.726562 2.984375 10.636719 2.820312 10.089844 C 2.742188 9.824219 2.863281 10.226562 2.820312 10.089844 " fill-opacity="1" fill-rule="nonzero"/><path fill="#e6b31e" d="M 8.28125 15.085938 L 8.253906 15.058594 C 7.644531 14.605469 7.113281 13.980469 6.542969 13.480469 C 5.898438 12.910156 5.242188 12.359375 4.613281 11.777344 C 3.980469 11.199219 3.367188 10.597656 2.78125 9.96875 C 2.492188 9.660156 2.203125 9.339844 1.925781 9.015625 C 1.832031 8.90625 1.71875 8.695312 1.535156 8.753906 C 1.414062 8.792969 1.351562 8.921875 1.4375 9.03125 C 2.523438 10.425781 3.765625 11.683594 5.078125 12.863281 C 5.71875 13.4375 6.367188 14.003906 7 14.589844 C 7.316406 14.882812 7.628906 15.175781 7.929688 15.480469 C 8.171875 15.722656 8.507812 15.316406 8.28125 15.085938 " fill-opacity="1" fill-rule="nonzero"/><path fill="#e6b31e" d="M 1.453125 9.101562 C 1.445312 9.101562 1.445312 9.113281 1.453125 9.113281 C 1.460938 9.113281 1.457031 9.101562 1.453125 9.101562 " fill-opacity="1" fill-rule="nonzero"/><path fill="#e6b31e" d="M 7.632812 14.433594 C 7.105469 13.984375 6.683594 13.425781 6.140625 12.988281 C 5.546875 12.511719 4.863281 12.183594 4.28125 11.671875 C 3.710938 11.164062 3.175781 10.621094 2.613281 10.105469 C 2.335938 9.855469 2.0625 9.601562 1.820312 9.320312 C 1.765625 9.253906 1.261719 8.589844 1.25 9.078125 C 1.246094 9.078125 1.246094 9.078125 1.246094 9.078125 C 1.226562 9.449219 1.550781 9.695312 1.792969 9.917969 C 2.175781 10.265625 2.539062 10.625 2.910156 10.984375 C 3.523438 11.582031 4.210938 12.402344 4.953125 12.832031 C 5.617188 13.214844 6.191406 13.644531 6.726562 14.203125 C 7.0625 14.550781 7.410156 14.859375 7.765625 15.191406 C 7.832031 15.253906 8.507812 15.875 8.460938 15.347656 C 8.523438 14.96875 7.855469 14.617188 7.632812 14.433594 C 6.949219 13.855469 7.855469 14.617188 7.632812 14.433594 " fill-opacity="1" fill-rule="nonzero"/><path fill="#e6b31e" d="M 2.328125 7.839844 C 2.09375 7.957031 0.5 9.15625 1.191406 9.34375 C 1.425781 9.410156 1.847656 8.800781 2.015625 8.65625 C 2.167969 8.523438 2.328125 8.386719 2.445312 8.214844 C 2.511719 8.117188 2.636719 7.683594 2.328125 7.839844 C 2.078125 7.964844 2.460938 7.773438 2.328125 7.839844 " fill-opacity="1" fill-rule="nonzero"/><path fill="#e6b31e" d="M 1.730469 8.160156 C 1.574219 8.277344 0.65625 8.890625 1.214844 9.066406 C 1.449219 9.140625 1.664062 8.753906 1.78125 8.613281 C 1.839844 8.542969 2.082031 7.902344 1.730469 8.160156 C 1.507812 8.328125 1.886719 8.042969 1.730469 8.160156 " fill-opacity="1" fill-rule="nonzero"/><path fill="#e6b31e" d="M 3.394531 6.460938 C 2.824219 6.957031 2.25 7.445312 1.722656 7.988281 C 1.488281 8.226562 1.265625 8.472656 1.0625 8.734375 C 0.890625 8.957031 1.214844 9.269531 1.402344 9.039062 C 1.824219 8.511719 2.355469 8.035156 2.847656 7.574219 C 3.097656 7.339844 3.355469 7.109375 3.546875 6.820312 C 3.640625 6.683594 3.6875 6.210938 3.394531 6.460938 C 2.585938 7.164062 3.519531 6.351562 3.394531 6.460938 " fill-opacity="1" fill-rule="nonzero"/></g></g></g></svg>