<svg xmlns="http://www.w3.org/2000/svg" xmlns:xlink="http://www.w3.org/1999/xlink" width="100" zoomAndPan="magnify" viewBox="0 0 75 74.999997" height="100" preserveAspectRatio="xMidYMid meet" version="1.0"><defs><clipPath id="9c9623d20a"><path d="M 36 22.5 L 49.554688 22.5 L 49.554688 38 L 36 38 Z M 36 22.5 " clip-rule="nonzero"/></clipPath><clipPath id="3beb384414"><path d="M 29 41 L 39 41 L 39 52.5 L 29 52.5 Z M 29 41 " clip-rule="nonzero"/></clipPath><clipPath id="c04628b676"><path d="M 25.554688 31 L 33 31 L 33 40 L 25.554688 40 Z M 25.554688 31 " clip-rule="nonzero"/></clipPath></defs><g clip-path="url(#9c9623d20a)"><path fill="#e6b31e" d="M 47.46875 31.183594 C 47.859375 31.09375 48.246094 30.960938 48.636719 30.867188 C 49.015625 30.777344 49.4375 30.691406 49.386719 30.203125 C 49.34375 29.78125 48.941406 29.746094 48.589844 29.707031 C 47.351562 29.5625 46.398438 28.890625 45.492188 28.085938 C 44.148438 26.890625 43.941406 25.230469 43.582031 23.628906 C 43.546875 23.476562 43.539062 23.316406 43.503906 23.164062 C 43.433594 22.839844 43.300781 22.53125 42.910156 22.5625 C 42.523438 22.59375 42.445312 22.898438 42.40625 23.238281 C 42.25 24.609375 41.984375 25.945312 41.179688 27.121094 C 40.3125 28.394531 39.382812 29.460938 37.585938 28.953125 C 37.21875 28.847656 36.664062 28.808594 36.621094 29.449219 C 36.691406 29.929688 37.015625 30.109375 37.378906 30.234375 C 39.941406 31.121094 41.320312 33.019531 41.40625 35.765625 C 41.421875 36.230469 41.464844 36.699219 41.503906 37.164062 C 41.535156 37.503906 41.511719 37.941406 41.980469 37.941406 C 42.511719 37.945312 42.472656 37.472656 42.496094 37.105469 C 42.5625 36.105469 42.757812 35.132812 43.203125 34.226562 C 44.082031 32.457031 45.632812 31.621094 47.464844 31.183594 Z M 46.601562 30.328125 C 44.503906 30.761719 43.214844 31.992188 42.199219 33.65625 C 41.589844 32.171875 40.9375 30.90625 39.707031 29.988281 C 41.398438 29.179688 42.183594 27.707031 43 26.078125 C 43.5625 28.023438 44.890625 29.179688 46.601562 30.328125 Z M 46.601562 30.328125 " fill-opacity="1" fill-rule="nonzero"/></g><g clip-path="url(#3beb384414)"><path fill="#e6b31e" d="M 37.382812 47.675781 C 37.660156 47.609375 37.933594 47.519531 38.210938 47.453125 C 38.480469 47.386719 38.777344 47.324219 38.742188 46.980469 C 38.714844 46.679688 38.429688 46.65625 38.179688 46.628906 C 37.300781 46.527344 36.625 46.050781 35.984375 45.480469 C 35.027344 44.632812 34.882812 43.457031 34.625 42.316406 C 34.601562 42.210938 34.597656 42.097656 34.574219 41.988281 C 34.523438 41.757812 34.429688 41.542969 34.148438 41.5625 C 33.878906 41.585938 33.824219 41.800781 33.792969 42.042969 C 33.683594 43.015625 33.496094 43.960938 32.925781 44.792969 C 32.308594 45.699219 31.648438 46.453125 30.378906 46.09375 C 30.113281 46.019531 29.722656 45.992188 29.691406 46.445312 C 29.742188 46.785156 29.972656 46.914062 30.230469 47 C 32.046875 47.632812 33.023438 48.976562 33.085938 50.921875 C 33.09375 51.253906 33.125 51.585938 33.15625 51.917969 C 33.175781 52.15625 33.160156 52.464844 33.492188 52.46875 C 33.867188 52.46875 33.839844 52.136719 33.859375 51.875 C 33.90625 51.164062 34.042969 50.472656 34.359375 49.832031 C 34.980469 48.578125 36.082031 47.984375 37.382812 47.675781 Z M 36.769531 47.066406 C 35.28125 47.378906 34.367188 48.246094 33.644531 49.429688 C 33.214844 48.375 32.753906 47.476562 31.878906 46.828125 C 33.078125 46.253906 33.636719 45.210938 34.214844 44.054688 C 34.613281 45.433594 35.554688 46.253906 36.769531 47.066406 Z M 36.769531 47.066406 " fill-opacity="1" fill-rule="nonzero"/></g><g clip-path="url(#c04628b676)"><path fill="#e6b31e" d="M 31.101562 35.941406 C 31.304688 35.894531 31.5 35.828125 31.703125 35.78125 C 31.894531 35.734375 32.109375 35.6875 32.085938 35.441406 C 32.0625 35.222656 31.855469 35.207031 31.675781 35.1875 C 31.042969 35.113281 30.554688 34.769531 30.09375 34.355469 C 29.40625 33.746094 29.300781 32.898438 29.113281 32.074219 C 29.097656 31.996094 29.09375 31.917969 29.074219 31.839844 C 29.039062 31.671875 28.972656 31.515625 28.769531 31.53125 C 28.574219 31.546875 28.535156 31.703125 28.515625 31.878906 C 28.433594 32.578125 28.296875 33.261719 27.886719 33.863281 C 27.441406 34.515625 26.96875 35.058594 26.050781 34.800781 C 25.859375 34.746094 25.578125 34.726562 25.554688 35.054688 C 25.589844 35.300781 25.757812 35.390625 25.941406 35.453125 C 27.253906 35.910156 27.960938 36.878906 28.003906 38.285156 C 28.007812 38.523438 28.03125 38.761719 28.054688 39 C 28.070312 39.171875 28.054688 39.398438 28.296875 39.398438 C 28.566406 39.398438 28.546875 39.160156 28.558594 38.972656 C 28.59375 38.457031 28.695312 37.960938 28.921875 37.496094 C 29.371094 36.59375 30.164062 36.164062 31.101562 35.941406 Z M 30.660156 35.503906 C 29.585938 35.726562 28.925781 36.355469 28.40625 37.207031 C 28.09375 36.445312 27.761719 35.796875 27.132812 35.332031 C 28 34.917969 28.398438 34.164062 28.820312 33.328125 C 29.105469 34.324219 29.785156 34.917969 30.660156 35.503906 Z M 30.660156 35.503906 " fill-opacity="1" fill-rule="nonzero"/></g></svg>