<svg xmlns="http://www.w3.org/2000/svg" xmlns:xlink="http://www.w3.org/1999/xlink" width="100" zoomAndPan="magnify" viewBox="0 0 75 74.999997" height="100" preserveAspectRatio="xMidYMid meet" version="1.0"><defs><clipPath id="f84c154e81"><path d="M 22.511719 26.886719 L 52.488281 26.886719 L 52.488281 47.886719 L 22.511719 47.886719 Z M 22.511719 26.886719 " clip-rule="nonzero"/></clipPath></defs><g clip-path="url(#f84c154e81)"><path fill="#e6b31e" d="M 51.675781 42.996094 L 51.609375 42.640625 L 52.152344 42.449219 L 52.183594 42.808594 Z M 26.011719 41.175781 L 26.566406 41.445312 L 26.652344 42.015625 L 26.09375 41.742188 Z M 22.949219 29.316406 C 22.800781 28.667969 22.695312 27.945312 23.027344 27.546875 C 23.230469 27.300781 23.585938 27.183594 24.113281 27.183594 C 24.167969 27.183594 24.21875 27.183594 24.277344 27.1875 C 26 27.261719 36.699219 28.03125 37.722656 28.121094 C 38.574219 28.195312 39.015625 28.789062 39.28125 30.234375 C 39.535156 31.601562 40.574219 36.601562 40.761719 37.515625 L 25.933594 40.742188 C 25.609375 39.519531 23.21875 30.492188 22.949219 29.316406 Z M 51.007812 42.851562 L 51.46875 42.691406 L 51.53125 43.050781 L 51.058594 43.222656 Z M 50.40625 43.066406 L 50.863281 42.90625 L 50.914062 43.277344 L 50.480469 43.433594 Z M 49.753906 43.296875 L 50.265625 43.117188 L 50.339844 43.488281 L 49.808594 43.679688 Z M 49.128906 43.519531 L 49.609375 43.347656 L 49.667969 43.734375 L 49.171875 43.914062 Z M 48.5 43.742188 L 48.984375 43.570312 L 49.027344 43.96875 L 48.550781 44.140625 Z M 47.769531 44 L 48.355469 43.792969 L 48.410156 44.195312 L 47.824219 44.410156 Z M 46.976562 44.28125 L 47.625 44.050781 L 47.679688 44.460938 L 47.042969 44.695312 Z M 46.289062 44.523438 L 46.832031 44.332031 L 46.902344 44.746094 L 46.339844 44.953125 Z M 45.574219 44.777344 L 46.144531 44.574219 L 46.195312 45.007812 L 45.636719 45.210938 Z M 44.804688 45.050781 L 45.433594 44.828125 L 45.492188 45.261719 L 44.871094 45.492188 Z M 44.203125 45.261719 L 44.660156 45.101562 L 44.730469 45.542969 L 44.269531 45.710938 Z M 43.441406 45.53125 L 44.058594 45.3125 L 44.125 45.765625 L 43.496094 45.996094 Z M 42.761719 45.773438 L 43.296875 45.582031 L 43.351562 46.050781 L 42.808594 46.25 Z M 42.65625 45.496094 L 40.558594 44.484375 L 44.613281 43.054688 L 46.847656 44.011719 Z M 42.132812 45.996094 L 42.617188 45.824219 L 42.664062 46.300781 L 42.179688 46.480469 Z M 41.574219 46.191406 L 41.988281 46.046875 L 42.035156 46.53125 L 41.621094 46.683594 Z M 40.988281 46.398438 L 41.429688 46.242188 L 41.476562 46.738281 L 41.050781 46.894531 Z M 40.355469 46.625 L 40.84375 46.449219 L 40.90625 46.945312 L 40.417969 47.125 Z M 39.703125 46.855469 L 40.210938 46.675781 L 40.273438 47.179688 L 39.773438 47.359375 Z M 39.1875 47.039062 L 39.558594 46.90625 L 39.632812 47.414062 L 39.246094 47.554688 Z M 38.605469 47.242188 L 39.042969 47.089844 L 39.105469 47.605469 L 38.644531 47.773438 Z M 37.957031 47 L 38.453125 47.246094 L 38.492188 47.761719 L 38.007812 47.523438 Z M 37.390625 46.726562 L 37.796875 46.925781 L 37.847656 47.449219 L 37.4375 47.25 Z M 36.640625 46.359375 L 37.238281 46.652344 C 37.238281 46.65625 37.234375 46.65625 37.238281 46.660156 L 37.28125 47.171875 L 36.710938 46.894531 Z M 35.90625 46 L 36.480469 46.28125 L 36.550781 46.816406 L 35.980469 46.542969 Z M 35.1875 45.652344 L 35.742188 45.921875 L 35.820312 46.464844 L 35.261719 46.191406 Z M 34.453125 45.292969 L 35.027344 45.574219 L 35.097656 46.113281 L 34.511719 45.828125 Z M 33.804688 44.976562 L 34.292969 45.214844 L 34.351562 45.753906 L 33.820312 45.492188 Z M 33.035156 44.601562 L 33.652344 44.902344 L 33.667969 45.417969 L 33.058594 45.121094 Z M 32.328125 44.257812 L 32.882812 44.527344 L 32.90625 45.050781 L 32.371094 44.789062 Z M 31.523438 43.863281 L 32.171875 44.179688 L 32.214844 44.714844 L 31.578125 44.40625 Z M 30.816406 43.519531 L 31.363281 43.785156 L 31.417969 44.328125 L 30.886719 44.070312 Z M 29.980469 43.113281 L 30.652344 43.441406 L 30.726562 43.992188 L 30.070312 43.671875 Z M 29.167969 42.714844 L 29.816406 43.03125 L 29.90625 43.59375 L 29.269531 43.285156 Z M 28.417969 42.347656 L 29 42.632812 L 29.101562 43.203125 L 28.496094 42.910156 Z M 27.609375 41.953125 L 28.253906 42.269531 L 28.335938 42.832031 L 27.691406 42.519531 Z M 27.445312 41.875 L 27.53125 42.441406 L 26.816406 42.09375 L 26.730469 41.527344 Z M 51.871094 42.234375 L 47.105469 43.921875 L 44.652344 42.871094 C 44.628906 42.859375 44.605469 42.859375 44.585938 42.867188 L 40.285156 44.382812 C 40.25 44.394531 40.226562 44.425781 40.222656 44.464844 C 40.222656 44.503906 40.242188 44.539062 40.277344 44.554688 L 42.410156 45.585938 L 38.535156 46.957031 L 26.265625 40.972656 L 40.925781 37.78125 Z M 52.433594 42.234375 C 52.433594 42.230469 52.429688 42.226562 52.429688 42.222656 C 52.425781 42.1875 52.410156 42.160156 52.390625 42.140625 C 52.382812 42.132812 52.375 42.128906 52.367188 42.121094 C 52.359375 42.117188 52.347656 42.109375 52.335938 42.105469 L 41.066406 37.519531 C 40.921875 36.820312 39.828125 31.582031 39.570312 30.183594 C 39.277344 28.597656 38.75 27.914062 37.746094 27.828125 C 36.726562 27.738281 26.015625 26.964844 24.289062 26.890625 C 23.574219 26.859375 23.085938 27.011719 22.800781 27.355469 C 22.386719 27.855469 22.496094 28.660156 22.660156 29.382812 C 22.945312 30.625 25.589844 40.597656 25.683594 40.945312 L 25.8125 41.863281 C 25.816406 41.910156 25.847656 41.953125 25.890625 41.972656 L 38.503906 48.09375 C 38.523438 48.101562 38.542969 48.109375 38.566406 48.109375 C 38.585938 48.109375 38.601562 48.105469 38.617188 48.097656 L 52.390625 43.046875 C 52.453125 43.027344 52.492188 42.964844 52.488281 42.898438 L 52.433594 42.234375 " fill-opacity="1" fill-rule="nonzero"/></g><path fill="#e6b31e" d="M 29.902344 41.019531 L 31.242188 41.636719 L 30.238281 41.898438 L 28.898438 41.253906 Z M 40.414062 38.570312 L 41.425781 38.984375 L 40.3125 39.273438 L 39.347656 38.820312 Z M 45.191406 41.574219 L 44.335938 41.171875 L 45.683594 40.726562 L 46.640625 41.117188 Z M 35.753906 44.550781 L 35.070312 44.222656 L 36.125 43.875 L 36.847656 44.203125 Z M 32.757812 42.328125 L 31.714844 42.609375 L 30.507812 42.027344 L 31.523438 41.765625 Z M 41.429688 40.015625 L 40.335938 40.308594 L 39.238281 39.753906 L 40.292969 39.480469 Z M 34.929688 43.113281 L 36 42.785156 L 37.152344 43.332031 L 36.136719 43.664062 Z M 34.21875 41.941406 L 33.050781 42.25 L 31.820312 41.6875 L 33.023438 41.375 Z M 35.777344 41.523438 L 34.507812 41.863281 L 33.316406 41.296875 L 34.679688 40.941406 Z M 37.269531 41.125 L 36.054688 41.449219 L 34.957031 40.871094 L 36.160156 40.554688 Z M 38.648438 40.757812 L 37.550781 41.050781 L 36.441406 40.484375 L 37.5625 40.191406 Z M 38.925781 40.683594 L 37.84375 40.117188 L 38.957031 39.828125 L 40.054688 40.382812 Z M 41.25 40.984375 L 40.144531 41.320312 L 39.179688 40.816406 L 40.316406 40.515625 Z M 41.519531 40.902344 L 40.597656 40.4375 L 41.703125 40.144531 L 42.609375 40.570312 Z M 41.769531 41.03125 L 42.871094 40.695312 L 43.8125 41.136719 L 42.707031 41.503906 Z M 40.386719 41.449219 L 41.5 41.109375 L 42.445312 41.589844 L 41.34375 41.949219 Z M 39.09375 41.84375 L 40.121094 41.53125 L 41.085938 42.035156 L 40.101562 42.359375 Z M 37.632812 42.289062 L 38.828125 41.925781 L 39.84375 42.445312 L 38.664062 42.832031 Z M 37.371094 42.367188 L 38.40625 42.917969 L 37.417969 43.246094 L 36.277344 42.703125 Z M 37.808594 41.183594 L 38.902344 40.890625 L 39.878906 41.402344 L 38.847656 41.714844 Z M 38.578125 41.796875 L 37.390625 42.160156 L 36.304688 41.585938 L 37.527344 41.257812 Z M 35.738281 42.664062 L 34.664062 42.988281 L 33.328125 42.378906 L 34.488281 42.070312 Z M 34.777344 41.992188 L 36.027344 41.65625 L 37.128906 42.238281 L 36.015625 42.578125 Z M 31.984375 42.738281 L 33.03125 42.457031 L 34.382812 43.074219 L 33.34375 43.390625 Z M 33.601562 43.515625 L 34.648438 43.199219 L 35.867188 43.753906 L 34.820312 44.101562 Z M 37.125 44.117188 L 36.398438 43.785156 L 37.40625 43.453125 L 38.132812 43.800781 Z M 38.40625 43.714844 L 37.671875 43.367188 L 38.644531 43.042969 L 39.347656 43.417969 Z M 39.609375 43.335938 L 38.902344 42.960938 L 40.085938 42.570312 L 40.824219 42.949219 Z M 41.089844 42.867188 L 40.34375 42.484375 L 41.328125 42.160156 L 42.078125 42.554688 Z M 42.339844 42.472656 L 41.582031 42.078125 L 42.691406 41.710938 L 43.484375 42.113281 Z M 43.75 42.027344 L 42.953125 41.625 L 44.066406 41.257812 L 44.917969 41.660156 Z M 45.40625 40.613281 L 44.078125 41.050781 L 43.148438 40.609375 L 44.4375 40.21875 Z M 44.15625 40.101562 L 42.886719 40.488281 L 41.996094 40.066406 L 43.25 39.730469 Z M 42.953125 39.609375 L 41.722656 39.9375 L 40.585938 39.402344 L 41.722656 39.105469 Z M 39.042969 38.890625 L 40.019531 39.351562 L 38.976562 39.621094 L 38.003906 39.132812 Z M 37.710938 39.199219 L 38.691406 39.695312 L 37.585938 39.984375 L 36.589844 39.460938 Z M 36.300781 39.527344 L 37.308594 40.054688 L 36.183594 40.347656 L 35.121094 39.804688 Z M 34.828125 39.871094 L 35.898438 40.421875 L 34.703125 40.734375 L 33.609375 40.15625 Z M 33.324219 40.222656 L 34.425781 40.808594 L 33.042969 41.167969 L 31.800781 40.578125 Z M 31.496094 40.648438 L 32.75 41.242188 L 31.539062 41.558594 L 30.210938 40.949219 Z M 28.566406 41.308594 L 35.703125 44.742188 C 35.71875 44.746094 35.730469 44.75 35.746094 44.75 C 35.757812 44.75 35.765625 44.75 35.777344 44.746094 L 39.625 43.53125 C 39.625 43.53125 39.628906 43.53125 39.628906 43.53125 L 42.359375 42.671875 C 42.359375 42.671875 42.359375 42.671875 42.359375 42.667969 L 46.953125 41.222656 C 46.992188 41.207031 47.019531 41.171875 47.019531 41.132812 C 47.023438 41.09375 47 41.054688 46.960938 41.039062 L 40.457031 38.378906 C 40.4375 38.371094 40.417969 38.371094 40.398438 38.375 L 28.585938 41.128906 C 28.546875 41.136719 28.515625 41.171875 28.511719 41.210938 C 28.507812 41.253906 28.53125 41.292969 28.566406 41.308594 " fill-opacity="1" fill-rule="nonzero"/><path fill="#e6b31e" d="M 26.617188 39.480469 L 23.84375 28.289062 L 37.898438 29.125 L 39.59375 36.890625 Z M 38.070312 29.011719 C 38.0625 28.972656 38.027344 28.941406 37.984375 28.9375 L 23.722656 28.085938 C 23.691406 28.085938 23.664062 28.097656 23.644531 28.121094 C 23.625 28.144531 23.617188 28.175781 23.625 28.207031 L 26.453125 39.617188 C 26.460938 39.664062 26.503906 39.691406 26.546875 39.691406 C 26.550781 39.691406 26.558594 39.691406 26.566406 39.691406 L 39.730469 37.0625 C 39.753906 37.054688 39.777344 37.039062 39.792969 37.019531 C 39.804688 36.996094 39.8125 36.96875 39.804688 36.945312 L 38.070312 29.011719 " fill-opacity="1" fill-rule="nonzero"/><path fill="#e6b31e" d="M 40.769531 46.007812 C 40.78125 46.007812 40.789062 46.003906 40.796875 46 L 41.667969 45.691406 C 41.707031 45.675781 41.726562 45.632812 41.710938 45.59375 C 41.699219 45.558594 41.65625 45.535156 41.617188 45.550781 L 40.746094 45.859375 C 40.707031 45.875 40.6875 45.917969 40.703125 45.957031 C 40.710938 45.988281 40.742188 46.007812 40.769531 46.007812 " fill-opacity="1" fill-rule="nonzero"/><path fill="#e6b31e" d="M 40.019531 46.089844 L 38.726562 46.550781 C 38.6875 46.5625 38.667969 46.605469 38.679688 46.644531 C 38.691406 46.675781 38.71875 46.695312 38.75 46.695312 C 38.757812 46.695312 38.769531 46.691406 38.777344 46.691406 L 40.066406 46.230469 C 40.105469 46.214844 40.128906 46.171875 40.113281 46.136719 C 40.097656 46.097656 40.058594 46.074219 40.019531 46.089844 " fill-opacity="1" fill-rule="nonzero"/><path fill="#e6b31e" d="M 49.59375 42.789062 C 49.601562 42.789062 49.609375 42.789062 49.617188 42.785156 L 51.011719 42.332031 C 51.050781 42.320312 51.070312 42.277344 51.058594 42.238281 C 51.046875 42.199219 51.003906 42.175781 50.964844 42.191406 L 49.570312 42.644531 C 49.53125 42.660156 49.511719 42.699219 49.523438 42.738281 C 49.535156 42.769531 49.5625 42.789062 49.59375 42.789062 " fill-opacity="1" fill-rule="nonzero"/><path fill="#e6b31e" d="M 47.253906 43.640625 C 47.261719 43.640625 47.269531 43.640625 47.277344 43.636719 L 48.894531 43.082031 C 48.933594 43.066406 48.953125 43.023438 48.941406 42.984375 C 48.925781 42.945312 48.882812 42.925781 48.84375 42.941406 L 47.230469 43.496094 C 47.191406 43.507812 47.167969 43.550781 47.183594 43.589844 C 47.195312 43.621094 47.222656 43.640625 47.253906 43.640625 " fill-opacity="1" fill-rule="nonzero"/><path fill="#e6b31e" d="M 37.847656 28.589844 C 38.242188 28.714844 38.558594 29.089844 38.601562 29.476562 C 38.605469 29.511719 38.636719 29.542969 38.675781 29.542969 C 38.679688 29.542969 38.679688 29.542969 38.683594 29.542969 C 38.722656 29.539062 38.753906 29.5 38.75 29.460938 C 38.703125 29.015625 38.34375 28.589844 37.894531 28.445312 C 37.855469 28.433594 37.8125 28.457031 37.800781 28.496094 C 37.789062 28.535156 37.808594 28.574219 37.847656 28.589844 " fill-opacity="1" fill-rule="nonzero"/><path fill="#e6b31e" d="M 31.511719 27.976562 C 31.582031 27.976562 31.640625 28.039062 31.640625 28.117188 C 31.640625 28.195312 31.582031 28.261719 31.511719 28.261719 C 31.441406 28.261719 31.382812 28.195312 31.382812 28.117188 C 31.382812 28.039062 31.441406 27.976562 31.511719 27.976562 Z M 31.511719 28.410156 C 31.664062 28.410156 31.789062 28.28125 31.789062 28.117188 C 31.789062 27.957031 31.664062 27.828125 31.511719 27.828125 C 31.359375 27.828125 31.234375 27.957031 31.234375 28.117188 C 31.234375 28.28125 31.359375 28.410156 31.511719 28.410156 " fill-opacity="1" fill-rule="nonzero"/><path fill="#e6b31e" d="M 39.367188 33.398438 C 39.375 33.433594 39.40625 33.457031 39.441406 33.457031 C 39.445312 33.457031 39.449219 33.457031 39.457031 33.457031 C 39.496094 33.449219 39.523438 33.410156 39.511719 33.367188 L 39.203125 31.878906 C 39.195312 31.839844 39.15625 31.8125 39.117188 31.820312 C 39.078125 31.828125 39.050781 31.867188 39.058594 31.910156 L 39.367188 33.398438 " fill-opacity="1" fill-rule="nonzero"/><path fill="#e6b31e" d="M 40.488281 37.160156 C 40.425781 36.9375 40.386719 36.707031 40.347656 36.480469 C 40.308594 36.234375 40.265625 35.980469 40.195312 35.734375 C 40.183594 35.695312 40.140625 35.671875 40.101562 35.683594 C 40.0625 35.695312 40.039062 35.734375 40.050781 35.777344 C 40.117188 36.015625 40.160156 36.265625 40.203125 36.507812 C 40.242188 36.734375 40.28125 36.96875 40.34375 37.199219 C 40.351562 37.234375 40.382812 37.253906 40.414062 37.253906 C 40.421875 37.253906 40.425781 37.253906 40.433594 37.253906 C 40.472656 37.242188 40.496094 37.199219 40.488281 37.160156 " fill-opacity="1" fill-rule="nonzero"/><path fill="#e6b31e" d="M 23.761719 27.65625 C 23.804688 27.660156 23.839844 27.628906 23.84375 27.589844 C 23.847656 27.546875 23.816406 27.511719 23.777344 27.507812 C 23.585938 27.492188 23.425781 27.546875 23.308594 27.671875 C 23.09375 27.894531 23.054688 28.285156 23.089844 28.578125 C 23.09375 28.617188 23.125 28.644531 23.164062 28.644531 C 23.164062 28.644531 23.167969 28.644531 23.171875 28.644531 C 23.214844 28.640625 23.242188 28.601562 23.238281 28.5625 C 23.207031 28.316406 23.234375 27.960938 23.414062 27.777344 C 23.5 27.683594 23.621094 27.644531 23.761719 27.65625 " fill-opacity="1" fill-rule="nonzero"/><path fill="#e6b31e" d="M 24.484375 33.34375 C 24.472656 33.304688 24.433594 33.28125 24.390625 33.292969 C 24.351562 33.300781 24.328125 33.34375 24.339844 33.382812 L 24.769531 35.085938 C 24.777344 35.117188 24.808594 35.140625 24.839844 35.140625 C 24.847656 35.140625 24.855469 35.140625 24.859375 35.140625 C 24.898438 35.128906 24.925781 35.089844 24.914062 35.046875 L 24.484375 33.34375 " fill-opacity="1" fill-rule="nonzero"/><path fill="#e6b31e" d="M 25.835938 38.792969 C 25.824219 38.75 25.78125 38.730469 25.742188 38.742188 C 25.703125 38.753906 25.679688 38.792969 25.691406 38.832031 L 26.09375 40.191406 C 26.105469 40.222656 26.132812 40.246094 26.167969 40.246094 C 26.171875 40.246094 26.179688 40.242188 26.1875 40.242188 C 26.226562 40.230469 26.25 40.1875 26.238281 40.148438 L 25.835938 38.792969 " fill-opacity="1" fill-rule="nonzero"/></svg>