<svg xmlns="http://www.w3.org/2000/svg" xmlns:xlink="http://www.w3.org/1999/xlink" width="160" zoomAndPan="magnify" viewBox="0 0 120 74.999997" height="100" preserveAspectRatio="xMidYMid meet" version="1.0"><defs><g/><clipPath id="7b9cb98c0b"><path d="M 4.640625 25.621094 L 29.128906 25.621094 L 29.128906 50.105469 L 4.640625 50.105469 Z M 4.640625 25.621094 " clip-rule="nonzero"/></clipPath><clipPath id="a3650b62ca"><path d="M 3.894531 24.304688 L 28.382812 24.304688 L 28.382812 50.835938 L 3.894531 50.835938 Z M 3.894531 24.304688 " clip-rule="nonzero"/></clipPath><clipPath id="492a41be2c"><path d="M 11.351562 33.195312 L 23.472656 33.195312 L 23.472656 40 L 11.351562 40 Z M 11.351562 33.195312 " clip-rule="nonzero"/></clipPath><clipPath id="497f77c8ef"><path d="M 10.273438 35.058594 L 22.441406 35.058594 L 22.441406 41.972656 L 10.273438 41.972656 Z M 10.273438 35.058594 " clip-rule="nonzero"/></clipPath></defs><g clip-path="url(#7b9cb98c0b)"><path fill="#ffffff" d="M 29.128906 37.863281 C 29.128906 38.0625 29.121094 38.265625 29.113281 38.464844 C 29.101562 38.664062 29.085938 38.863281 29.066406 39.0625 C 29.046875 39.261719 29.023438 39.460938 28.996094 39.660156 C 28.964844 39.859375 28.929688 40.054688 28.890625 40.253906 C 28.851562 40.449219 28.808594 40.644531 28.761719 40.839844 C 28.710938 41.03125 28.65625 41.226562 28.601562 41.417969 C 28.542969 41.609375 28.480469 41.800781 28.410156 41.988281 C 28.34375 42.175781 28.273438 42.363281 28.195312 42.550781 C 28.117188 42.734375 28.039062 42.917969 27.953125 43.097656 C 27.867188 43.28125 27.777344 43.457031 27.679688 43.636719 C 27.585938 43.8125 27.488281 43.984375 27.386719 44.15625 C 27.28125 44.328125 27.175781 44.5 27.0625 44.664062 C 26.953125 44.832031 26.835938 44.996094 26.71875 45.15625 C 26.597656 45.316406 26.476562 45.476562 26.347656 45.628906 C 26.222656 45.785156 26.089844 45.9375 25.957031 46.085938 C 25.820312 46.234375 25.683594 46.378906 25.539062 46.519531 C 25.398438 46.664062 25.253906 46.800781 25.105469 46.933594 C 24.957031 47.070312 24.804688 47.199219 24.652344 47.328125 C 24.496094 47.453125 24.339844 47.578125 24.175781 47.695312 C 24.015625 47.816406 23.851562 47.933594 23.6875 48.042969 C 23.519531 48.15625 23.351562 48.261719 23.179688 48.363281 C 23.007812 48.46875 22.832031 48.566406 22.65625 48.660156 C 22.476562 48.753906 22.300781 48.847656 22.117188 48.929688 C 21.9375 49.015625 21.753906 49.097656 21.570312 49.175781 C 21.382812 49.25 21.195312 49.324219 21.007812 49.390625 C 20.820312 49.457031 20.628906 49.523438 20.4375 49.578125 C 20.246094 49.636719 20.054688 49.691406 19.859375 49.738281 C 19.664062 49.789062 19.46875 49.832031 19.273438 49.871094 C 19.074219 49.910156 18.878906 49.945312 18.679688 49.972656 C 18.480469 50.003906 18.285156 50.027344 18.085938 50.046875 C 17.882812 50.066406 17.683594 50.082031 17.484375 50.09375 C 17.285156 50.101562 17.085938 50.105469 16.882812 50.105469 C 16.683594 50.105469 16.484375 50.101562 16.28125 50.09375 C 16.082031 50.082031 15.882812 50.066406 15.683594 50.046875 C 15.484375 50.027344 15.285156 50.003906 15.085938 49.972656 C 14.890625 49.945312 14.691406 49.910156 14.496094 49.871094 C 14.300781 49.832031 14.101562 49.789062 13.910156 49.738281 C 13.714844 49.691406 13.523438 49.636719 13.328125 49.578125 C 13.136719 49.523438 12.949219 49.457031 12.757812 49.390625 C 12.570312 49.324219 12.382812 49.25 12.199219 49.175781 C 12.015625 49.097656 11.832031 49.015625 11.648438 48.929688 C 11.46875 48.847656 11.289062 48.753906 11.113281 48.660156 C 10.9375 48.566406 10.761719 48.46875 10.589844 48.363281 C 10.417969 48.261719 10.25 48.15625 10.082031 48.042969 C 9.914062 47.933594 9.75 47.816406 9.589844 47.695312 C 9.429688 47.578125 9.273438 47.453125 9.117188 47.328125 C 8.960938 47.199219 8.8125 47.070312 8.664062 46.933594 C 8.511719 46.800781 8.367188 46.664062 8.226562 46.519531 C 8.085938 46.378906 7.945312 46.234375 7.8125 46.085938 C 7.679688 45.9375 7.546875 45.785156 7.417969 45.628906 C 7.292969 45.476562 7.167969 45.316406 7.050781 45.15625 C 6.929688 44.996094 6.816406 44.832031 6.703125 44.664062 C 6.59375 44.5 6.484375 44.328125 6.382812 44.15625 C 6.28125 43.984375 6.179688 43.8125 6.085938 43.636719 C 5.992188 43.457031 5.902344 43.28125 5.816406 43.097656 C 5.730469 42.917969 5.648438 42.734375 5.574219 42.550781 C 5.496094 42.363281 5.425781 42.175781 5.355469 41.988281 C 5.289062 41.800781 5.226562 41.609375 5.167969 41.417969 C 5.109375 41.226562 5.054688 41.03125 5.007812 40.839844 C 4.960938 40.644531 4.914062 40.449219 4.875 40.253906 C 4.835938 40.054688 4.804688 39.859375 4.773438 39.660156 C 4.742188 39.460938 4.71875 39.261719 4.699219 39.0625 C 4.679688 38.863281 4.664062 38.664062 4.65625 38.464844 C 4.644531 38.265625 4.640625 38.0625 4.640625 37.863281 C 4.640625 37.664062 4.644531 37.464844 4.65625 37.261719 C 4.664062 37.0625 4.679688 36.863281 4.699219 36.664062 C 4.71875 36.464844 4.742188 36.265625 4.773438 36.066406 C 4.804688 35.871094 4.835938 35.671875 4.875 35.476562 C 4.914062 35.277344 4.960938 35.082031 5.007812 34.890625 C 5.054688 34.695312 5.109375 34.5 5.167969 34.308594 C 5.226562 34.117188 5.289062 33.929688 5.355469 33.738281 C 5.425781 33.550781 5.496094 33.363281 5.574219 33.179688 C 5.648438 32.992188 5.730469 32.808594 5.816406 32.628906 C 5.902344 32.449219 5.992188 32.269531 6.085938 32.09375 C 6.179688 31.914062 6.28125 31.742188 6.382812 31.570312 C 6.484375 31.398438 6.59375 31.230469 6.703125 31.0625 C 6.816406 30.894531 6.929688 30.730469 7.050781 30.570312 C 7.167969 30.410156 7.292969 30.25 7.417969 30.097656 C 7.546875 29.941406 7.679688 29.789062 7.8125 29.640625 C 7.945312 29.492188 8.085938 29.347656 8.226562 29.207031 C 8.367188 29.066406 8.511719 28.925781 8.664062 28.792969 C 8.8125 28.65625 8.960938 28.527344 9.117188 28.398438 C 9.273438 28.273438 9.429688 28.148438 9.589844 28.03125 C 9.75 27.910156 9.914062 27.796875 10.082031 27.683594 C 10.25 27.574219 10.417969 27.464844 10.589844 27.363281 C 10.761719 27.257812 10.9375 27.160156 11.113281 27.066406 C 11.289062 26.972656 11.46875 26.882812 11.648438 26.796875 C 11.832031 26.710938 12.015625 26.628906 12.199219 26.554688 C 12.382812 26.476562 12.570312 26.402344 12.757812 26.335938 C 12.949219 26.269531 13.136719 26.207031 13.328125 26.148438 C 13.523438 26.089844 13.714844 26.035156 13.910156 25.988281 C 14.101562 25.9375 14.300781 25.894531 14.496094 25.855469 C 14.691406 25.816406 14.890625 25.78125 15.085938 25.753906 C 15.285156 25.722656 15.484375 25.699219 15.683594 25.679688 C 15.882812 25.660156 16.082031 25.644531 16.28125 25.636719 C 16.484375 25.625 16.683594 25.621094 16.882812 25.621094 C 17.085938 25.621094 17.285156 25.625 17.484375 25.636719 C 17.683594 25.644531 17.882812 25.660156 18.085938 25.679688 C 18.285156 25.699219 18.480469 25.722656 18.679688 25.753906 C 18.878906 25.78125 19.074219 25.816406 19.273438 25.855469 C 19.46875 25.894531 19.664062 25.9375 19.859375 25.988281 C 20.054688 26.035156 20.246094 26.089844 20.4375 26.148438 C 20.628906 26.207031 20.820312 26.269531 21.007812 26.335938 C 21.195312 26.402344 21.382812 26.476562 21.570312 26.554688 C 21.753906 26.628906 21.9375 26.710938 22.117188 26.796875 C 22.300781 26.882812 22.476562 26.972656 22.65625 27.066406 C 22.832031 27.160156 23.007812 27.257812 23.179688 27.363281 C 23.351562 27.464844 23.519531 27.574219 23.6875 27.683594 C 23.851562 27.796875 24.015625 27.910156 24.175781 28.03125 C 24.339844 28.148438 24.496094 28.273438 24.652344 28.398438 C 24.804688 28.527344 24.957031 28.65625 25.105469 28.792969 C 25.253906 28.925781 25.398438 29.066406 25.539062 29.207031 C 25.683594 29.347656 25.820312 29.492188 25.957031 29.640625 C 26.089844 29.789062 26.222656 29.941406 26.347656 30.097656 C 26.476562 30.25 26.597656 30.410156 26.71875 30.570312 C 26.835938 30.730469 26.953125 30.894531 27.0625 31.0625 C 27.175781 31.230469 27.28125 31.398438 27.386719 31.570312 C 27.488281 31.742188 27.585938 31.914062 27.679688 32.09375 C 27.777344 32.269531 27.867188 32.449219 27.953125 32.628906 C 28.039062 32.808594 28.117188 32.992188 28.195312 33.179688 C 28.273438 33.363281 28.34375 33.550781 28.410156 33.738281 C 28.480469 33.929688 28.542969 34.117188 28.601562 34.308594 C 28.65625 34.5 28.710938 34.695312 28.761719 34.890625 C 28.808594 35.082031 28.851562 35.277344 28.890625 35.476562 C 28.929688 35.671875 28.964844 35.871094 28.996094 36.066406 C 29.023438 36.265625 29.046875 36.464844 29.066406 36.664062 C 29.085938 36.863281 29.101562 37.0625 29.113281 37.261719 C 29.121094 37.464844 29.128906 37.664062 29.128906 37.863281 Z M 29.128906 37.863281 " fill-opacity="1" fill-rule="nonzero"/></g><g clip-path="url(#a3650b62ca)"><path fill="#e6b31e" d="M 28.355469 36.386719 C 28.355469 36.386719 28.347656 36.273438 28.332031 36.097656 C 28.328125 36.054688 28.324219 36.007812 28.320312 35.960938 C 28.3125 35.910156 28.308594 35.859375 28.300781 35.804688 C 28.28125 35.695312 28.265625 35.582031 28.246094 35.46875 C 28.230469 35.355469 28.199219 35.242188 28.175781 35.136719 C 28.152344 35.03125 28.128906 34.933594 28.105469 34.847656 C 28.058594 34.683594 28.023438 34.574219 28.023438 34.574219 C 28.023438 34.574219 28.015625 34.542969 28 34.492188 C 27.988281 34.46875 27.980469 34.4375 27.96875 34.398438 C 27.957031 34.363281 27.941406 34.324219 27.925781 34.28125 C 27.894531 34.195312 27.855469 34.097656 27.8125 33.988281 C 27.800781 33.960938 27.792969 33.9375 27.78125 33.910156 C 27.769531 33.882812 27.757812 33.855469 27.742188 33.828125 C 27.71875 33.773438 27.691406 33.71875 27.667969 33.660156 C 27.640625 33.605469 27.613281 33.550781 27.589844 33.496094 C 27.5625 33.445312 27.535156 33.390625 27.507812 33.34375 C 27.453125 33.242188 27.402344 33.148438 27.355469 33.070312 C 27.3125 32.992188 27.269531 32.929688 27.238281 32.882812 C 27.210938 32.839844 27.195312 32.816406 27.195312 32.816406 C 27.195312 32.816406 27.179688 32.789062 27.152344 32.75 C 27.128906 32.714844 27.097656 32.664062 27.0625 32.613281 C 26.992188 32.519531 26.917969 32.421875 26.917969 32.421875 C 26.863281 32.328125 26.808594 32.238281 26.753906 32.15625 C 26.699219 32.074219 26.644531 31.996094 26.597656 31.925781 C 26.550781 31.851562 26.5 31.789062 26.457031 31.726562 C 26.410156 31.667969 26.371094 31.613281 26.335938 31.5625 C 26.316406 31.539062 26.300781 31.515625 26.28125 31.492188 C 26.265625 31.46875 26.25 31.449219 26.234375 31.433594 C 26.207031 31.394531 26.179688 31.363281 26.160156 31.335938 C 26.121094 31.285156 26.097656 31.261719 26.097656 31.261719 C 26.070312 31.246094 26.027344 31.210938 25.96875 31.15625 C 25.910156 31.109375 25.835938 31.042969 25.753906 30.96875 C 25.714844 30.933594 25.671875 30.894531 25.625 30.855469 C 25.578125 30.816406 25.53125 30.777344 25.480469 30.734375 C 25.382812 30.652344 25.28125 30.566406 25.175781 30.488281 C 25.125 30.449219 25.074219 30.410156 25.023438 30.371094 C 24.972656 30.332031 24.925781 30.292969 24.875 30.261719 C 24.777344 30.195312 24.6875 30.132812 24.609375 30.078125 C 24.589844 30.066406 24.574219 30.050781 24.554688 30.039062 C 24.539062 30.027344 24.519531 30.019531 24.503906 30.007812 C 24.472656 29.988281 24.445312 29.96875 24.421875 29.957031 C 24.375 29.929688 24.351562 29.910156 24.351562 29.910156 C 24.433594 29.953125 24.507812 29.988281 24.566406 30.015625 C 24.628906 30.042969 24.675781 30.066406 24.71875 30.082031 C 24.796875 30.117188 24.84375 30.125 24.859375 30.113281 C 24.875 30.101562 24.863281 30.066406 24.835938 30.019531 C 24.820312 29.996094 24.800781 29.96875 24.777344 29.941406 C 24.753906 29.910156 24.730469 29.878906 24.699219 29.847656 C 24.636719 29.78125 24.566406 29.710938 24.496094 29.640625 C 24.457031 29.605469 24.425781 29.570312 24.386719 29.539062 C 24.347656 29.507812 24.3125 29.476562 24.28125 29.449219 C 24.210938 29.390625 24.152344 29.339844 24.109375 29.304688 C 24.066406 29.269531 24.039062 29.25 24.039062 29.25 C 23.515625 28.800781 22.925781 28.378906 22.277344 28.007812 C 22.238281 27.984375 22.199219 27.964844 22.15625 27.941406 L 22.03125 27.875 L 21.910156 27.808594 L 21.785156 27.746094 C 21.699219 27.703125 21.613281 27.664062 21.527344 27.621094 L 21.433594 27.574219 L 21.398438 27.5625 L 21.269531 27.507812 L 21.007812 27.390625 L 20.738281 27.289062 L 20.601562 27.238281 L 20.570312 27.226562 L 20.535156 27.214844 L 20.46875 27.191406 C 20.375 27.164062 20.285156 27.132812 20.191406 27.101562 L 20.125 27.078125 L 20.054688 27.058594 L 19.917969 27.019531 C 19.824219 26.996094 19.730469 26.96875 19.636719 26.941406 C 19.542969 26.921875 19.449219 26.898438 19.355469 26.878906 C 19.308594 26.867188 19.261719 26.855469 19.214844 26.84375 C 19.167969 26.832031 19.121094 26.828125 19.074219 26.816406 C 18.882812 26.78125 18.695312 26.742188 18.503906 26.71875 C 18.410156 26.707031 18.3125 26.695312 18.21875 26.679688 C 18.125 26.671875 18.027344 26.664062 17.933594 26.652344 C 17.175781 26.585938 16.421875 26.597656 15.714844 26.675781 C 15.007812 26.761719 14.347656 26.910156 13.761719 27.09375 C 13.175781 27.277344 12.664062 27.496094 12.246094 27.695312 C 12.042969 27.800781 11.851562 27.890625 11.695312 27.988281 C 11.535156 28.078125 11.398438 28.15625 11.289062 28.226562 C 11.183594 28.296875 11.097656 28.347656 11.042969 28.386719 C 11.011719 28.402344 10.992188 28.417969 10.976562 28.425781 C 10.960938 28.4375 10.957031 28.441406 10.957031 28.441406 C 10.859375 28.511719 10.765625 28.582031 10.671875 28.652344 C 10.625 28.6875 10.578125 28.71875 10.53125 28.757812 C 10.484375 28.792969 10.441406 28.832031 10.394531 28.867188 C 10.304688 28.941406 10.210938 29.015625 10.121094 29.089844 C 10.035156 29.167969 9.945312 29.246094 9.859375 29.324219 C 9.816406 29.363281 9.769531 29.402344 9.730469 29.445312 C 9.6875 29.484375 9.644531 29.527344 9.605469 29.566406 C 9.519531 29.648438 9.433594 29.730469 9.355469 29.816406 C 9.273438 29.902344 9.195312 29.988281 9.113281 30.074219 C 9.074219 30.117188 9.035156 30.160156 8.996094 30.203125 C 8.957031 30.246094 8.921875 30.292969 8.882812 30.335938 C 8.808594 30.425781 8.730469 30.519531 8.65625 30.605469 C 8.585938 30.699219 8.515625 30.792969 8.445312 30.886719 C 8.410156 30.933594 8.375 30.980469 8.339844 31.027344 C 8.304688 31.074219 8.273438 31.121094 8.238281 31.171875 C 8.171875 31.269531 8.105469 31.363281 8.039062 31.460938 C 7.976562 31.558594 7.917969 31.660156 7.855469 31.757812 C 7.792969 31.859375 7.730469 31.957031 7.675781 32.058594 C 7.617188 32.164062 7.5625 32.265625 7.507812 32.367188 L 7.464844 32.445312 C 7.449219 32.46875 7.4375 32.496094 7.425781 32.523438 C 7.398438 32.574219 7.375 32.625 7.347656 32.679688 C 6.9375 33.515625 6.628906 34.402344 6.441406 35.304688 C 6.246094 36.207031 6.164062 37.125 6.183594 38.035156 C 6.1875 38.09375 6.1875 38.148438 6.1875 38.207031 C 6.1875 38.261719 6.195312 38.320312 6.199219 38.375 C 6.203125 38.488281 6.214844 38.601562 6.222656 38.714844 C 6.226562 38.773438 6.226562 38.828125 6.234375 38.886719 C 6.242188 38.941406 6.246094 38.996094 6.253906 39.054688 C 6.269531 39.167969 6.28125 39.277344 6.296875 39.390625 C 6.300781 39.445312 6.3125 39.503906 6.320312 39.558594 C 6.332031 39.613281 6.339844 39.667969 6.351562 39.726562 C 6.371094 39.835938 6.390625 39.945312 6.410156 40.058594 C 6.433594 40.167969 6.460938 40.277344 6.484375 40.386719 C 6.496094 40.441406 6.511719 40.496094 6.523438 40.550781 C 6.535156 40.605469 6.546875 40.660156 6.5625 40.710938 C 6.792969 41.578125 7.121094 42.40625 7.527344 43.175781 C 7.933594 43.949219 8.417969 44.664062 8.964844 45.308594 C 9.511719 45.953125 10.117188 46.527344 10.765625 47.023438 C 11.410156 47.519531 12.097656 47.9375 12.804688 48.277344 C 13.511719 48.617188 14.238281 48.875 14.960938 49.058594 C 15.6875 49.238281 16.414062 49.339844 17.117188 49.375 C 17.207031 49.378906 17.292969 49.382812 17.382812 49.386719 C 17.425781 49.386719 17.46875 49.390625 17.511719 49.390625 C 17.554688 49.394531 17.601562 49.390625 17.644531 49.390625 C 17.816406 49.386719 17.988281 49.386719 18.160156 49.378906 C 18.203125 49.378906 18.246094 49.375 18.289062 49.371094 C 18.332031 49.371094 18.375 49.367188 18.414062 49.363281 C 18.5 49.355469 18.585938 49.351562 18.667969 49.34375 C 18.710938 49.339844 18.753906 49.335938 18.792969 49.332031 C 18.835938 49.328125 18.878906 49.324219 18.917969 49.320312 C 19.003906 49.308594 19.085938 49.296875 19.167969 49.285156 C 19.25 49.273438 19.332031 49.261719 19.414062 49.25 C 19.453125 49.242188 19.496094 49.238281 19.535156 49.230469 C 19.578125 49.222656 19.617188 49.214844 19.65625 49.207031 C 19.816406 49.175781 19.976562 49.140625 20.136719 49.109375 C 20.292969 49.070312 20.445312 49.027344 20.597656 48.984375 C 20.636719 48.976562 20.675781 48.964844 20.714844 48.953125 C 20.753906 48.941406 20.789062 48.933594 20.828125 48.917969 C 20.902344 48.894531 20.976562 48.871094 21.050781 48.84375 C 21.125 48.820312 21.199219 48.792969 21.273438 48.769531 C 21.308594 48.757812 21.34375 48.746094 21.382812 48.730469 C 21.417969 48.71875 21.453125 48.703125 21.488281 48.6875 C 21.632812 48.632812 21.773438 48.574219 21.910156 48.515625 C 21.980469 48.488281 22.050781 48.453125 22.117188 48.421875 C 22.183594 48.390625 22.25 48.355469 22.316406 48.324219 C 22.382812 48.292969 22.449219 48.257812 22.515625 48.226562 C 22.582031 48.191406 22.644531 48.15625 22.710938 48.121094 C 22.835938 48.050781 22.960938 47.980469 23.085938 47.90625 C 23.207031 47.832031 23.324219 47.753906 23.441406 47.675781 C 23.5 47.636719 23.558594 47.601562 23.617188 47.558594 C 23.671875 47.519531 23.726562 47.476562 23.78125 47.4375 C 23.894531 47.351562 24.003906 47.273438 24.105469 47.1875 C 24.210938 47.101562 24.3125 47.015625 24.414062 46.929688 C 24.460938 46.886719 24.511719 46.84375 24.558594 46.800781 C 24.605469 46.753906 24.65625 46.710938 24.703125 46.664062 C 24.792969 46.574219 24.886719 46.484375 24.976562 46.394531 C 25.0625 46.300781 25.144531 46.207031 25.226562 46.117188 C 25.886719 45.375 26.359375 44.582031 26.683594 43.816406 C 27.003906 43.046875 27.171875 42.300781 27.234375 41.621094 C 27.246094 41.449219 27.261719 41.285156 27.257812 41.121094 C 27.257812 41.039062 27.257812 40.957031 27.257812 40.878906 C 27.257812 40.839844 27.257812 40.800781 27.257812 40.761719 C 27.253906 40.722656 27.25 40.683594 27.25 40.644531 C 27.238281 40.488281 27.222656 40.339844 27.207031 40.195312 C 27.183594 40.050781 27.160156 39.910156 27.132812 39.773438 C 27.109375 39.640625 27.074219 39.503906 27.039062 39.378906 C 27.019531 39.316406 27.003906 39.253906 26.984375 39.195312 C 26.976562 39.164062 26.96875 39.132812 26.957031 39.105469 C 26.945312 39.074219 26.933594 39.042969 26.925781 39.015625 C 26.882812 38.898438 26.839844 38.785156 26.792969 38.679688 C 26.78125 38.652344 26.773438 38.625 26.761719 38.601562 C 26.75 38.574219 26.734375 38.546875 26.722656 38.523438 C 26.699219 38.46875 26.675781 38.421875 26.648438 38.371094 C 26.601562 38.273438 26.550781 38.179688 26.5 38.089844 C 26.445312 38 26.394531 37.917969 26.339844 37.835938 C 26.289062 37.753906 26.234375 37.679688 26.183594 37.609375 C 26.128906 37.535156 26.074219 37.46875 26.019531 37.402344 C 25.914062 37.273438 25.816406 37.164062 25.710938 37.0625 C 25.609375 36.960938 25.515625 36.875 25.429688 36.800781 C 25.390625 36.765625 25.34375 36.730469 25.304688 36.699219 C 25.265625 36.667969 25.226562 36.640625 25.191406 36.613281 C 25.121094 36.558594 25.058594 36.519531 25.007812 36.484375 C 24.910156 36.417969 24.855469 36.386719 24.855469 36.386719 C 25.121094 36.492188 25.394531 36.625 25.664062 36.789062 C 25.792969 36.871094 25.921875 36.964844 26.050781 37.0625 C 26.117188 37.113281 26.183594 37.167969 26.246094 37.21875 C 26.304688 37.273438 26.367188 37.332031 26.429688 37.390625 C 26.488281 37.445312 26.550781 37.507812 26.609375 37.570312 C 26.667969 37.632812 26.730469 37.699219 26.785156 37.765625 C 26.894531 37.898438 27.003906 38.039062 27.109375 38.1875 C 27.136719 38.226562 27.160156 38.265625 27.1875 38.300781 C 27.210938 38.339844 27.234375 38.378906 27.257812 38.417969 C 27.308594 38.496094 27.355469 38.578125 27.402344 38.660156 C 27.425781 38.699219 27.449219 38.742188 27.472656 38.785156 C 27.492188 38.828125 27.511719 38.871094 27.535156 38.910156 C 27.574219 38.996094 27.617188 39.085938 27.65625 39.175781 C 27.96875 39.886719 28.15625 40.707031 28.199219 41.558594 C 28.242188 42.414062 28.140625 43.296875 27.914062 44.128906 C 27.691406 44.960938 27.347656 45.742188 26.957031 46.410156 C 26.765625 46.75 26.554688 47.050781 26.355469 47.332031 C 26.144531 47.601562 25.945312 47.855469 25.75 48.0625 C 25.652344 48.167969 25.558594 48.269531 25.472656 48.359375 C 25.382812 48.449219 25.296875 48.527344 25.21875 48.601562 C 25.136719 48.675781 25.066406 48.742188 25 48.796875 C 24.96875 48.828125 24.933594 48.851562 24.90625 48.875 C 24.875 48.898438 24.847656 48.921875 24.820312 48.941406 C 24.613281 49.09375 24.542969 49.117188 24.644531 48.984375 C 24.746094 48.851562 24.8125 48.734375 24.851562 48.636719 C 24.886719 48.535156 24.894531 48.449219 24.882812 48.375 C 24.859375 48.230469 24.757812 48.140625 24.636719 48.085938 C 24.515625 48.03125 24.371094 48.003906 24.261719 47.992188 C 24.148438 47.976562 24.066406 47.980469 24.066406 47.980469 C 24.007812 48.046875 23.945312 48.117188 23.882812 48.183594 C 23.820312 48.25 23.753906 48.3125 23.6875 48.375 C 23.617188 48.441406 23.550781 48.503906 23.480469 48.566406 C 23.445312 48.597656 23.414062 48.632812 23.375 48.660156 C 23.339844 48.691406 23.304688 48.722656 23.269531 48.75 C 23.121094 48.867188 22.972656 48.988281 22.816406 49.101562 C 22.660156 49.207031 22.5 49.316406 22.335938 49.417969 C 21.675781 49.824219 20.945312 50.144531 20.191406 50.375 C 20.003906 50.429688 19.8125 50.484375 19.625 50.53125 C 19.433594 50.574219 19.242188 50.617188 19.050781 50.652344 C 19.003906 50.660156 18.953125 50.671875 18.90625 50.679688 C 18.859375 50.6875 18.8125 50.695312 18.761719 50.699219 C 18.667969 50.714844 18.574219 50.726562 18.476562 50.738281 C 18.382812 50.753906 18.289062 50.765625 18.191406 50.773438 C 18.097656 50.78125 18.003906 50.789062 17.90625 50.796875 C 17.8125 50.804688 17.71875 50.808594 17.625 50.816406 C 17.578125 50.816406 17.53125 50.820312 17.484375 50.824219 C 17.4375 50.824219 17.390625 50.824219 17.34375 50.824219 C 17.160156 50.828125 16.972656 50.828125 16.792969 50.824219 L 16.722656 50.824219 L 16.65625 50.820312 C 16.609375 50.816406 16.5625 50.8125 16.519531 50.8125 C 16.429688 50.804688 16.339844 50.800781 16.25 50.792969 C 16.160156 50.789062 16.074219 50.78125 15.984375 50.773438 C 15.898438 50.761719 15.8125 50.753906 15.726562 50.742188 C 15.640625 50.730469 15.554688 50.71875 15.46875 50.707031 C 15.429688 50.703125 15.386719 50.695312 15.34375 50.691406 C 15.300781 50.683594 15.261719 50.679688 15.21875 50.671875 C 15.054688 50.640625 14.894531 50.609375 14.738281 50.578125 C 14.699219 50.570312 14.660156 50.5625 14.621094 50.554688 C 14.582031 50.546875 14.542969 50.535156 14.503906 50.527344 C 14.429688 50.507812 14.355469 50.488281 14.28125 50.46875 C 14.132812 50.429688 13.988281 50.394531 13.847656 50.351562 C 13.707031 50.308594 13.574219 50.265625 13.445312 50.222656 C 13.378906 50.203125 13.316406 50.179688 13.253906 50.160156 C 13.222656 50.148438 13.191406 50.140625 13.160156 50.128906 C 13.132812 50.117188 13.101562 50.105469 13.070312 50.09375 C 12.953125 50.046875 12.839844 50.003906 12.730469 49.957031 C 12.621094 49.914062 12.519531 49.875 12.421875 49.828125 C 12.230469 49.738281 12.054688 49.65625 11.90625 49.585938 C 11.757812 49.507812 11.632812 49.4375 11.53125 49.382812 C 11.429688 49.328125 11.351562 49.285156 11.296875 49.253906 C 11.246094 49.222656 11.21875 49.207031 11.21875 49.207031 C 11.414062 49.289062 11.601562 49.347656 11.78125 49.398438 C 11.824219 49.410156 11.867188 49.421875 11.910156 49.433594 C 11.953125 49.441406 12 49.449219 12.042969 49.457031 C 12.125 49.472656 12.207031 49.484375 12.289062 49.496094 C 12.367188 49.503906 12.445312 49.511719 12.519531 49.515625 C 12.59375 49.519531 12.664062 49.523438 12.734375 49.519531 C 12.871094 49.515625 12.996094 49.507812 13.109375 49.492188 C 13.21875 49.476562 13.316406 49.457031 13.402344 49.4375 C 13.488281 49.417969 13.5625 49.394531 13.617188 49.371094 C 13.734375 49.332031 13.796875 49.296875 13.796875 49.296875 C 13.503906 49.265625 13.222656 49.210938 12.941406 49.160156 C 12.90625 49.152344 12.871094 49.144531 12.835938 49.140625 C 12.800781 49.132812 12.765625 49.125 12.734375 49.117188 C 12.664062 49.097656 12.597656 49.082031 12.527344 49.066406 C 12.390625 49.03125 12.257812 49 12.125 48.960938 C 11.992188 48.921875 11.863281 48.882812 11.730469 48.839844 C 11.667969 48.820312 11.601562 48.800781 11.539062 48.78125 C 11.472656 48.757812 11.414062 48.734375 11.351562 48.710938 C 11.101562 48.617188 10.851562 48.527344 10.621094 48.417969 C 9.675781 48 8.855469 47.492188 8.160156 46.953125 C 8.074219 46.886719 7.988281 46.816406 7.902344 46.75 C 7.820312 46.683594 7.738281 46.613281 7.660156 46.542969 C 7.503906 46.40625 7.34375 46.269531 7.203125 46.128906 C 7.132812 46.058594 7.0625 45.988281 6.992188 45.921875 C 6.957031 45.886719 6.921875 45.851562 6.890625 45.816406 C 6.871094 45.800781 6.855469 45.78125 6.835938 45.765625 C 6.820312 45.746094 6.804688 45.730469 6.789062 45.710938 C 6.660156 45.570312 6.535156 45.433594 6.414062 45.296875 C 6.355469 45.230469 6.300781 45.160156 6.242188 45.089844 C 6.1875 45.023438 6.132812 44.953125 6.082031 44.886719 C 6.027344 44.820312 5.976562 44.753906 5.921875 44.6875 C 5.875 44.621094 5.828125 44.554688 5.78125 44.488281 C 5.6875 44.355469 5.597656 44.226562 5.511719 44.101562 C 5.429688 43.972656 5.351562 43.847656 5.277344 43.726562 C 5.121094 43.484375 5 43.246094 4.882812 43.027344 C 4.855469 42.972656 4.828125 42.917969 4.800781 42.867188 C 4.773438 42.8125 4.75 42.761719 4.726562 42.710938 C 4.675781 42.605469 4.632812 42.507812 4.589844 42.410156 C 4.566406 42.363281 4.546875 42.316406 4.527344 42.269531 C 4.507812 42.222656 4.488281 42.179688 4.46875 42.132812 C 4.433594 42.046875 4.402344 41.960938 4.371094 41.878906 C 4.34375 41.800781 4.3125 41.722656 4.285156 41.648438 C 4.261719 41.578125 4.234375 41.507812 4.214844 41.445312 C 4.132812 41.183594 4.078125 40.988281 4.042969 40.859375 C 4.027344 40.796875 4.015625 40.746094 4.011719 40.714844 C 4.003906 40.683594 4 40.667969 4 40.667969 C 4.019531 40.707031 4.035156 40.742188 4.054688 40.773438 C 4.070312 40.808594 4.089844 40.839844 4.105469 40.867188 C 4.140625 40.921875 4.167969 40.96875 4.195312 41.007812 C 4.253906 41.085938 4.296875 41.128906 4.332031 41.144531 C 4.402344 41.183594 4.433594 41.121094 4.445312 41.023438 C 4.460938 40.925781 4.453125 40.792969 4.441406 40.683594 C 4.433594 40.574219 4.425781 40.488281 4.425781 40.488281 C 4.398438 40.390625 4.371094 40.296875 4.34375 40.203125 C 4.328125 40.15625 4.316406 40.105469 4.304688 40.0625 C 4.289062 40.015625 4.277344 39.96875 4.265625 39.921875 C 4.222656 39.734375 4.179688 39.550781 4.140625 39.371094 C 4.121094 39.28125 4.109375 39.191406 4.09375 39.105469 C 4.078125 39.015625 4.0625 38.929688 4.050781 38.84375 C 4.035156 38.757812 4.023438 38.671875 4.007812 38.585938 C 3.996094 38.5 3.988281 38.417969 3.980469 38.335938 C 3.960938 38.167969 3.945312 38.007812 3.929688 37.847656 C 3.921875 37.691406 3.914062 37.535156 3.910156 37.386719 C 3.90625 37.3125 3.902344 37.238281 3.902344 37.164062 C 3.898438 37.089844 3.902344 37.019531 3.902344 36.945312 C 3.902344 36.804688 3.90625 36.664062 3.910156 36.53125 C 3.910156 36.394531 3.921875 36.265625 3.929688 36.136719 C 3.941406 36.011719 3.949219 35.886719 3.960938 35.769531 C 3.96875 35.648438 3.988281 35.53125 4.003906 35.421875 C 4.019531 35.308594 4.035156 35.199219 4.050781 35.09375 C 4.058594 35.042969 4.066406 34.988281 4.074219 34.9375 C 4.085938 34.886719 4.09375 34.839844 4.105469 34.789062 C 4.125 34.691406 4.144531 34.597656 4.164062 34.503906 C 4.183594 34.414062 4.203125 34.328125 4.222656 34.242188 C 4.246094 34.160156 4.265625 34.078125 4.289062 34 C 4.332031 33.84375 4.371094 33.703125 4.410156 33.570312 C 4.453125 33.441406 4.496094 33.324219 4.535156 33.214844 C 4.574219 33.109375 4.609375 33.015625 4.640625 32.929688 C 4.675781 32.84375 4.710938 32.769531 4.738281 32.703125 C 4.855469 32.445312 4.914062 32.335938 4.914062 32.335938 C 4.882812 32.464844 4.851562 32.585938 4.824219 32.710938 C 4.808594 32.769531 4.796875 32.828125 4.785156 32.890625 C 4.769531 32.949219 4.761719 33.007812 4.75 33.066406 C 4.730469 33.183594 4.710938 33.296875 4.691406 33.410156 C 4.683594 33.464844 4.675781 33.519531 4.667969 33.574219 C 4.65625 33.628906 4.652344 33.683594 4.648438 33.734375 C 4.628906 33.949219 4.609375 34.152344 4.597656 34.339844 C 4.59375 34.53125 4.59375 34.714844 4.59375 34.882812 C 4.597656 34.925781 4.59375 34.96875 4.597656 35.007812 C 4.601562 35.050781 4.601562 35.089844 4.605469 35.128906 C 4.609375 35.210938 4.617188 35.289062 4.625 35.363281 C 4.628906 35.4375 4.636719 35.507812 4.644531 35.578125 C 4.648438 35.613281 4.652344 35.648438 4.65625 35.679688 C 4.660156 35.714844 4.667969 35.746094 4.671875 35.78125 C 4.695312 35.910156 4.714844 36.03125 4.738281 36.140625 C 4.75 36.195312 4.761719 36.25 4.773438 36.300781 C 4.785156 36.351562 4.796875 36.398438 4.8125 36.445312 C 4.867188 36.632812 4.921875 36.785156 4.972656 36.910156 C 4.996094 36.976562 5.019531 37.03125 5.042969 37.078125 C 5.066406 37.128906 5.089844 37.171875 5.109375 37.207031 C 5.191406 37.355469 5.242188 37.410156 5.242188 37.410156 C 5.210938 37.304688 5.179688 37.195312 5.152344 37.078125 C 5.125 36.960938 5.101562 36.839844 5.078125 36.71875 C 5.066406 36.652344 5.054688 36.589844 5.042969 36.527344 C 5.03125 36.460938 5.019531 36.398438 5.011719 36.332031 C 4.992188 36.199219 4.980469 36.0625 4.964844 35.921875 C 4.957031 35.851562 4.949219 35.78125 4.941406 35.710938 C 4.941406 35.636719 4.9375 35.566406 4.933594 35.492188 C 4.925781 35.347656 4.921875 35.199219 4.917969 35.046875 C 4.917969 34.894531 4.921875 34.742188 4.925781 34.585938 C 4.929688 34.507812 4.933594 34.429688 4.9375 34.347656 C 4.945312 34.269531 4.949219 34.191406 4.957031 34.113281 C 4.972656 33.953125 4.984375 33.792969 5.007812 33.632812 C 5.03125 33.472656 5.054688 33.308594 5.082031 33.148438 L 5.101562 33.027344 C 5.109375 32.984375 5.117188 32.945312 5.125 32.90625 C 5.144531 32.824219 5.160156 32.742188 5.179688 32.664062 C 5.214844 32.5 5.25 32.339844 5.296875 32.179688 C 5.339844 32.023438 5.386719 31.863281 5.433594 31.703125 C 5.484375 31.546875 5.539062 31.390625 5.59375 31.238281 C 5.644531 31.082031 5.707031 30.933594 5.769531 30.78125 C 5.800781 30.707031 5.832031 30.632812 5.859375 30.558594 C 5.875 30.523438 5.890625 30.488281 5.90625 30.449219 C 5.925781 30.414062 5.941406 30.378906 5.957031 30.34375 C 6.027344 30.199219 6.09375 30.058594 6.160156 29.917969 L 6.214844 29.816406 C 6.234375 29.785156 6.25 29.75 6.269531 29.714844 C 6.304688 29.648438 6.34375 29.582031 6.378906 29.519531 C 6.414062 29.453125 6.449219 29.386719 6.484375 29.324219 C 6.523438 29.257812 6.5625 29.199219 6.597656 29.136719 C 6.675781 29.015625 6.75 28.894531 6.824219 28.777344 C 6.859375 28.71875 6.898438 28.664062 6.9375 28.609375 C 6.976562 28.554688 7.011719 28.5 7.050781 28.445312 C 7.089844 28.394531 7.125 28.339844 7.164062 28.289062 C 7.199219 28.238281 7.234375 28.183594 7.273438 28.136719 C 7.347656 28.039062 7.421875 27.949219 7.492188 27.859375 C 7.5625 27.769531 7.628906 27.679688 7.699219 27.605469 C 7.835938 27.445312 7.960938 27.304688 8.070312 27.179688 C 8.1875 27.0625 8.285156 26.957031 8.367188 26.875 C 8.449219 26.792969 8.511719 26.726562 8.558594 26.683594 C 8.605469 26.640625 8.628906 26.621094 8.628906 26.621094 C 8.628906 26.621094 8.625 26.664062 8.625 26.734375 C 8.621094 26.800781 8.621094 26.894531 8.621094 26.988281 C 8.621094 27.171875 8.628906 27.351562 8.628906 27.351562 C 9.054688 26.925781 9.5 26.570312 9.929688 26.253906 C 10.042969 26.179688 10.148438 26.105469 10.257812 26.03125 C 10.308594 25.996094 10.363281 25.960938 10.417969 25.925781 C 10.46875 25.894531 10.523438 25.859375 10.578125 25.828125 C 10.683594 25.761719 10.789062 25.699219 10.890625 25.640625 C 10.941406 25.609375 10.996094 25.582031 11.046875 25.554688 C 11.101562 25.527344 11.152344 25.5 11.203125 25.472656 C 12.023438 25.042969 12.761719 24.789062 13.363281 24.625 C 13.515625 24.585938 13.65625 24.550781 13.789062 24.515625 C 13.855469 24.5 13.921875 24.488281 13.984375 24.476562 C 14.046875 24.464844 14.109375 24.453125 14.164062 24.441406 C 14.28125 24.421875 14.390625 24.398438 14.484375 24.386719 C 14.585938 24.371094 14.671875 24.359375 14.753906 24.351562 C 14.910156 24.332031 15.027344 24.320312 15.109375 24.3125 C 15.191406 24.308594 15.230469 24.304688 15.230469 24.304688 C 14.371094 24.464844 13.597656 24.734375 12.949219 25.050781 C 12.78125 25.125 12.628906 25.210938 12.480469 25.289062 C 12.40625 25.332031 12.335938 25.371094 12.265625 25.410156 C 12.195312 25.453125 12.125 25.496094 12.058594 25.539062 C 11.996094 25.582031 11.929688 25.625 11.867188 25.664062 C 11.804688 25.707031 11.742188 25.746094 11.683594 25.789062 C 11.566406 25.875 11.457031 25.957031 11.355469 26.035156 C 11.328125 26.054688 11.300781 26.074219 11.277344 26.09375 C 11.253906 26.113281 11.230469 26.136719 11.203125 26.15625 C 11.15625 26.195312 11.113281 26.234375 11.066406 26.273438 C 10.980469 26.347656 10.898438 26.421875 10.824219 26.488281 C 10.675781 26.632812 10.554688 26.757812 10.457031 26.859375 C 10.433594 26.882812 10.410156 26.90625 10.390625 26.929688 C 10.371094 26.953125 10.351562 26.976562 10.335938 26.996094 C 10.300781 27.039062 10.269531 27.070312 10.246094 27.101562 C 10.199219 27.15625 10.175781 27.1875 10.175781 27.1875 C 10.246094 27.121094 10.328125 27.054688 10.410156 26.984375 C 10.496094 26.917969 10.589844 26.855469 10.683594 26.792969 C 10.734375 26.761719 10.78125 26.730469 10.828125 26.699219 C 10.878906 26.667969 10.925781 26.636719 10.972656 26.609375 C 11.074219 26.554688 11.167969 26.5 11.261719 26.453125 C 11.441406 26.351562 11.613281 26.277344 11.734375 26.222656 C 11.855469 26.167969 11.929688 26.140625 11.929688 26.140625 C 11.890625 26.1875 11.789062 26.277344 11.636719 26.394531 C 11.597656 26.425781 11.554688 26.457031 11.511719 26.488281 C 11.46875 26.523438 11.425781 26.558594 11.378906 26.597656 C 11.285156 26.675781 11.179688 26.757812 11.070312 26.847656 C 10.960938 26.9375 10.84375 27.039062 10.726562 27.140625 C 10.695312 27.164062 10.664062 27.191406 10.636719 27.21875 C 10.605469 27.246094 10.578125 27.273438 10.546875 27.300781 C 10.488281 27.355469 10.425781 27.414062 10.363281 27.46875 C 10.332031 27.5 10.300781 27.527344 10.273438 27.558594 L 10.179688 27.644531 C 10.121094 27.707031 10.058594 27.769531 10 27.832031 C 9.9375 27.894531 9.875 27.953125 9.816406 28.019531 C 9.757812 28.082031 9.699219 28.148438 9.640625 28.214844 C 9.582031 28.277344 9.527344 28.34375 9.46875 28.40625 C 9.410156 28.472656 9.359375 28.539062 9.304688 28.605469 C 9.199219 28.738281 9.089844 28.863281 8.996094 28.996094 C 8.949219 29.058594 8.902344 29.121094 8.859375 29.183594 C 8.835938 29.214844 8.8125 29.246094 8.789062 29.277344 C 8.769531 29.304688 8.746094 29.335938 8.726562 29.367188 C 8.644531 29.488281 8.570312 29.601562 8.5 29.707031 C 8.429688 29.8125 8.371094 29.914062 8.320312 30 C 8.265625 30.089844 8.21875 30.164062 8.183594 30.226562 C 8.144531 30.289062 8.117188 30.339844 8.101562 30.375 C 8.082031 30.410156 8.070312 30.425781 8.070312 30.425781 C 8.070312 30.425781 8.097656 30.398438 8.148438 30.335938 C 8.171875 30.308594 8.203125 30.273438 8.238281 30.230469 C 8.277344 30.1875 8.320312 30.136719 8.367188 30.082031 C 8.414062 30.023438 8.46875 29.960938 8.523438 29.894531 C 8.582031 29.824219 8.648438 29.75 8.714844 29.671875 C 8.785156 29.59375 8.855469 29.507812 8.9375 29.417969 C 9.019531 29.328125 9.105469 29.234375 9.191406 29.132812 C 9.554688 28.742188 10 28.273438 10.542969 27.78125 C 11.082031 27.289062 11.722656 26.765625 12.472656 26.265625 C 12.65625 26.132812 12.855469 26.023438 13.046875 25.910156 C 13.144531 25.855469 13.246094 25.804688 13.34375 25.757812 C 13.445312 25.707031 13.542969 25.65625 13.644531 25.609375 C 13.746094 25.566406 13.847656 25.523438 13.949219 25.480469 C 14 25.460938 14.050781 25.441406 14.097656 25.417969 L 14.175781 25.390625 L 14.25 25.363281 C 14.351562 25.328125 14.453125 25.292969 14.554688 25.257812 C 14.605469 25.242188 14.65625 25.222656 14.707031 25.207031 C 14.757812 25.191406 14.808594 25.179688 14.859375 25.164062 C 15.664062 24.933594 16.433594 24.835938 17.089844 24.808594 C 17.253906 24.804688 17.414062 24.800781 17.5625 24.800781 C 17.597656 24.796875 17.636719 24.800781 17.671875 24.800781 C 17.707031 24.804688 17.742188 24.804688 17.777344 24.804688 C 17.847656 24.808594 17.917969 24.8125 17.984375 24.816406 C 18.050781 24.816406 18.113281 24.820312 18.175781 24.824219 C 18.238281 24.828125 18.296875 24.835938 18.351562 24.839844 C 18.464844 24.851562 18.570312 24.863281 18.664062 24.875 C 18.710938 24.878906 18.753906 24.882812 18.796875 24.886719 C 18.835938 24.894531 18.875 24.902344 18.914062 24.90625 C 18.984375 24.917969 19.046875 24.929688 19.09375 24.9375 C 19.195312 24.953125 19.246094 24.964844 19.246094 24.964844 C 19.390625 25.003906 19.417969 25.039062 19.378906 25.0625 C 19.34375 25.089844 19.242188 25.109375 19.125 25.128906 C 19.007812 25.148438 18.875 25.160156 18.769531 25.171875 C 18.664062 25.1875 18.589844 25.195312 18.589844 25.195312 C 18.65625 25.195312 18.730469 25.195312 18.800781 25.203125 C 18.871094 25.207031 18.941406 25.214844 19.015625 25.222656 C 19.085938 25.230469 19.15625 25.242188 19.230469 25.25 C 19.265625 25.257812 19.300781 25.261719 19.335938 25.265625 C 19.371094 25.273438 19.40625 25.28125 19.441406 25.289062 C 19.582031 25.316406 19.71875 25.347656 19.851562 25.378906 C 19.867188 25.382812 19.882812 25.386719 19.902344 25.390625 C 19.917969 25.394531 19.933594 25.398438 19.949219 25.402344 C 19.980469 25.414062 20.011719 25.421875 20.042969 25.433594 C 20.105469 25.449219 20.164062 25.46875 20.222656 25.488281 C 20.453125 25.554688 20.644531 25.636719 20.78125 25.6875 C 20.847656 25.714844 20.902344 25.738281 20.9375 25.75 C 20.976562 25.769531 20.996094 25.777344 20.996094 25.777344 C 21.105469 25.804688 21.214844 25.835938 21.328125 25.867188 C 21.382812 25.882812 21.441406 25.898438 21.496094 25.917969 C 21.550781 25.9375 21.609375 25.957031 21.664062 25.976562 C 21.777344 26.015625 21.890625 26.054688 22 26.101562 C 22.109375 26.148438 22.21875 26.195312 22.328125 26.246094 C 22.382812 26.269531 22.4375 26.292969 22.492188 26.320312 C 22.542969 26.34375 22.597656 26.371094 22.648438 26.398438 C 22.75 26.453125 22.855469 26.503906 22.953125 26.558594 C 23.050781 26.617188 23.144531 26.675781 23.238281 26.730469 C 23.285156 26.757812 23.332031 26.785156 23.375 26.8125 C 23.421875 26.839844 23.464844 26.871094 23.507812 26.898438 C 23.675781 27.015625 23.832031 27.117188 23.964844 27.222656 C 24.03125 27.273438 24.097656 27.320312 24.15625 27.367188 C 24.183594 27.390625 24.210938 27.410156 24.238281 27.433594 C 24.265625 27.453125 24.289062 27.476562 24.3125 27.496094 C 24.5 27.65625 24.613281 27.75 24.613281 27.75 C 24.21875 27.488281 23.738281 27.203125 23.226562 26.953125 C 23.097656 26.890625 22.96875 26.832031 22.839844 26.769531 C 22.707031 26.71875 22.578125 26.664062 22.449219 26.609375 C 22.414062 26.597656 22.382812 26.582031 22.351562 26.570312 C 22.316406 26.558594 22.285156 26.546875 22.253906 26.535156 C 22.1875 26.511719 22.121094 26.488281 22.058594 26.464844 C 21.996094 26.445312 21.929688 26.421875 21.867188 26.398438 C 21.804688 26.378906 21.742188 26.359375 21.679688 26.339844 C 21.617188 26.324219 21.554688 26.304688 21.496094 26.289062 C 21.464844 26.277344 21.4375 26.269531 21.40625 26.261719 C 21.390625 26.253906 21.375 26.25 21.363281 26.246094 C 21.347656 26.242188 21.332031 26.238281 21.316406 26.234375 C 21.199219 26.207031 21.085938 26.179688 20.980469 26.152344 C 20.925781 26.140625 20.875 26.125 20.824219 26.117188 C 20.773438 26.105469 20.722656 26.097656 20.675781 26.085938 C 20.582031 26.066406 20.492188 26.050781 20.410156 26.035156 C 20.332031 26.019531 20.257812 26.011719 20.191406 26 C 20.128906 25.992188 20.074219 25.984375 20.027344 25.976562 C 19.9375 25.964844 19.890625 25.957031 19.890625 25.957031 C 19.972656 25.972656 20.058594 25.992188 20.136719 26.011719 C 20.175781 26.023438 20.214844 26.03125 20.253906 26.042969 C 20.292969 26.050781 20.332031 26.0625 20.371094 26.074219 C 20.515625 26.117188 20.648438 26.164062 20.761719 26.199219 C 20.789062 26.210938 20.816406 26.21875 20.839844 26.230469 C 20.867188 26.238281 20.890625 26.25 20.910156 26.257812 C 20.957031 26.277344 20.996094 26.289062 21.023438 26.304688 C 21.085938 26.332031 21.121094 26.34375 21.121094 26.34375 C 20.886719 26.3125 20.53125 26.253906 20.136719 26.203125 C 20.035156 26.191406 19.933594 26.179688 19.828125 26.167969 C 19.777344 26.160156 19.726562 26.160156 19.671875 26.15625 C 19.621094 26.152344 19.566406 26.148438 19.511719 26.144531 C 19.460938 26.140625 19.40625 26.136719 19.355469 26.132812 L 19.273438 26.125 C 19.246094 26.125 19.222656 26.125 19.195312 26.121094 C 19.089844 26.121094 18.984375 26.117188 18.878906 26.113281 C 18.828125 26.113281 18.777344 26.109375 18.726562 26.109375 C 18.675781 26.109375 18.625 26.109375 18.574219 26.109375 C 18.476562 26.113281 18.382812 26.113281 18.289062 26.113281 C 18.199219 26.113281 18.113281 26.121094 18.03125 26.125 C 17.949219 26.132812 17.871094 26.136719 17.800781 26.140625 C 17.664062 26.144531 17.550781 26.160156 17.46875 26.167969 C 17.390625 26.175781 17.347656 26.183594 17.347656 26.183594 C 17.441406 26.183594 17.535156 26.1875 17.636719 26.1875 C 17.683594 26.1875 17.734375 26.191406 17.785156 26.195312 C 17.835938 26.195312 17.886719 26.199219 17.9375 26.203125 C 17.988281 26.203125 18.042969 26.207031 18.09375 26.207031 C 18.148438 26.210938 18.203125 26.210938 18.253906 26.214844 C 18.363281 26.226562 18.472656 26.234375 18.582031 26.242188 C 18.640625 26.246094 18.695312 26.246094 18.753906 26.253906 C 18.808594 26.257812 18.867188 26.265625 18.921875 26.273438 C 19.039062 26.285156 19.152344 26.292969 19.269531 26.308594 C 19.503906 26.34375 19.742188 26.371094 19.984375 26.421875 C 20.042969 26.433594 20.101562 26.445312 20.164062 26.457031 C 20.195312 26.460938 20.222656 26.464844 20.253906 26.472656 L 20.34375 26.492188 C 20.464844 26.523438 20.585938 26.550781 20.707031 26.578125 C 20.828125 26.609375 20.945312 26.644531 21.066406 26.675781 C 21.125 26.691406 21.1875 26.707031 21.246094 26.726562 C 21.304688 26.746094 21.363281 26.765625 21.421875 26.785156 C 21.480469 26.804688 21.539062 26.824219 21.597656 26.84375 L 21.6875 26.871094 L 21.773438 26.90625 C 21.886719 26.949219 22.003906 26.992188 22.117188 27.035156 C 22.144531 27.046875 22.171875 27.058594 22.199219 27.070312 C 22.230469 27.082031 22.257812 27.09375 22.285156 27.105469 C 22.339844 27.128906 22.394531 27.152344 22.449219 27.175781 C 22.503906 27.203125 22.558594 27.222656 22.613281 27.25 C 22.667969 27.273438 22.71875 27.300781 22.773438 27.328125 C 23.199219 27.527344 23.582031 27.757812 23.925781 27.976562 C 24.261719 28.199219 24.558594 28.417969 24.792969 28.613281 C 24.851562 28.664062 24.910156 28.710938 24.964844 28.753906 C 25.015625 28.800781 25.066406 28.839844 25.109375 28.882812 C 25.199219 28.964844 25.277344 29.035156 25.339844 29.09375 C 25.375 29.125 25.402344 29.148438 25.425781 29.171875 C 25.449219 29.195312 25.46875 29.214844 25.484375 29.230469 C 25.515625 29.261719 25.53125 29.28125 25.53125 29.28125 C 25.59375 29.355469 25.585938 29.363281 25.539062 29.339844 C 25.515625 29.324219 25.484375 29.300781 25.445312 29.273438 C 25.425781 29.261719 25.40625 29.246094 25.382812 29.230469 C 25.363281 29.210938 25.335938 29.195312 25.3125 29.179688 C 25.21875 29.113281 25.113281 29.039062 25.035156 28.980469 C 25.015625 28.964844 24.996094 28.953125 24.980469 28.941406 C 24.964844 28.929688 24.949219 28.917969 24.9375 28.910156 C 24.910156 28.894531 24.898438 28.882812 24.898438 28.882812 C 24.957031 28.9375 25.019531 29.003906 25.089844 29.074219 C 25.160156 29.144531 25.238281 29.222656 25.320312 29.304688 C 25.398438 29.390625 25.484375 29.480469 25.570312 29.574219 C 25.59375 29.601562 25.617188 29.625 25.640625 29.648438 C 25.660156 29.671875 25.683594 29.699219 25.703125 29.726562 C 25.75 29.777344 25.792969 29.828125 25.839844 29.882812 C 25.863281 29.90625 25.882812 29.933594 25.90625 29.960938 C 25.929688 29.988281 25.953125 30.015625 25.976562 30.042969 C 26.019531 30.101562 26.066406 30.15625 26.109375 30.214844 C 26.15625 30.273438 26.199219 30.332031 26.246094 30.390625 C 26.289062 30.449219 26.332031 30.511719 26.378906 30.570312 C 26.421875 30.632812 26.464844 30.691406 26.507812 30.753906 C 26.550781 30.816406 26.589844 30.878906 26.632812 30.941406 C 26.714844 31.066406 26.796875 31.191406 26.871094 31.320312 C 26.90625 31.382812 26.945312 31.445312 26.980469 31.507812 C 27 31.539062 27.015625 31.566406 27.035156 31.597656 C 27.050781 31.628906 27.066406 31.660156 27.085938 31.691406 C 27.148438 31.816406 27.214844 31.9375 27.273438 32.050781 C 27.328125 32.167969 27.382812 32.28125 27.429688 32.386719 C 27.445312 32.414062 27.457031 32.441406 27.46875 32.464844 C 27.480469 32.492188 27.488281 32.515625 27.5 32.542969 C 27.519531 32.59375 27.542969 32.640625 27.558594 32.6875 C 27.597656 32.78125 27.632812 32.863281 27.664062 32.9375 C 27.691406 33.011719 27.714844 33.078125 27.734375 33.132812 C 27.773438 33.238281 27.792969 33.296875 27.792969 33.296875 C 27.75 33.183594 27.703125 33.066406 27.65625 32.953125 C 27.605469 32.839844 27.554688 32.726562 27.503906 32.613281 C 27.761719 33.199219 27.941406 33.765625 28.039062 34.183594 C 28.054688 34.238281 28.066406 34.289062 28.078125 34.335938 C 28.089844 34.382812 28.097656 34.429688 28.109375 34.46875 C 28.125 34.554688 28.140625 34.628906 28.152344 34.6875 C 28.164062 34.746094 28.175781 34.792969 28.179688 34.828125 C 28.183594 34.84375 28.1875 34.855469 28.1875 34.863281 C 28.191406 34.871094 28.191406 34.875 28.191406 34.875 C 28.191406 34.875 28.203125 34.960938 28.222656 35.09375 C 28.234375 35.160156 28.246094 35.238281 28.261719 35.320312 C 28.273438 35.40625 28.28125 35.496094 28.289062 35.585938 C 28.300781 35.679688 28.3125 35.769531 28.320312 35.859375 C 28.328125 35.945312 28.332031 36.03125 28.335938 36.105469 C 28.347656 36.253906 28.355469 36.359375 28.355469 36.386719 Z M 28.355469 36.386719 " fill-opacity="1" fill-rule="nonzero"/></g><path fill="#0f0f00" d="M 21.648438 35.144531 L 20.632812 35.144531 L 20.628906 35.148438 L 16.464844 35.144531 L 15.941406 36.0625 L 20.105469 36.0625 L 17.59375 40.433594 L 11.804688 40.429688 L 11.28125 41.34375 L 18.121094 41.347656 L 21.679688 35.164062 Z M 21.648438 35.144531 " fill-opacity="1" fill-rule="nonzero"/><path fill="#0f0f00" d="M 21.941406 34.703125 L 22.464844 33.785156 L 15.621094 33.785156 L 12.070312 39.988281 L 13.125 39.988281 L 14.597656 37.417969 L 18.757812 37.417969 L 19.285156 36.5 L 15.121094 36.5 L 16.152344 34.703125 Z M 21.941406 34.703125 " fill-opacity="1" fill-rule="nonzero"/><g clip-path="url(#492a41be2c)"><path fill="#e6b31e" d="M 11.808594 39.988281 L 15.492188 33.5625 L 22.839844 33.5625 L 22.1875 34.699219 L 22.609375 34.699219 L 23.472656 33.195312 L 15.277344 33.195312 L 11.386719 39.988281 Z M 11.808594 39.988281 " fill-opacity="1" fill-rule="nonzero"/></g><g clip-path="url(#497f77c8ef)"><path fill="#e6b31e" d="M 21.933594 35.144531 L 18.253906 41.574219 L 10.902344 41.574219 L 11.558594 40.425781 L 11.136719 40.425781 L 10.273438 41.9375 L 18.464844 41.9375 L 22.355469 35.144531 Z M 21.933594 35.144531 " fill-opacity="1" fill-rule="nonzero"/></g><g fill="#ffffff" fill-opacity="1"><g transform="translate(32.866783, 42.685565)"><g><path d="M 1.203125 -10.703125 L 8.484375 -10.703125 L 8.484375 -8.90625 L 3.375 -8.90625 L 3.375 -6.21875 L 7.796875 -6.21875 L 7.796875 -4.4375 L 3.375 -4.4375 L 3.375 0 L 1.203125 0 Z M 1.203125 -10.703125 "/></g></g></g><g fill="#ffffff" fill-opacity="1"><g transform="translate(41.956339, 42.685565)"><g><path d="M 3.140625 0.140625 C 2.660156 0.140625 2.222656 0.0507812 1.828125 -0.125 C 1.441406 -0.3125 1.132812 -0.578125 0.90625 -0.921875 C 0.675781 -1.265625 0.5625 -1.6875 0.5625 -2.1875 C 0.5625 -3.03125 0.875 -3.671875 1.5 -4.109375 C 2.125 -4.546875 3.113281 -4.769531 4.46875 -4.78125 L 5.421875 -4.796875 L 5.421875 -5.265625 C 5.421875 -5.609375 5.316406 -5.875 5.109375 -6.0625 C 4.910156 -6.257812 4.597656 -6.351562 4.171875 -6.34375 C 3.859375 -6.34375 3.554688 -6.269531 3.265625 -6.125 C 2.984375 -5.976562 2.789062 -5.726562 2.6875 -5.375 L 0.890625 -5.375 C 0.921875 -5.925781 1.082031 -6.378906 1.375 -6.734375 C 1.664062 -7.097656 2.0625 -7.367188 2.5625 -7.546875 C 3.0625 -7.722656 3.628906 -7.8125 4.265625 -7.8125 C 5.046875 -7.8125 5.671875 -7.710938 6.140625 -7.515625 C 6.617188 -7.316406 6.960938 -7.035156 7.171875 -6.671875 C 7.390625 -6.304688 7.5 -5.878906 7.5 -5.390625 L 7.5 0 L 5.703125 0 L 5.515625 -1.3125 C 5.253906 -0.757812 4.925781 -0.378906 4.53125 -0.171875 C 4.144531 0.0351562 3.679688 0.140625 3.140625 0.140625 Z M 3.875 -1.28125 C 4.070312 -1.28125 4.257812 -1.3125 4.4375 -1.375 C 4.625 -1.445312 4.789062 -1.539062 4.9375 -1.65625 C 5.082031 -1.78125 5.195312 -1.921875 5.28125 -2.078125 C 5.375 -2.234375 5.421875 -2.394531 5.421875 -2.5625 L 5.421875 -3.6875 L 4.65625 -3.671875 C 4.289062 -3.671875 3.953125 -3.628906 3.640625 -3.546875 C 3.328125 -3.460938 3.078125 -3.328125 2.890625 -3.140625 C 2.703125 -2.960938 2.609375 -2.71875 2.609375 -2.40625 C 2.609375 -2.050781 2.726562 -1.773438 2.96875 -1.578125 C 3.21875 -1.378906 3.519531 -1.28125 3.875 -1.28125 Z M 3.875 -1.28125 "/></g></g></g><g fill="#ffffff" fill-opacity="1"><g transform="translate(50.453257, 42.685565)"><g><path d="M 3.109375 -7.65625 L 3.109375 0 L 1.03125 0 L 1.03125 -7.65625 Z M 3.125 -10.703125 L 3.125 -8.75 L 1.015625 -8.75 L 1.015625 -10.703125 Z M 3.125 -10.703125 "/></g></g></g><g fill="#ffffff" fill-opacity="1"><g transform="translate(54.594303, 42.685565)"><g><path d="M 0.46875 0 L 0.46875 -1.203125 L 4.25 -6.140625 L 0.65625 -6.140625 L 0.65625 -7.65625 L 6.859375 -7.65625 L 6.859375 -6.453125 L 3.078125 -1.515625 L 6.890625 -1.515625 L 6.890625 0 Z M 0.46875 0 "/></g></g></g><g fill="#ffffff" fill-opacity="1"><g transform="translate(61.898544, 42.685565)"><g><path d="M 3.140625 0.140625 C 2.660156 0.140625 2.222656 0.0507812 1.828125 -0.125 C 1.441406 -0.3125 1.132812 -0.578125 0.90625 -0.921875 C 0.675781 -1.265625 0.5625 -1.6875 0.5625 -2.1875 C 0.5625 -3.03125 0.875 -3.671875 1.5 -4.109375 C 2.125 -4.546875 3.113281 -4.769531 4.46875 -4.78125 L 5.421875 -4.796875 L 5.421875 -5.265625 C 5.421875 -5.609375 5.316406 -5.875 5.109375 -6.0625 C 4.910156 -6.257812 4.597656 -6.351562 4.171875 -6.34375 C 3.859375 -6.34375 3.554688 -6.269531 3.265625 -6.125 C 2.984375 -5.976562 2.789062 -5.726562 2.6875 -5.375 L 0.890625 -5.375 C 0.921875 -5.925781 1.082031 -6.378906 1.375 -6.734375 C 1.664062 -7.097656 2.0625 -7.367188 2.5625 -7.546875 C 3.0625 -7.722656 3.628906 -7.8125 4.265625 -7.8125 C 5.046875 -7.8125 5.671875 -7.710938 6.140625 -7.515625 C 6.617188 -7.316406 6.960938 -7.035156 7.171875 -6.671875 C 7.390625 -6.304688 7.5 -5.878906 7.5 -5.390625 L 7.5 0 L 5.703125 0 L 5.515625 -1.3125 C 5.253906 -0.757812 4.925781 -0.378906 4.53125 -0.171875 C 4.144531 0.0351562 3.679688 0.140625 3.140625 0.140625 Z M 3.875 -1.28125 C 4.070312 -1.28125 4.257812 -1.3125 4.4375 -1.375 C 4.625 -1.445312 4.789062 -1.539062 4.9375 -1.65625 C 5.082031 -1.78125 5.195312 -1.921875 5.28125 -2.078125 C 5.375 -2.234375 5.421875 -2.394531 5.421875 -2.5625 L 5.421875 -3.6875 L 4.65625 -3.671875 C 4.289062 -3.671875 3.953125 -3.628906 3.640625 -3.546875 C 3.328125 -3.460938 3.078125 -3.328125 2.890625 -3.140625 C 2.703125 -2.960938 2.609375 -2.71875 2.609375 -2.40625 C 2.609375 -2.050781 2.726562 -1.773438 2.96875 -1.578125 C 3.21875 -1.378906 3.519531 -1.28125 3.875 -1.28125 Z M 3.875 -1.28125 "/></g></g></g><g fill="#ffffff" fill-opacity="1"><g transform="translate(70.395462, 42.685565)"><g><path d="M 0.921875 0 L 0.921875 -7.65625 L 3.046875 -7.65625 L 3.046875 -6.578125 C 3.171875 -6.765625 3.328125 -6.945312 3.515625 -7.125 C 3.703125 -7.300781 3.941406 -7.441406 4.234375 -7.546875 C 4.523438 -7.660156 4.867188 -7.71875 5.265625 -7.71875 C 5.742188 -7.71875 6.1875 -7.625 6.59375 -7.4375 C 7 -7.257812 7.328125 -6.972656 7.578125 -6.578125 C 7.828125 -6.191406 7.953125 -5.679688 7.953125 -5.046875 L 7.953125 0 L 5.796875 0 L 5.796875 -4.78125 C 5.796875 -5.195312 5.671875 -5.507812 5.421875 -5.71875 C 5.171875 -5.925781 4.867188 -6.03125 4.515625 -6.03125 C 4.273438 -6.03125 4.046875 -5.988281 3.828125 -5.90625 C 3.609375 -5.820312 3.429688 -5.691406 3.296875 -5.515625 C 3.160156 -5.347656 3.09375 -5.144531 3.09375 -4.90625 L 3.09375 0 Z M 0.921875 0 "/></g></g></g><g fill="#ffffff" fill-opacity="1"><g transform="translate(79.181289, 42.685565)"><g><path d="M 4.984375 -2.984375 C 4.984375 -2.296875 4.910156 -1.71875 4.765625 -1.25 C 4.617188 -0.789062 4.347656 -0.441406 3.953125 -0.203125 C 3.554688 0.0234375 2.988281 0.140625 2.25 0.140625 C 1.90625 0.140625 1.550781 0.113281 1.1875 0.0625 C 0.832031 0.0078125 0.570312 -0.0390625 0.40625 -0.09375 L 0.453125 -2.0625 C 0.597656 -2.03125 0.757812 -1.988281 0.9375 -1.9375 C 1.125 -1.894531 1.332031 -1.875 1.5625 -1.875 C 2.0625 -1.875 2.394531 -2.003906 2.5625 -2.265625 C 2.738281 -2.535156 2.828125 -2.96875 2.828125 -3.5625 L 2.828125 -10.703125 L 4.984375 -10.703125 Z M 4.984375 -2.984375 "/></g></g></g><g fill="#ffffff" fill-opacity="1"><g transform="translate(85.137282, 42.685565)"><g><path d="M 3.140625 0.140625 C 2.660156 0.140625 2.222656 0.0507812 1.828125 -0.125 C 1.441406 -0.3125 1.132812 -0.578125 0.90625 -0.921875 C 0.675781 -1.265625 0.5625 -1.6875 0.5625 -2.1875 C 0.5625 -3.03125 0.875 -3.671875 1.5 -4.109375 C 2.125 -4.546875 3.113281 -4.769531 4.46875 -4.78125 L 5.421875 -4.796875 L 5.421875 -5.265625 C 5.421875 -5.609375 5.316406 -5.875 5.109375 -6.0625 C 4.910156 -6.257812 4.597656 -6.351562 4.171875 -6.34375 C 3.859375 -6.34375 3.554688 -6.269531 3.265625 -6.125 C 2.984375 -5.976562 2.789062 -5.726562 2.6875 -5.375 L 0.890625 -5.375 C 0.921875 -5.925781 1.082031 -6.378906 1.375 -6.734375 C 1.664062 -7.097656 2.0625 -7.367188 2.5625 -7.546875 C 3.0625 -7.722656 3.628906 -7.8125 4.265625 -7.8125 C 5.046875 -7.8125 5.671875 -7.710938 6.140625 -7.515625 C 6.617188 -7.316406 6.960938 -7.035156 7.171875 -6.671875 C 7.390625 -6.304688 7.5 -5.878906 7.5 -5.390625 L 7.5 0 L 5.703125 0 L 5.515625 -1.3125 C 5.253906 -0.757812 4.925781 -0.378906 4.53125 -0.171875 C 4.144531 0.0351562 3.679688 0.140625 3.140625 0.140625 Z M 3.875 -1.28125 C 4.070312 -1.28125 4.257812 -1.3125 4.4375 -1.375 C 4.625 -1.445312 4.789062 -1.539062 4.9375 -1.65625 C 5.082031 -1.78125 5.195312 -1.921875 5.28125 -2.078125 C 5.375 -2.234375 5.421875 -2.394531 5.421875 -2.5625 L 5.421875 -3.6875 L 4.65625 -3.671875 C 4.289062 -3.671875 3.953125 -3.628906 3.640625 -3.546875 C 3.328125 -3.460938 3.078125 -3.328125 2.890625 -3.140625 C 2.703125 -2.960938 2.609375 -2.71875 2.609375 -2.40625 C 2.609375 -2.050781 2.726562 -1.773438 2.96875 -1.578125 C 3.21875 -1.378906 3.519531 -1.28125 3.875 -1.28125 Z M 3.875 -1.28125 "/></g></g></g><g fill="#ffffff" fill-opacity="1"><g transform="translate(93.6342, 42.685565)"><g><path d="M 7.515625 -7.65625 L 4.640625 0 L 3.078125 0 L 0.1875 -7.65625 L 2.140625 -7.65625 L 3.828125 -2.78125 L 3.875 -2.78125 L 5.53125 -7.65625 Z M 7.515625 -7.65625 "/></g></g></g><g fill="#ffffff" fill-opacity="1"><g transform="translate(101.338472, 42.685565)"><g><path d="M 3.140625 0.140625 C 2.660156 0.140625 2.222656 0.0507812 1.828125 -0.125 C 1.441406 -0.3125 1.132812 -0.578125 0.90625 -0.921875 C 0.675781 -1.265625 0.5625 -1.6875 0.5625 -2.1875 C 0.5625 -3.03125 0.875 -3.671875 1.5 -4.109375 C 2.125 -4.546875 3.113281 -4.769531 4.46875 -4.78125 L 5.421875 -4.796875 L 5.421875 -5.265625 C 5.421875 -5.609375 5.316406 -5.875 5.109375 -6.0625 C 4.910156 -6.257812 4.597656 -6.351562 4.171875 -6.34375 C 3.859375 -6.34375 3.554688 -6.269531 3.265625 -6.125 C 2.984375 -5.976562 2.789062 -5.726562 2.6875 -5.375 L 0.890625 -5.375 C 0.921875 -5.925781 1.082031 -6.378906 1.375 -6.734375 C 1.664062 -7.097656 2.0625 -7.367188 2.5625 -7.546875 C 3.0625 -7.722656 3.628906 -7.8125 4.265625 -7.8125 C 5.046875 -7.8125 5.671875 -7.710938 6.140625 -7.515625 C 6.617188 -7.316406 6.960938 -7.035156 7.171875 -6.671875 C 7.390625 -6.304688 7.5 -5.878906 7.5 -5.390625 L 7.5 0 L 5.703125 0 L 5.515625 -1.3125 C 5.253906 -0.757812 4.925781 -0.378906 4.53125 -0.171875 C 4.144531 0.0351562 3.679688 0.140625 3.140625 0.140625 Z M 3.875 -1.28125 C 4.070312 -1.28125 4.257812 -1.3125 4.4375 -1.375 C 4.625 -1.445312 4.789062 -1.539062 4.9375 -1.65625 C 5.082031 -1.78125 5.195312 -1.921875 5.28125 -2.078125 C 5.375 -2.234375 5.421875 -2.394531 5.421875 -2.5625 L 5.421875 -3.6875 L 4.65625 -3.671875 C 4.289062 -3.671875 3.953125 -3.628906 3.640625 -3.546875 C 3.328125 -3.460938 3.078125 -3.328125 2.890625 -3.140625 C 2.703125 -2.960938 2.609375 -2.71875 2.609375 -2.40625 C 2.609375 -2.050781 2.726562 -1.773438 2.96875 -1.578125 C 3.21875 -1.378906 3.519531 -1.28125 3.875 -1.28125 Z M 3.875 -1.28125 "/></g></g></g><g fill="#ffffff" fill-opacity="1"><g transform="translate(109.835389, 42.685565)"><g><path d="M 3.109375 -7.65625 L 3.109375 0 L 1.03125 0 L 1.03125 -7.65625 Z M 3.125 -10.703125 L 3.125 -8.75 L 1.015625 -8.75 L 1.015625 -10.703125 Z M 3.125 -10.703125 "/></g></g></g><g fill="#ffffff" fill-opacity="1"><g transform="translate(113.976435, 42.685565)"><g><path d="M 0.921875 0 L 0.921875 -7.65625 L 3 -7.65625 L 3 -5.84375 C 3.125 -6.226562 3.296875 -6.566406 3.515625 -6.859375 C 3.742188 -7.160156 4.019531 -7.394531 4.34375 -7.5625 C 4.664062 -7.726562 5.03125 -7.8125 5.4375 -7.8125 C 5.507812 -7.8125 5.570312 -7.804688 5.625 -7.796875 C 5.6875 -7.785156 5.734375 -7.773438 5.765625 -7.765625 L 5.765625 -5.703125 C 5.722656 -5.722656 5.671875 -5.734375 5.609375 -5.734375 C 5.546875 -5.742188 5.488281 -5.75 5.4375 -5.75 C 5.019531 -5.789062 4.660156 -5.78125 4.359375 -5.71875 C 4.054688 -5.65625 3.8125 -5.550781 3.625 -5.40625 C 3.4375 -5.269531 3.300781 -5.097656 3.21875 -4.890625 C 3.132812 -4.679688 3.09375 -4.445312 3.09375 -4.1875 L 3.09375 0 Z M 0.921875 0 "/></g></g></g></svg>